;TYPE=PLATED
;Layer: PTH_Through
;EasyEDA Pro v1.6.32, 2023-12-29 17:47:13
;Gerber Generator version 0.3
M48
METRIC,LZ,0000.00
;Hole size 1 = 0.30 METRIC
T01C0.30
;Hole size 2 = 0.30 METRIC
T02C0.30
;Hole size 3 = 0.85 METRIC
T03C0.85
;Hole size 4 = 0.91 METRIC
T04C0.91
;Hole size 5 = 1.00 METRIC
T05C1.00
;Hole size 6 = 1.10 METRIC
T06C1.10
;Hole size 7 = 1.15 METRIC
T07C1.15
;Hole size 8 = 2.20 METRIC
T08C2.20
;Hole size 9 = 3.00 METRIC
T09C3.00
%
G05
G90
T01
X000534Y002176
X000534Y002276
X000634Y002176
X000634Y002276
X000534Y002884
X000534Y002984
X000634Y002884
X000634Y002984
X-000407Y001818
X-000407Y001718
X-000507Y001818
X-000507Y001718
X-000407Y001098
X-000407Y000998
X-000507Y001098
X-000507Y000998
T02
X000241Y-002921
X-000013Y001461
X000533Y000356
X000787Y003505
X000051Y002629
X-000914Y001816
X000178Y002743
X000165Y002997
X000902Y003315
X001334Y003226
X000051Y002413
X-000419Y002718
X000406Y001854
X001499Y000279
X001994Y-000317
X000114Y001524
X001473Y000064
X002756Y-000813
X000000Y001232
X000000Y000978
X-001651Y000076
X-001918Y-000737
X001245Y-000635
X000876Y000584
X000279Y000508
X-000114Y000394
X-000610Y001410
X-000551Y000746
X000953Y002515
X001664Y002616
X-000965Y001435
X-000648Y000495
X-000914Y000419
X-001524Y000394
X000749Y-001003
X001118Y-000114
X-000902Y000597
X001067Y-000317
X002896Y001435
X002616Y001334
X002908Y001969
X003213Y-003061
X000851Y-002311
X-000571Y-002273
X-001003Y-001626
T03
X000612Y-000521
X-000138Y-000521
X-000388Y-000521
X-000638Y-000521
X000112Y-000521
X000362Y-000521
T04
X001435Y000533
X001435Y000787
X001435Y001041
X001435Y001295
X001435Y001549
X001435Y001803
X001435Y002057
X001435Y002311
X001435Y002565
X001435Y002819
X001181Y002819
X001181Y002565
X001181Y002311
X001181Y002057
X001181Y001803
X001181Y001549
X001181Y001295
X001181Y001041
X001181Y000787
X001181Y000533
X-001105Y000533
X-001105Y000787
X-001105Y001041
X-001105Y001295
X-001105Y001549
X-001105Y001803
X-001105Y002057
X-001105Y002311
X-001105Y002565
X-001105Y002819
X-001359Y000533
X-001359Y000787
X-001359Y001041
X-001359Y001295
X-001359Y001549
X-001359Y001803
X-001359Y002057
X-001359Y002311
X-001359Y002565
X-001359Y002819
X-001854Y-002174
X-001854Y-002424
X-000898Y-001152
X-000644Y-001152
X-000390Y-001152
X-000136Y-001152
X000118Y-001152
X000372Y-001152
X000626Y-001152
X000880Y-001152
T05
X-001181Y-002461
X-001181Y-002111
T06
X001905Y001943
X002159Y001943
X001905Y001689
X002159Y001689
X001905Y001435
X002159Y001435
X001905Y001181
X002159Y001181
X001905Y000927
X002159Y000927
T07
X000936Y-001784
X000936Y-002064
X000934Y-003036
X000934Y-003316
X002729Y-003317
X002729Y-003037
X002731Y-002070
X002731Y-001790
T08
X-003250Y000050
X003250Y000050
X000000Y-003350
T09
X-000834Y000004
X000766Y000004
M30