G04 Layer: BottomSolderMaskLayer*
G04 EasyEDA Pro v1.6.32, 2023-12-29 17:47:12*
G04 Gerber Generator version 0.3*
G04 Scale: 100 percent, Rotated: No, Reflected: No*
G04 Dimensions in millimeters*
G04 Leading zeros omitted, absolute positions, 4 integers and 2 decimals*
%FSLAX42Y42*%
%MOMM*%
%ADD10C,3.203199*%
%ADD11C,1.7272*%
%ADD12C,1.701597*%
%ADD13C,1.624025*%
%ADD14C,3.703201*%
%ADD15C,1.500022*%
%ADD16C,1.803199*%
%ADD17C,1.801597*%
G75*


G04 Pad Start*
G54D10*
G01X-3250Y50D03*
G01X3250Y50D03*
G01X0Y-3350D03*
G36*
G01X-1863Y2782D02*
G01X-1863Y3038D01*
G03X-1868Y3043I-5J0D01*
G01X-1954D01*
G03X-1958Y3038I0J-5D01*
G01Y2782D01*
G03X-1954Y2778I5J0D01*
G01X-1868D01*
G03X-1863Y2782I0J5D01*
G37*
G36*
G01X-2014Y2782D02*
G01X-2014Y3038D01*
G03X-2018Y3043I-5J0D01*
G01X-2104D01*
G03X-2109Y3038I0J-5D01*
G01Y2782D01*
G03X-2104Y2778I5J0D01*
G01X-2018D01*
G03X-2014Y2782I0J5D01*
G37*
G36*
G01X-2163Y2782D02*
G01X-2163Y3038D01*
G03X-2168Y3043I-5J0D01*
G01X-2254D01*
G03X-2258Y3038I0J-5D01*
G01Y2782D01*
G03X-2254Y2778I5J0D01*
G01X-2168D01*
G03X-2163Y2782I0J5D01*
G37*
G36*
G01X-2314Y2782D02*
G01X-2314Y3038D01*
G03X-2318Y3043I-5J0D01*
G01X-2404D01*
G03X-2409Y3038I0J-5D01*
G01Y2782D01*
G03X-2404Y2778I5J0D01*
G01X-2318D01*
G03X-2314Y2782I0J5D01*
G37*
G36*
G01X-1658Y2405D02*
G01X-1658Y2595D01*
G03X-1663Y2600I-5J0D01*
G01X-1769D01*
G03X-1773Y2595I0J-5D01*
G01Y2405D01*
G03X-1769Y2400I5J0D01*
G01X-1663D01*
G03X-1658Y2405I0J5D01*
G37*
G36*
G01X-2799Y2405D02*
G01X-2799Y2595D01*
G03X-2803Y2600I-5J0D01*
G01X-2909D01*
G03X-2914Y2595I0J-5D01*
G01Y2405D01*
G03X-2909Y2400I5J0D01*
G01X-2803D01*
G03X-2799Y2405I0J5D01*
G37*
G36*
G01X-2463Y2782D02*
G01X-2463Y3038D01*
G03X-2468Y3043I-5J0D01*
G01X-2554D01*
G03X-2558Y3038I0J-5D01*
G01Y2782D01*
G03X-2554Y2778I5J0D01*
G01X-2468D01*
G03X-2463Y2782I0J5D01*
G37*
G36*
G01X-2613Y2782D02*
G01X-2613Y3038D01*
G03X-2618Y3043I-5J0D01*
G01X-2704D01*
G03X-2708Y3038I0J-5D01*
G01Y2782D01*
G03X-2704Y2778I5J0D01*
G01X-2618D01*
G03X-2613Y2782I0J5D01*
G37*
G36*
G01X1507Y615D02*
G01X1363Y615D01*
G03X1354Y605I0J-10D01*
G01Y462D01*
G03X1363Y452I10J0D01*
G01X1507D01*
G03X1516Y462I0J10D01*
G01Y605D01*
G03X1507Y615I-10J0D01*
G37*
G54D11*
G01X1435Y787D03*
G01X1435Y1041D03*
G01X1435Y1295D03*
G01X1435Y1549D03*
G01X1435Y1803D03*
G01X1435Y2057D03*
G01X1435Y2311D03*
G01X1435Y2565D03*
G01X1435Y2819D03*
G01X1181Y2819D03*
G01X1181Y2565D03*
G01X1181Y2311D03*
G01X1181Y2057D03*
G01X1181Y1803D03*
G01X1181Y1549D03*
G01X1181Y1295D03*
G01X1181Y1041D03*
G01X1181Y787D03*
G01X1181Y533D03*
G01X-1105Y533D03*
G01X-1105Y787D03*
G01X-1105Y1041D03*
G01X-1105Y1295D03*
G01X-1105Y1549D03*
G01X-1105Y1803D03*
G01X-1105Y2057D03*
G01X-1105Y2311D03*
G01X-1105Y2565D03*
G01X-1105Y2819D03*
G01X-1359Y533D03*
G01X-1359Y787D03*
G01X-1359Y1041D03*
G01X-1359Y1295D03*
G01X-1359Y1549D03*
G01X-1359Y1803D03*
G01X-1359Y2057D03*
G01X-1359Y2311D03*
G01X-1359Y2565D03*
G01X-1359Y2819D03*
G36*
G01X2797Y2833D02*
G01X2797Y3089D01*
G03X2793Y3093I-5J0D01*
G01X2707D01*
G03X2702Y3089I0J-5D01*
G01Y2833D01*
G03X2707Y2828I5J0D01*
G01X2793D01*
G03X2797Y2833I0J5D01*
G37*
G36*
G01X2647Y2833D02*
G01X2647Y3089D01*
G03X2643Y3093I-5J0D01*
G01X2557D01*
G03X2552Y3089I0J-5D01*
G01Y2833D01*
G03X2557Y2828I5J0D01*
G01X2643D01*
G03X2647Y2833I0J5D01*
G37*
G36*
G01X2497Y2833D02*
G01X2497Y3089D01*
G03X2493Y3093I-5J0D01*
G01X2407D01*
G03X2402Y3089I0J-5D01*
G01Y2833D01*
G03X2407Y2828I5J0D01*
G01X2493D01*
G03X2497Y2833I0J5D01*
G37*
G36*
G01X2347Y2833D02*
G01X2347Y3089D01*
G03X2343Y3093I-5J0D01*
G01X2257D01*
G03X2252Y3089I0J-5D01*
G01Y2833D01*
G03X2257Y2828I5J0D01*
G01X2343D01*
G03X2347Y2833I0J5D01*
G37*
G36*
G01X3002Y2456D02*
G01X3002Y2646D01*
G03X2998Y2651I-5J0D01*
G01X2892D01*
G03X2887Y2646I0J-5D01*
G01Y2456D01*
G03X2892Y2451I5J0D01*
G01X2998D01*
G03X3002Y2456I0J5D01*
G37*
G36*
G01X1862Y2456D02*
G01X1862Y2646D01*
G03X1858Y2651I-5J0D01*
G01X1752D01*
G03X1747Y2646I0J-5D01*
G01Y2456D01*
G03X1752Y2451I5J0D01*
G01X1858D01*
G03X1862Y2456I0J5D01*
G37*
G36*
G01X2197Y2833D02*
G01X2197Y3089D01*
G03X2193Y3093I-5J0D01*
G01X2107D01*
G03X2102Y3089I0J-5D01*
G01Y2833D01*
G03X2107Y2828I5J0D01*
G01X2193D01*
G03X2197Y2833I0J5D01*
G37*
G36*
G01X2047Y2833D02*
G01X2047Y3089D01*
G03X2043Y3093I-5J0D01*
G01X1957D01*
G03X1952Y3089I0J-5D01*
G01Y2833D01*
G03X1957Y2828I5J0D01*
G01X2043D01*
G03X2047Y2833I0J5D01*
G37*
G36*
G01X1952Y-1195D02*
G01X1952Y-1450D01*
G03X1957Y-1455I5J0D01*
G01X2043D01*
G03X2047Y-1450I0J5D01*
G01Y-1195D01*
G03X2043Y-1190I-5J0D01*
G01X1957D01*
G03X1952Y-1195I0J-5D01*
G37*
G36*
G01X2102Y-1195D02*
G01X2102Y-1450D01*
G03X2107Y-1455I5J0D01*
G01X2193D01*
G03X2197Y-1450I0J5D01*
G01Y-1195D01*
G03X2193Y-1190I-5J0D01*
G01X2107D01*
G03X2102Y-1195I0J-5D01*
G37*
G36*
G01X2252Y-1195D02*
G01X2252Y-1450D01*
G03X2257Y-1455I5J0D01*
G01X2343D01*
G03X2347Y-1450I0J5D01*
G01Y-1195D01*
G03X2343Y-1190I-5J0D01*
G01X2257D01*
G03X2252Y-1195I0J-5D01*
G37*
G36*
G01X2402Y-1195D02*
G01X2402Y-1450D01*
G03X2407Y-1455I5J0D01*
G01X2493D01*
G03X2497Y-1450I0J5D01*
G01Y-1195D01*
G03X2493Y-1190I-5J0D01*
G01X2407D01*
G03X2402Y-1195I0J-5D01*
G37*
G36*
G01X1747Y-817D02*
G01X1747Y-1008D01*
G03X1752Y-1013I5J0D01*
G01X1858D01*
G03X1862Y-1008I0J5D01*
G01Y-817D01*
G03X1858Y-813I-5J0D01*
G01X1752D01*
G03X1747Y-817I0J-5D01*
G37*
G36*
G01X2887Y-817D02*
G01X2887Y-1008D01*
G03X2892Y-1013I5J0D01*
G01X2998D01*
G03X3002Y-1008I0J5D01*
G01Y-817D01*
G03X2998Y-813I-5J0D01*
G01X2892D01*
G03X2887Y-817I0J-5D01*
G37*
G36*
G01X2552Y-1195D02*
G01X2552Y-1450D01*
G03X2557Y-1455I5J0D01*
G01X2643D01*
G03X2647Y-1450I0J5D01*
G01Y-1195D01*
G03X2643Y-1190I-5J0D01*
G01X2557D01*
G03X2552Y-1195I0J-5D01*
G37*
G36*
G01X2702Y-1195D02*
G01X2702Y-1450D01*
G03X2707Y-1455I5J0D01*
G01X2793D01*
G03X2797Y-1450I0J5D01*
G01Y-1195D01*
G03X2793Y-1190I-5J0D01*
G01X2707D01*
G03X2702Y-1195I0J-5D01*
G37*
G36*
G01X-2709Y-1246D02*
G01X-2709Y-1501D01*
G03X-2704Y-1506I5J0D01*
G01X-2618D01*
G03X-2614Y-1501I0J5D01*
G01Y-1246D01*
G03X-2618Y-1241I-5J0D01*
G01X-2704D01*
G03X-2709Y-1246I0J-5D01*
G37*
G36*
G01X-2558Y-1246D02*
G01X-2558Y-1501D01*
G03X-2554Y-1506I5J0D01*
G01X-2468D01*
G03X-2463Y-1501I0J5D01*
G01Y-1246D01*
G03X-2468Y-1241I-5J0D01*
G01X-2554D01*
G03X-2558Y-1246I0J-5D01*
G37*
G36*
G01X-2409Y-1246D02*
G01X-2409Y-1501D01*
G03X-2404Y-1506I5J0D01*
G01X-2318D01*
G03X-2314Y-1501I0J5D01*
G01Y-1246D01*
G03X-2318Y-1241I-5J0D01*
G01X-2404D01*
G03X-2409Y-1246I0J-5D01*
G37*
G36*
G01X-2258Y-1246D02*
G01X-2258Y-1501D01*
G03X-2254Y-1506I5J0D01*
G01X-2168D01*
G03X-2163Y-1501I0J5D01*
G01Y-1246D01*
G03X-2168Y-1241I-5J0D01*
G01X-2254D01*
G03X-2258Y-1246I0J-5D01*
G37*
G36*
G01X-2914Y-868D02*
G01X-2914Y-1059D01*
G03X-2909Y-1063I5J0D01*
G01X-2803D01*
G03X-2799Y-1059I0J5D01*
G01Y-868D01*
G03X-2803Y-863I-5J0D01*
G01X-2909D01*
G03X-2914Y-868I0J-5D01*
G37*
G36*
G01X-1773Y-868D02*
G01X-1773Y-1059D01*
G03X-1769Y-1063I5J0D01*
G01X-1663D01*
G03X-1658Y-1059I0J5D01*
G01Y-868D01*
G03X-1663Y-863I-5J0D01*
G01X-1769D01*
G03X-1773Y-868I0J-5D01*
G37*
G36*
G01X-2109Y-1246D02*
G01X-2109Y-1501D01*
G03X-2104Y-1506I5J0D01*
G01X-2018D01*
G03X-2014Y-1501I0J5D01*
G01Y-1246D01*
G03X-2018Y-1241I-5J0D01*
G01X-2104D01*
G03X-2109Y-1246I0J-5D01*
G37*
G36*
G01X-1959Y-1246D02*
G01X-1959Y-1501D01*
G03X-1954Y-1506I5J0D01*
G01X-1868D01*
G03X-1864Y-1501I0J5D01*
G01Y-1246D01*
G03X-1868Y-1241I-5J0D01*
G01X-1954D01*
G03X-1959Y-1246I0J-5D01*
G37*
G54D12*
G01X-1181Y-2461D03*
G01X-1181Y-2111D03*
G36*
G01X-1780Y-2095D02*
G01X-1928Y-2095D01*
G03X-1933Y-2100I0J-5D01*
G01Y-2248D01*
G03X-1928Y-2252I5J0D01*
G01X-1780D01*
G03X-1775Y-2248I0J5D01*
G01Y-2100D01*
G03X-1780Y-2095I-5J0D01*
G37*
G54D13*
G01X-1854Y-2424D03*
G54D11*
G01X-898Y-1152D03*
G01X-644Y-1152D03*
G01X-390Y-1152D03*
G01X-136Y-1152D03*
G01X118Y-1152D03*
G01X372Y-1152D03*
G01X626Y-1152D03*
G01X880Y-1152D03*
G54D14*
G01X-834Y4D03*
G01X766Y4D03*
G54D15*
G01X612Y-521D03*
G01X-138Y-521D03*
G01X-388Y-521D03*
G36*
G01X-710Y-453D02*
G01X-710Y-588D01*
G03X-705Y-593I5J0D01*
G01X-570D01*
G03X-565Y-588I0J5D01*
G01Y-453D01*
G03X-570Y-448I-5J0D01*
G01X-705D01*
G03X-710Y-453I0J-5D01*
G37*
G01X112Y-521D03*
G01X362Y-521D03*
G54D16*
G01X936Y-1784D03*
G01X936Y-2064D03*
G01X934Y-3036D03*
G01X934Y-3316D03*
G01X2729Y-3317D03*
G01X2729Y-3037D03*
G01X2731Y-2070D03*
G01X2731Y-1790D03*
G36*
G01X1988Y2031D02*
G01X1822Y2031D01*
G03X1817Y2026I0J-5D01*
G01Y1860D01*
G03X1822Y1856I5J0D01*
G01X1988D01*
G03X1993Y1860I0J5D01*
G01Y2026D01*
G03X1988Y2031I-5J0D01*
G37*
G54D17*
G01X2159Y1943D03*
G01X1905Y1689D03*
G01X2159Y1689D03*
G01X1905Y1435D03*
G01X2159Y1435D03*
G01X1905Y1181D03*
G01X2159Y1181D03*
G01X1905Y927D03*
G01X2159Y927D03*
G04 Pad End*

M02*
