G04 Layer: DrillDrawingLayer*
G04 EasyEDA Pro v1.6.32, 2023-12-29 17:47:12*
G04 Gerber Generator version 0.3*
G04 Scale: 100 percent, Rotated: No, Reflected: No*
G04 Dimensions in millimeters*
G04 Leading zeros omitted, absolute positions, 4 integers and 2 decimals*
%FSLAX42Y42*%
%MOMM*%
%ADD10C,0.254*%
G75*


G04 Image Start*
G36*
G01X-1201Y-2441D02*
G01X-1201Y-2445D01*
G01X-1197D01*
G01X-1165D01*
G01Y-2477D01*
G01X-1197D01*
G01Y-2445D01*
G01X-1201D01*
G01Y-2481D01*
G01X-1161D01*
G01Y-2441D01*
G37*
G36*
G01X-1201Y-2091D02*
G01X-1201Y-2095D01*
G01X-1197D01*
G01X-1165D01*
G01Y-2127D01*
G01X-1197D01*
G01Y-2095D01*
G01X-1201D01*
G01Y-2131D01*
G01X-1161D01*
G01Y-2091D01*
G37*
G36*
G01X-834Y24D02*
G01X-836Y24D01*
G01X-838Y23D01*
G01X-840D01*
G01X-842Y22D01*
G01X-844Y21D01*
G01X-845Y20D01*
G01X-847Y19D01*
G01X-848Y18D01*
G01X-849Y17D01*
G01X-851Y15D01*
G01X-852Y13D01*
G01Y12D01*
G01X-853Y10D01*
G01X-854Y8D01*
G01Y6D01*
G01Y4D01*
G01X-851D01*
G01Y6D01*
G01X-850Y7D01*
G01Y9D01*
G01X-849Y10D01*
G01Y12D01*
G01X-848Y13D01*
G01X-847Y14D01*
G01X-846Y16D01*
G01X-845Y17D01*
G01X-843Y18D01*
G01X-842D01*
G01X-841Y19D01*
G01X-839Y20D01*
G01X-837D01*
G01X-836D01*
G01X-834Y21D01*
G01X-832Y20D01*
G01X-831D01*
G01X-829D01*
G01X-828Y19D01*
G01X-826Y18D01*
G01X-825D01*
G01X-824Y17D01*
G01X-822Y16D01*
G01X-821Y14D01*
G01X-820Y13D01*
G01Y12D01*
G01X-819Y10D01*
G01X-818Y9D01*
G01Y7D01*
G01Y6D01*
G01X-817Y4D01*
G01X-818Y2D01*
G01Y1D01*
G01Y-1D01*
G01X-819Y-3D01*
G01X-820Y-4D01*
G01Y-5D01*
G01X-821Y-7D01*
G01X-822Y-8D01*
G01X-824Y-9D01*
G01X-825Y-10D01*
G01X-826Y-11D01*
G01X-828D01*
G01X-829Y-12D01*
G01X-831D01*
G01X-832Y-13D01*
G01X-834D01*
G01X-836D01*
G01X-837Y-12D01*
G01X-839D01*
G01X-841Y-11D01*
G01X-842D01*
G01X-843Y-10D01*
G01X-845Y-9D01*
G01X-846Y-8D01*
G01X-847Y-7D01*
G01X-848Y-5D01*
G01X-849Y-4D01*
G01Y-3D01*
G01X-850Y-1D01*
G01Y1D01*
G01X-851Y2D01*
G01Y4D01*
G01X-854D01*
G01Y2D01*
G01Y-0D01*
G01X-853Y-2D01*
G01X-852Y-4D01*
G01Y-6D01*
G01X-851Y-7D01*
G01X-849Y-9D01*
G01X-848Y-10D01*
G01X-847Y-11D01*
G01X-845Y-13D01*
G01X-844Y-14D01*
G01X-842D01*
G01X-840Y-15D01*
G01X-838Y-16D01*
G01X-836D01*
G01X-834D01*
G01X-832D01*
G01X-830D01*
G01X-828Y-15D01*
G01X-826Y-14D01*
G01X-825D01*
G01X-823Y-13D01*
G01X-821Y-11D01*
G01X-820Y-10D01*
G01X-819Y-9D01*
G01X-818Y-7D01*
G01X-817Y-6D01*
G01X-816Y-4D01*
G01X-815Y-2D01*
G01Y-0D01*
G01X-814Y2D01*
G01Y4D01*
G01Y6D01*
G01X-815Y8D01*
G01Y10D01*
G01X-816Y12D01*
G01X-817Y13D01*
G01X-818Y15D01*
G01X-819Y17D01*
G01X-820Y18D01*
G01X-821Y19D01*
G01X-823Y20D01*
G01X-825Y21D01*
G01X-826Y22D01*
G01X-828Y23D01*
G01X-830D01*
G01X-832Y24D01*
G37*
G36*
G01X766Y24D02*
G01X764Y24D01*
G01X762Y23D01*
G01X760D01*
G01X758Y22D01*
G01X756Y21D01*
G01X755Y20D01*
G01X753Y19D01*
G01X752Y18D01*
G01X751Y17D01*
G01X749Y15D01*
G01X748Y13D01*
G01Y12D01*
G01X747Y10D01*
G01X746Y8D01*
G01Y6D01*
G01Y4D01*
G01X749D01*
G01Y6D01*
G01X750Y7D01*
G01Y9D01*
G01X751Y10D01*
G01Y12D01*
G01X752Y13D01*
G01X753Y14D01*
G01X754Y16D01*
G01X755Y17D01*
G01X757Y18D01*
G01X758D01*
G01X759Y19D01*
G01X761Y20D01*
G01X763D01*
G01X764D01*
G01X766Y21D01*
G01X768Y20D01*
G01X769D01*
G01X771D01*
G01X772Y19D01*
G01X774Y18D01*
G01X775D01*
G01X776Y17D01*
G01X778Y16D01*
G01X779Y14D01*
G01X780Y13D01*
G01Y12D01*
G01X781Y10D01*
G01X782Y9D01*
G01Y7D01*
G01Y6D01*
G01X783Y4D01*
G01X782Y2D01*
G01Y1D01*
G01Y-1D01*
G01X781Y-3D01*
G01X780Y-4D01*
G01Y-5D01*
G01X779Y-7D01*
G01X778Y-8D01*
G01X776Y-9D01*
G01X775Y-10D01*
G01X774Y-11D01*
G01X772D01*
G01X771Y-12D01*
G01X769D01*
G01X768Y-13D01*
G01X766D01*
G01X764D01*
G01X763Y-12D01*
G01X761D01*
G01X759Y-11D01*
G01X758D01*
G01X757Y-10D01*
G01X755Y-9D01*
G01X754Y-8D01*
G01X753Y-7D01*
G01X752Y-5D01*
G01X751Y-4D01*
G01Y-3D01*
G01X750Y-1D01*
G01Y1D01*
G01X749Y2D01*
G01Y4D01*
G01X746D01*
G01Y2D01*
G01Y-0D01*
G01X747Y-2D01*
G01X748Y-4D01*
G01Y-6D01*
G01X749Y-7D01*
G01X751Y-9D01*
G01X752Y-10D01*
G01X753Y-11D01*
G01X755Y-13D01*
G01X756Y-14D01*
G01X758D01*
G01X760Y-15D01*
G01X762Y-16D01*
G01X764D01*
G01X766D01*
G01X768D01*
G01X770D01*
G01X772Y-15D01*
G01X774Y-14D01*
G01X775D01*
G01X777Y-13D01*
G01X779Y-11D01*
G01X780Y-10D01*
G01X781Y-9D01*
G01X782Y-7D01*
G01X783Y-6D01*
G01X784Y-4D01*
G01X785Y-2D01*
G01Y-0D01*
G01X786Y2D01*
G01Y4D01*
G01Y6D01*
G01X785Y8D01*
G01Y10D01*
G01X784Y12D01*
G01X783Y13D01*
G01X782Y15D01*
G01X781Y17D01*
G01X780Y18D01*
G01X779Y19D01*
G01X777Y20D01*
G01X775Y21D01*
G01X774Y22D01*
G01X772Y23D01*
G01X770D01*
G01X768Y24D01*
G37*
G36*
G01X-3270Y67D02*
G01X-3268Y64D01*
G01X-3264D01*
G01X-3236D01*
G01X-3243Y52D01*
G01X-3250Y39D01*
G01X-3257Y52D01*
G01X-3264Y64D01*
G01X-3268D01*
G01X-3260Y50D01*
G01X-3250Y33D01*
G01X-3230Y67D01*
G37*
G36*
G01X3230Y67D02*
G01X3232Y64D01*
G01X3236D01*
G01X3264D01*
G01X3257Y52D01*
G01X3250Y39D01*
G01X3243Y52D01*
G01X3236Y64D01*
G01X3232D01*
G01X3250Y33D01*
G01X3260Y50D01*
G01X3270Y67D01*
G37*
G36*
G01X-20Y-3333D02*
G01X-18Y-3336D01*
G01X-14D01*
G01X14D01*
G01X7Y-3348D01*
G01X0Y-3361D01*
G01X-7Y-3348D01*
G01X-14Y-3336D01*
G01X-18D01*
G01X0Y-3367D01*
G01X20Y-3333D01*
G37*
G36*
G01X612Y-498D02*
G01X607Y-511D01*
G01X592Y-509D01*
G01X601Y-521D01*
G01X595Y-528D01*
G01X600D01*
G01X604Y-523D01*
G01X605Y-521D01*
G01X604Y-519D01*
G01X600Y-513D01*
G01X606Y-514D01*
G01X609D01*
G01X610Y-512D01*
G01X612Y-506D01*
G01X615Y-512D01*
G01X616Y-514D01*
G01X618D01*
G01X625Y-513D01*
G01X621Y-519D01*
G01X620Y-521D01*
G01X621Y-523D01*
G01X625Y-528D01*
G01X618Y-527D01*
G01X616D01*
G01X615Y-529D01*
G01X612Y-535D01*
G01X610Y-529D01*
G01X609Y-527D01*
G01X606D01*
G01X600Y-528D01*
G01X595D01*
G01X592Y-532D01*
G01X607Y-531D01*
G01X612Y-544D01*
G01X618Y-531D01*
G01X632Y-532D01*
G01X624Y-521D01*
G01X632Y-509D01*
G01X618Y-511D01*
G37*
G36*
G01X-138Y-498D02*
G01X-143Y-511D01*
G01X-158Y-509D01*
G01X-149Y-521D01*
G01X-155Y-528D01*
G01X-150D01*
G01X-146Y-523D01*
G01X-145Y-521D01*
G01X-146Y-519D01*
G01X-150Y-513D01*
G01X-144Y-514D01*
G01X-141D01*
G01X-140Y-512D01*
G01X-138Y-506D01*
G01X-135Y-512D01*
G01X-134Y-514D01*
G01X-132D01*
G01X-125Y-513D01*
G01X-129Y-519D01*
G01X-130Y-521D01*
G01X-129Y-523D01*
G01X-125Y-528D01*
G01X-132Y-527D01*
G01X-134D01*
G01X-135Y-529D01*
G01X-138Y-535D01*
G01X-140Y-529D01*
G01X-141Y-527D01*
G01X-144D01*
G01X-150Y-528D01*
G01X-155D01*
G01X-158Y-532D01*
G01X-143Y-531D01*
G01X-138Y-544D01*
G01X-132Y-531D01*
G01X-118Y-532D01*
G01X-126Y-521D01*
G01X-118Y-509D01*
G01X-132Y-511D01*
G37*
G36*
G01X-388Y-498D02*
G01X-393Y-511D01*
G01X-408Y-509D01*
G01X-399Y-521D01*
G01X-405Y-528D01*
G01X-400D01*
G01X-396Y-523D01*
G01X-395Y-521D01*
G01X-396Y-519D01*
G01X-400Y-513D01*
G01X-394Y-514D01*
G01X-391D01*
G01X-390Y-512D01*
G01X-388Y-506D01*
G01X-385Y-512D01*
G01X-384Y-514D01*
G01X-382D01*
G01X-375Y-513D01*
G01X-379Y-519D01*
G01X-380Y-521D01*
G01X-379Y-523D01*
G01X-375Y-528D01*
G01X-382Y-527D01*
G01X-384D01*
G01X-385Y-529D01*
G01X-388Y-535D01*
G01X-390Y-529D01*
G01X-391Y-527D01*
G01X-394D01*
G01X-400Y-528D01*
G01X-405D01*
G01X-408Y-532D01*
G01X-393Y-531D01*
G01X-388Y-544D01*
G01X-382Y-531D01*
G01X-368Y-532D01*
G01X-376Y-521D01*
G01X-368Y-509D01*
G01X-382Y-511D01*
G37*
G36*
G01X-638Y-498D02*
G01X-643Y-511D01*
G01X-658Y-509D01*
G01X-649Y-521D01*
G01X-655Y-528D01*
G01X-650D01*
G01X-646Y-523D01*
G01X-645Y-521D01*
G01X-646Y-519D01*
G01X-650Y-513D01*
G01X-644Y-514D01*
G01X-641D01*
G01X-640Y-512D01*
G01X-638Y-506D01*
G01X-635Y-512D01*
G01X-634Y-514D01*
G01X-632D01*
G01X-625Y-513D01*
G01X-629Y-519D01*
G01X-630Y-521D01*
G01X-629Y-523D01*
G01X-625Y-528D01*
G01X-632Y-527D01*
G01X-634D01*
G01X-635Y-529D01*
G01X-638Y-535D01*
G01X-640Y-529D01*
G01X-641Y-527D01*
G01X-644D01*
G01X-650Y-528D01*
G01X-655D01*
G01X-658Y-532D01*
G01X-643Y-531D01*
G01X-638Y-544D01*
G01X-632Y-531D01*
G01X-618Y-532D01*
G01X-626Y-521D01*
G01X-618Y-509D01*
G01X-632Y-511D01*
G37*
G36*
G01X112Y-498D02*
G01X107Y-511D01*
G01X92Y-509D01*
G01X101Y-521D01*
G01X95Y-528D01*
G01X100D01*
G01X104Y-523D01*
G01X105Y-521D01*
G01X104Y-519D01*
G01X100Y-513D01*
G01X106Y-514D01*
G01X109D01*
G01X110Y-512D01*
G01X112Y-506D01*
G01X115Y-512D01*
G01X116Y-514D01*
G01X118D01*
G01X125Y-513D01*
G01X121Y-519D01*
G01X120Y-521D01*
G01X121Y-523D01*
G01X125Y-528D01*
G01X118Y-527D01*
G01X116D01*
G01X115Y-529D01*
G01X112Y-535D01*
G01X110Y-529D01*
G01X109Y-527D01*
G01X106D01*
G01X100Y-528D01*
G01X95D01*
G01X92Y-532D01*
G01X107Y-531D01*
G01X112Y-544D01*
G01X118Y-531D01*
G01X132Y-532D01*
G01X124Y-521D01*
G01X132Y-509D01*
G01X118Y-511D01*
G37*
G36*
G01X362Y-498D02*
G01X357Y-511D01*
G01X342Y-509D01*
G01X351Y-521D01*
G01X345Y-528D01*
G01X350D01*
G01X354Y-523D01*
G01X355Y-521D01*
G01X354Y-519D01*
G01X350Y-513D01*
G01X356Y-514D01*
G01X359D01*
G01X360Y-512D01*
G01X362Y-506D01*
G01X365Y-512D01*
G01X366Y-514D01*
G01X368D01*
G01X375Y-513D01*
G01X371Y-519D01*
G01X370Y-521D01*
G01X371Y-523D01*
G01X375Y-528D01*
G01X368Y-527D01*
G01X366D01*
G01X365Y-529D01*
G01X362Y-535D01*
G01X360Y-529D01*
G01X359Y-527D01*
G01X356D01*
G01X350Y-528D01*
G01X345D01*
G01X342Y-532D01*
G01X357Y-531D01*
G01X362Y-544D01*
G01X368Y-531D01*
G01X382Y-532D01*
G01X374Y-521D01*
G01X382Y-509D01*
G01X368Y-511D01*
G37*
G36*
G01X916Y-1764D02*
G01X919Y-1771D01*
G01X923D01*
G01X935Y-1776D01*
G01X936Y-1777D01*
G01X937Y-1776D01*
G01X949Y-1771D01*
G01X944Y-1783D01*
G01X943Y-1784D01*
G01X944Y-1785D01*
G01X949Y-1797D01*
G01X937Y-1792D01*
G01X936Y-1791D01*
G01X935Y-1792D01*
G01X923Y-1797D01*
G01X928Y-1785D01*
G01X929Y-1784D01*
G01X928Y-1783D01*
G01X923Y-1771D01*
G01X919D01*
G01X925Y-1784D01*
G01X916Y-1804D01*
G01X936Y-1795D01*
G01X956Y-1804D01*
G01X947Y-1784D01*
G01X956Y-1764D01*
G01X936Y-1773D01*
G37*
G36*
G01X916Y-2044D02*
G01X919Y-2051D01*
G01X923D01*
G01X935Y-2056D01*
G01X936Y-2057D01*
G01X937Y-2056D01*
G01X949Y-2051D01*
G01X944Y-2063D01*
G01X943Y-2064D01*
G01X944Y-2065D01*
G01X949Y-2077D01*
G01X937Y-2072D01*
G01X936Y-2071D01*
G01X935Y-2072D01*
G01X923Y-2077D01*
G01X928Y-2065D01*
G01X929Y-2064D01*
G01X928Y-2063D01*
G01X923Y-2051D01*
G01X919D01*
G01X925Y-2064D01*
G01X916Y-2084D01*
G01X936Y-2075D01*
G01X956Y-2084D01*
G01X947Y-2064D01*
G01X956Y-2044D01*
G01X936Y-2053D01*
G37*
G36*
G01X915Y-3016D02*
G01X918Y-3023D01*
G01X921D01*
G01X933Y-3028D01*
G01X934Y-3029D01*
G01X936Y-3028D01*
G01X948Y-3023D01*
G01X942Y-3035D01*
G01Y-3036D01*
G01Y-3037D01*
G01X948Y-3049D01*
G01X936Y-3044D01*
G01X934Y-3043D01*
G01X933Y-3044D01*
G01X921Y-3049D01*
G01X927Y-3037D01*
G01Y-3036D01*
G01Y-3035D01*
G01X921Y-3023D01*
G01X918D01*
G01X924Y-3036D01*
G01X915Y-3056D01*
G01X934Y-3047D01*
G01X954Y-3056D01*
G01X945Y-3036D01*
G01X954Y-3016D01*
G01X934Y-3025D01*
G37*
G36*
G01X915Y-3296D02*
G01X918Y-3303D01*
G01X921D01*
G01X933Y-3308D01*
G01X934Y-3309D01*
G01X936Y-3308D01*
G01X948Y-3303D01*
G01X942Y-3315D01*
G01Y-3316D01*
G01Y-3317D01*
G01X948Y-3329D01*
G01X936Y-3324D01*
G01X934Y-3323D01*
G01X933Y-3324D01*
G01X921Y-3329D01*
G01X927Y-3317D01*
G01Y-3316D01*
G01Y-3315D01*
G01X921Y-3303D01*
G01X918D01*
G01X924Y-3316D01*
G01X915Y-3336D01*
G01X934Y-3327D01*
G01X954Y-3336D01*
G01X945Y-3316D01*
G01X954Y-3296D01*
G01X934Y-3305D01*
G37*
G36*
G01X2709Y-3297D02*
G01X2712Y-3304D01*
G01X2716D01*
G01X2728Y-3310D01*
G01X2729D01*
G01X2731D01*
G01X2742Y-3304D01*
G01X2737Y-3316D01*
G01X2736Y-3317D01*
G01X2737Y-3319D01*
G01X2742Y-3330D01*
G01X2731Y-3325D01*
G01X2729Y-3324D01*
G01X2728Y-3325D01*
G01X2716Y-3330D01*
G01X2721Y-3319D01*
G01X2722Y-3317D01*
G01X2721Y-3316D01*
G01X2716Y-3304D01*
G01X2712D01*
G01X2718Y-3317D01*
G01X2709Y-3337D01*
G01X2729Y-3328D01*
G01X2749Y-3337D01*
G01X2740Y-3317D01*
G01X2749Y-3297D01*
G01X2729Y-3306D01*
G37*
G36*
G01X2709Y-3017D02*
G01X2712Y-3024D01*
G01X2716D01*
G01X2728Y-3030D01*
G01X2729D01*
G01X2731D01*
G01X2742Y-3024D01*
G01X2737Y-3036D01*
G01X2736Y-3037D01*
G01X2737Y-3039D01*
G01X2742Y-3050D01*
G01X2731Y-3045D01*
G01X2729Y-3044D01*
G01X2728Y-3045D01*
G01X2716Y-3050D01*
G01X2721Y-3039D01*
G01X2722Y-3037D01*
G01X2721Y-3036D01*
G01X2716Y-3024D01*
G01X2712D01*
G01X2718Y-3037D01*
G01X2709Y-3057D01*
G01X2729Y-3048D01*
G01X2749Y-3057D01*
G01X2740Y-3037D01*
G01X2749Y-3017D01*
G01X2729Y-3027D01*
G37*
G36*
G01X2711Y-2050D02*
G01X2714Y-2057D01*
G01X2717D01*
G01X2729Y-2062D01*
G01X2731Y-2063D01*
G01X2732Y-2062D01*
G01X2744Y-2057D01*
G01X2738Y-2069D01*
G01Y-2070D01*
G01Y-2071D01*
G01X2744Y-2083D01*
G01X2732Y-2078D01*
G01X2731Y-2077D01*
G01X2729Y-2078D01*
G01X2717Y-2083D01*
G01X2723Y-2071D01*
G01Y-2070D01*
G01Y-2069D01*
G01X2717Y-2057D01*
G01X2714D01*
G01X2720Y-2070D01*
G01X2711Y-2090D01*
G01X2731Y-2081D01*
G01X2750Y-2090D01*
G01X2741Y-2070D01*
G01X2750Y-2050D01*
G01X2731Y-2059D01*
G37*
G36*
G01X2711Y-1770D02*
G01X2714Y-1777D01*
G01X2717D01*
G01X2729Y-1782D01*
G01X2731Y-1783D01*
G01X2732Y-1782D01*
G01X2744Y-1777D01*
G01X2738Y-1789D01*
G01Y-1790D01*
G01Y-1792D01*
G01X2744Y-1803D01*
G01X2732Y-1798D01*
G01X2731Y-1797D01*
G01X2729Y-1798D01*
G01X2717Y-1803D01*
G01X2723Y-1792D01*
G01Y-1790D01*
G01Y-1789D01*
G01X2717Y-1777D01*
G01X2714D01*
G01X2720Y-1790D01*
G01X2711Y-1810D01*
G01X2731Y-1801D01*
G01X2750Y-1810D01*
G01X2741Y-1790D01*
G01X2750Y-1770D01*
G01X2731Y-1779D01*
G37*
G36*
G01X1896Y1963D02*
G01X1896Y1952D01*
G01X1885D01*
G01Y1937D01*
G01X1888D01*
G01Y1949D01*
G01X1899D01*
G01Y1960D01*
G01X1911D01*
G01Y1949D01*
G01X1922D01*
G01Y1937D01*
G01X1911D01*
G01Y1926D01*
G01X1899D01*
G01Y1937D01*
G01X1888D01*
G01X1885D01*
G01Y1934D01*
G01X1896D01*
G01Y1923D01*
G01X1914D01*
G01Y1934D01*
G01X1925D01*
G01Y1952D01*
G01X1914D01*
G01Y1963D01*
G37*
G36*
G01X2150Y1963D02*
G01X2150Y1952D01*
G01X2139D01*
G01Y1937D01*
G01X2142D01*
G01Y1949D01*
G01X2153D01*
G01Y1960D01*
G01X2165D01*
G01Y1949D01*
G01X2176D01*
G01Y1937D01*
G01X2165D01*
G01Y1926D01*
G01X2153D01*
G01Y1937D01*
G01X2142D01*
G01X2139D01*
G01Y1934D01*
G01X2150D01*
G01Y1923D01*
G01X2168D01*
G01Y1934D01*
G01X2179D01*
G01Y1952D01*
G01X2168D01*
G01Y1963D01*
G37*
G36*
G01X1896Y1709D02*
G01X1896Y1698D01*
G01X1885D01*
G01Y1683D01*
G01X1888D01*
G01Y1695D01*
G01X1899D01*
G01Y1706D01*
G01X1911D01*
G01Y1695D01*
G01X1922D01*
G01Y1683D01*
G01X1911D01*
G01Y1672D01*
G01X1899D01*
G01Y1683D01*
G01X1888D01*
G01X1885D01*
G01Y1680D01*
G01X1896D01*
G01Y1669D01*
G01X1914D01*
G01Y1680D01*
G01X1925D01*
G01Y1698D01*
G01X1914D01*
G01Y1709D01*
G37*
G36*
G01X2150Y1709D02*
G01X2150Y1698D01*
G01X2139D01*
G01Y1683D01*
G01X2142D01*
G01Y1695D01*
G01X2153D01*
G01Y1706D01*
G01X2165D01*
G01Y1695D01*
G01X2176D01*
G01Y1683D01*
G01X2165D01*
G01Y1672D01*
G01X2153D01*
G01Y1683D01*
G01X2142D01*
G01X2139D01*
G01Y1680D01*
G01X2150D01*
G01Y1669D01*
G01X2168D01*
G01Y1680D01*
G01X2179D01*
G01Y1698D01*
G01X2168D01*
G01Y1709D01*
G37*
G36*
G01X1896Y1455D02*
G01X1896Y1444D01*
G01X1885D01*
G01Y1429D01*
G01X1888D01*
G01Y1441D01*
G01X1899D01*
G01Y1452D01*
G01X1911D01*
G01Y1441D01*
G01X1922D01*
G01Y1429D01*
G01X1911D01*
G01Y1418D01*
G01X1899D01*
G01Y1429D01*
G01X1888D01*
G01X1885D01*
G01Y1426D01*
G01X1896D01*
G01Y1415D01*
G01X1914D01*
G01Y1426D01*
G01X1925D01*
G01Y1444D01*
G01X1914D01*
G01Y1455D01*
G37*
G36*
G01X2150Y1455D02*
G01X2150Y1444D01*
G01X2139D01*
G01Y1429D01*
G01X2142D01*
G01Y1441D01*
G01X2153D01*
G01Y1452D01*
G01X2165D01*
G01Y1441D01*
G01X2176D01*
G01Y1429D01*
G01X2165D01*
G01Y1418D01*
G01X2153D01*
G01Y1429D01*
G01X2142D01*
G01X2139D01*
G01Y1426D01*
G01X2150D01*
G01Y1415D01*
G01X2168D01*
G01Y1426D01*
G01X2179D01*
G01Y1444D01*
G01X2168D01*
G01Y1455D01*
G37*
G36*
G01X1896Y1201D02*
G01X1896Y1190D01*
G01X1885D01*
G01Y1175D01*
G01X1888D01*
G01Y1187D01*
G01X1899D01*
G01Y1198D01*
G01X1911D01*
G01Y1187D01*
G01X1922D01*
G01Y1175D01*
G01X1911D01*
G01Y1164D01*
G01X1899D01*
G01Y1175D01*
G01X1888D01*
G01X1885D01*
G01Y1172D01*
G01X1896D01*
G01Y1161D01*
G01X1914D01*
G01Y1172D01*
G01X1925D01*
G01Y1190D01*
G01X1914D01*
G01Y1201D01*
G37*
G36*
G01X2150Y1201D02*
G01X2150Y1190D01*
G01X2139D01*
G01Y1175D01*
G01X2142D01*
G01Y1187D01*
G01X2153D01*
G01Y1198D01*
G01X2165D01*
G01Y1187D01*
G01X2176D01*
G01Y1175D01*
G01X2165D01*
G01Y1164D01*
G01X2153D01*
G01Y1175D01*
G01X2142D01*
G01X2139D01*
G01Y1172D01*
G01X2150D01*
G01Y1161D01*
G01X2168D01*
G01Y1172D01*
G01X2179D01*
G01Y1190D01*
G01X2168D01*
G01Y1201D01*
G37*
G36*
G01X1896Y947D02*
G01X1896Y936D01*
G01X1885D01*
G01Y921D01*
G01X1888D01*
G01Y933D01*
G01X1899D01*
G01Y944D01*
G01X1911D01*
G01Y933D01*
G01X1922D01*
G01Y921D01*
G01X1911D01*
G01Y910D01*
G01X1899D01*
G01Y921D01*
G01X1888D01*
G01X1885D01*
G01Y918D01*
G01X1896D01*
G01Y907D01*
G01X1914D01*
G01Y918D01*
G01X1925D01*
G01Y936D01*
G01X1914D01*
G01Y947D01*
G37*
G36*
G01X2150Y947D02*
G01X2150Y936D01*
G01X2139D01*
G01Y921D01*
G01X2142D01*
G01Y933D01*
G01X2153D01*
G01Y944D01*
G01X2165D01*
G01Y933D01*
G01X2176D01*
G01Y921D01*
G01X2165D01*
G01Y910D01*
G01X2153D01*
G01Y921D01*
G01X2142D01*
G01X2139D01*
G01Y918D01*
G01X2150D01*
G01Y907D01*
G01X2168D01*
G01Y918D01*
G01X2179D01*
G01Y936D01*
G01X2168D01*
G01Y947D01*
G37*
G36*
G01X1415Y553D02*
G01X1415Y550D01*
G01X1419D01*
G01X1427D01*
G01X1435Y534D01*
G01X1443Y550D01*
G01X1451D01*
G01Y541D01*
G01X1436Y533D01*
G01X1451Y526D01*
G01Y517D01*
G01X1443D01*
G01X1435Y532D01*
G01X1427Y517D01*
G01X1419D01*
G01Y526D01*
G01X1434Y533D01*
G01X1419Y541D01*
G01Y550D01*
G01X1415D01*
G01Y539D01*
G01X1426Y533D01*
G01X1415Y528D01*
G01Y513D01*
G01X1430D01*
G01X1435Y524D01*
G01X1441Y513D01*
G01X1455D01*
G01Y528D01*
G01X1444Y533D01*
G01X1455Y539D01*
G01Y553D01*
G01X1441D01*
G01X1435Y542D01*
G01X1430Y553D01*
G37*
G36*
G01X1415Y807D02*
G01X1415Y804D01*
G01X1419D01*
G01X1427D01*
G01X1435Y788D01*
G01X1443Y804D01*
G01X1451D01*
G01Y795D01*
G01X1436Y787D01*
G01X1451Y780D01*
G01Y771D01*
G01X1443D01*
G01X1435Y786D01*
G01X1427Y771D01*
G01X1419D01*
G01Y780D01*
G01X1434Y787D01*
G01X1419Y795D01*
G01Y804D01*
G01X1415D01*
G01Y793D01*
G01X1426Y787D01*
G01X1415Y782D01*
G01Y767D01*
G01X1430D01*
G01X1435Y778D01*
G01X1441Y767D01*
G01X1455D01*
G01Y782D01*
G01X1444Y787D01*
G01X1455Y793D01*
G01Y807D01*
G01X1441D01*
G01X1435Y796D01*
G01X1430Y807D01*
G37*
G36*
G01X1415Y1061D02*
G01X1415Y1058D01*
G01X1419D01*
G01X1427D01*
G01X1435Y1042D01*
G01X1443Y1058D01*
G01X1451D01*
G01Y1049D01*
G01X1436Y1041D01*
G01X1451Y1034D01*
G01Y1025D01*
G01X1443D01*
G01X1435Y1040D01*
G01X1427Y1025D01*
G01X1419D01*
G01Y1034D01*
G01X1434Y1041D01*
G01X1419Y1049D01*
G01Y1058D01*
G01X1415D01*
G01Y1047D01*
G01X1426Y1041D01*
G01X1415Y1036D01*
G01Y1021D01*
G01X1430D01*
G01X1435Y1032D01*
G01X1441Y1021D01*
G01X1455D01*
G01Y1036D01*
G01X1444Y1041D01*
G01X1455Y1047D01*
G01Y1061D01*
G01X1441D01*
G01X1435Y1050D01*
G01X1430Y1061D01*
G37*
G36*
G01X1415Y1315D02*
G01X1415Y1312D01*
G01X1419D01*
G01X1427D01*
G01X1435Y1296D01*
G01X1443Y1312D01*
G01X1451D01*
G01Y1303D01*
G01X1436Y1295D01*
G01X1451Y1288D01*
G01Y1279D01*
G01X1443D01*
G01X1435Y1294D01*
G01X1427Y1279D01*
G01X1419D01*
G01Y1288D01*
G01X1434Y1295D01*
G01X1419Y1303D01*
G01Y1312D01*
G01X1415D01*
G01Y1301D01*
G01X1426Y1295D01*
G01X1415Y1290D01*
G01Y1275D01*
G01X1430D01*
G01X1435Y1286D01*
G01X1441Y1275D01*
G01X1455D01*
G01Y1290D01*
G01X1444Y1295D01*
G01X1455Y1301D01*
G01Y1315D01*
G01X1441D01*
G01X1435Y1304D01*
G01X1430Y1315D01*
G37*
G36*
G01X1415Y1569D02*
G01X1415Y1566D01*
G01X1419D01*
G01X1427D01*
G01X1435Y1550D01*
G01X1443Y1566D01*
G01X1451D01*
G01Y1557D01*
G01X1436Y1549D01*
G01X1451Y1542D01*
G01Y1533D01*
G01X1443D01*
G01X1435Y1548D01*
G01X1427Y1533D01*
G01X1419D01*
G01Y1542D01*
G01X1434Y1549D01*
G01X1419Y1557D01*
G01Y1566D01*
G01X1415D01*
G01Y1555D01*
G01X1426Y1549D01*
G01X1415Y1544D01*
G01Y1529D01*
G01X1430D01*
G01X1435Y1540D01*
G01X1441Y1529D01*
G01X1455D01*
G01Y1544D01*
G01X1444Y1549D01*
G01X1455Y1555D01*
G01Y1569D01*
G01X1441D01*
G01X1435Y1558D01*
G01X1430Y1569D01*
G37*
G36*
G01X1415Y1823D02*
G01X1415Y1820D01*
G01X1419D01*
G01X1427D01*
G01X1435Y1804D01*
G01X1443Y1820D01*
G01X1451D01*
G01Y1811D01*
G01X1436Y1803D01*
G01X1451Y1796D01*
G01Y1787D01*
G01X1443D01*
G01X1435Y1802D01*
G01X1427Y1787D01*
G01X1419D01*
G01Y1796D01*
G01X1434Y1803D01*
G01X1419Y1811D01*
G01Y1820D01*
G01X1415D01*
G01Y1809D01*
G01X1426Y1803D01*
G01X1415Y1798D01*
G01Y1783D01*
G01X1430D01*
G01X1435Y1794D01*
G01X1441Y1783D01*
G01X1455D01*
G01Y1798D01*
G01X1444Y1803D01*
G01X1455Y1809D01*
G01Y1823D01*
G01X1441D01*
G01X1435Y1812D01*
G01X1430Y1823D01*
G37*
G36*
G01X1415Y2077D02*
G01X1415Y2074D01*
G01X1419D01*
G01X1427D01*
G01X1435Y2058D01*
G01X1443Y2074D01*
G01X1451D01*
G01Y2065D01*
G01X1436Y2057D01*
G01X1451Y2050D01*
G01Y2041D01*
G01X1443D01*
G01X1435Y2056D01*
G01X1427Y2041D01*
G01X1419D01*
G01Y2050D01*
G01X1434Y2057D01*
G01X1419Y2065D01*
G01Y2074D01*
G01X1415D01*
G01Y2063D01*
G01X1426Y2057D01*
G01X1415Y2052D01*
G01Y2037D01*
G01X1430D01*
G01X1435Y2048D01*
G01X1441Y2037D01*
G01X1455D01*
G01Y2052D01*
G01X1444Y2057D01*
G01X1455Y2063D01*
G01Y2077D01*
G01X1441D01*
G01X1435Y2066D01*
G01X1430Y2077D01*
G37*
G36*
G01X1415Y2331D02*
G01X1415Y2328D01*
G01X1419D01*
G01X1427D01*
G01X1435Y2312D01*
G01X1443Y2328D01*
G01X1451D01*
G01Y2319D01*
G01X1436Y2311D01*
G01X1451Y2304D01*
G01Y2295D01*
G01X1443D01*
G01X1435Y2310D01*
G01X1427Y2295D01*
G01X1419D01*
G01Y2304D01*
G01X1434Y2311D01*
G01X1419Y2319D01*
G01Y2328D01*
G01X1415D01*
G01Y2317D01*
G01X1426Y2311D01*
G01X1415Y2306D01*
G01Y2291D01*
G01X1430D01*
G01X1435Y2302D01*
G01X1441Y2291D01*
G01X1455D01*
G01Y2306D01*
G01X1444Y2311D01*
G01X1455Y2317D01*
G01Y2331D01*
G01X1441D01*
G01X1435Y2320D01*
G01X1430Y2331D01*
G37*
G36*
G01X1415Y2585D02*
G01X1415Y2582D01*
G01X1419D01*
G01X1427D01*
G01X1435Y2566D01*
G01X1443Y2582D01*
G01X1451D01*
G01Y2573D01*
G01X1436Y2565D01*
G01X1451Y2558D01*
G01Y2549D01*
G01X1443D01*
G01X1435Y2564D01*
G01X1427Y2549D01*
G01X1419D01*
G01Y2558D01*
G01X1434Y2565D01*
G01X1419Y2573D01*
G01Y2582D01*
G01X1415D01*
G01Y2571D01*
G01X1426Y2565D01*
G01X1415Y2560D01*
G01Y2545D01*
G01X1430D01*
G01X1435Y2556D01*
G01X1441Y2545D01*
G01X1455D01*
G01Y2560D01*
G01X1444Y2565D01*
G01X1455Y2571D01*
G01Y2585D01*
G01X1441D01*
G01X1435Y2574D01*
G01X1430Y2585D01*
G37*
G36*
G01X1415Y2839D02*
G01X1415Y2836D01*
G01X1419D01*
G01X1427D01*
G01X1435Y2820D01*
G01X1443Y2836D01*
G01X1451D01*
G01Y2827D01*
G01X1436Y2819D01*
G01X1451Y2812D01*
G01Y2803D01*
G01X1443D01*
G01X1435Y2818D01*
G01X1427Y2803D01*
G01X1419D01*
G01Y2812D01*
G01X1434Y2819D01*
G01X1419Y2827D01*
G01Y2836D01*
G01X1415D01*
G01Y2825D01*
G01X1426Y2819D01*
G01X1415Y2814D01*
G01Y2799D01*
G01X1430D01*
G01X1435Y2810D01*
G01X1441Y2799D01*
G01X1455D01*
G01Y2814D01*
G01X1444Y2819D01*
G01X1455Y2825D01*
G01Y2839D01*
G01X1441D01*
G01X1435Y2828D01*
G01X1430Y2839D01*
G37*
G36*
G01X1161Y2839D02*
G01X1161Y2836D01*
G01X1165D01*
G01X1173D01*
G01X1181Y2820D01*
G01X1189Y2836D01*
G01X1197D01*
G01Y2827D01*
G01X1182Y2819D01*
G01X1197Y2812D01*
G01Y2803D01*
G01X1189D01*
G01X1181Y2818D01*
G01X1173Y2803D01*
G01X1165D01*
G01Y2812D01*
G01X1180Y2819D01*
G01X1165Y2827D01*
G01Y2836D01*
G01X1161D01*
G01Y2825D01*
G01X1172Y2819D01*
G01X1161Y2814D01*
G01Y2799D01*
G01X1176D01*
G01X1181Y2810D01*
G01X1187Y2799D01*
G01X1201D01*
G01Y2814D01*
G01X1190Y2819D01*
G01X1201Y2825D01*
G01Y2839D01*
G01X1187D01*
G01X1181Y2828D01*
G01X1176Y2839D01*
G37*
G36*
G01X1161Y2585D02*
G01X1161Y2582D01*
G01X1165D01*
G01X1173D01*
G01X1181Y2566D01*
G01X1189Y2582D01*
G01X1197D01*
G01Y2573D01*
G01X1182Y2565D01*
G01X1197Y2558D01*
G01Y2549D01*
G01X1189D01*
G01X1181Y2564D01*
G01X1173Y2549D01*
G01X1165D01*
G01Y2558D01*
G01X1180Y2565D01*
G01X1165Y2573D01*
G01Y2582D01*
G01X1161D01*
G01Y2571D01*
G01X1172Y2565D01*
G01X1161Y2560D01*
G01Y2545D01*
G01X1176D01*
G01X1181Y2556D01*
G01X1187Y2545D01*
G01X1201D01*
G01Y2560D01*
G01X1190Y2565D01*
G01X1201Y2571D01*
G01Y2585D01*
G01X1187D01*
G01X1181Y2574D01*
G01X1176Y2585D01*
G37*
G36*
G01X1161Y2331D02*
G01X1161Y2328D01*
G01X1165D01*
G01X1173D01*
G01X1181Y2312D01*
G01X1189Y2328D01*
G01X1197D01*
G01Y2319D01*
G01X1182Y2311D01*
G01X1197Y2304D01*
G01Y2295D01*
G01X1189D01*
G01X1181Y2310D01*
G01X1173Y2295D01*
G01X1165D01*
G01Y2304D01*
G01X1180Y2311D01*
G01X1165Y2319D01*
G01Y2328D01*
G01X1161D01*
G01Y2317D01*
G01X1172Y2311D01*
G01X1161Y2306D01*
G01Y2291D01*
G01X1176D01*
G01X1181Y2302D01*
G01X1187Y2291D01*
G01X1201D01*
G01Y2306D01*
G01X1190Y2311D01*
G01X1201Y2317D01*
G01Y2331D01*
G01X1187D01*
G01X1181Y2320D01*
G01X1176Y2331D01*
G37*
G36*
G01X1161Y2077D02*
G01X1161Y2074D01*
G01X1165D01*
G01X1173D01*
G01X1181Y2058D01*
G01X1189Y2074D01*
G01X1197D01*
G01Y2065D01*
G01X1182Y2057D01*
G01X1197Y2050D01*
G01Y2041D01*
G01X1189D01*
G01X1181Y2056D01*
G01X1173Y2041D01*
G01X1165D01*
G01Y2050D01*
G01X1180Y2057D01*
G01X1165Y2065D01*
G01Y2074D01*
G01X1161D01*
G01Y2063D01*
G01X1172Y2057D01*
G01X1161Y2052D01*
G01Y2037D01*
G01X1176D01*
G01X1181Y2048D01*
G01X1187Y2037D01*
G01X1201D01*
G01Y2052D01*
G01X1190Y2057D01*
G01X1201Y2063D01*
G01Y2077D01*
G01X1187D01*
G01X1181Y2066D01*
G01X1176Y2077D01*
G37*
G36*
G01X1161Y1823D02*
G01X1161Y1820D01*
G01X1165D01*
G01X1173D01*
G01X1181Y1804D01*
G01X1189Y1820D01*
G01X1197D01*
G01Y1811D01*
G01X1182Y1803D01*
G01X1197Y1796D01*
G01Y1787D01*
G01X1189D01*
G01X1181Y1802D01*
G01X1173Y1787D01*
G01X1165D01*
G01Y1796D01*
G01X1180Y1803D01*
G01X1165Y1811D01*
G01Y1820D01*
G01X1161D01*
G01Y1809D01*
G01X1172Y1803D01*
G01X1161Y1798D01*
G01Y1783D01*
G01X1176D01*
G01X1181Y1794D01*
G01X1187Y1783D01*
G01X1201D01*
G01Y1798D01*
G01X1190Y1803D01*
G01X1201Y1809D01*
G01Y1823D01*
G01X1187D01*
G01X1181Y1812D01*
G01X1176Y1823D01*
G37*
G36*
G01X1161Y1569D02*
G01X1161Y1566D01*
G01X1165D01*
G01X1173D01*
G01X1181Y1550D01*
G01X1189Y1566D01*
G01X1197D01*
G01Y1557D01*
G01X1182Y1549D01*
G01X1197Y1542D01*
G01Y1533D01*
G01X1189D01*
G01X1181Y1548D01*
G01X1173Y1533D01*
G01X1165D01*
G01Y1542D01*
G01X1180Y1549D01*
G01X1165Y1557D01*
G01Y1566D01*
G01X1161D01*
G01Y1555D01*
G01X1172Y1549D01*
G01X1161Y1544D01*
G01Y1529D01*
G01X1176D01*
G01X1181Y1540D01*
G01X1187Y1529D01*
G01X1201D01*
G01Y1544D01*
G01X1190Y1549D01*
G01X1201Y1555D01*
G01Y1569D01*
G01X1187D01*
G01X1181Y1558D01*
G01X1176Y1569D01*
G37*
G36*
G01X1161Y1315D02*
G01X1161Y1312D01*
G01X1165D01*
G01X1173D01*
G01X1181Y1296D01*
G01X1189Y1312D01*
G01X1197D01*
G01Y1303D01*
G01X1182Y1295D01*
G01X1197Y1288D01*
G01Y1279D01*
G01X1189D01*
G01X1181Y1294D01*
G01X1173Y1279D01*
G01X1165D01*
G01Y1288D01*
G01X1180Y1295D01*
G01X1165Y1303D01*
G01Y1312D01*
G01X1161D01*
G01Y1301D01*
G01X1172Y1295D01*
G01X1161Y1290D01*
G01Y1275D01*
G01X1176D01*
G01X1181Y1286D01*
G01X1187Y1275D01*
G01X1201D01*
G01Y1290D01*
G01X1190Y1295D01*
G01X1201Y1301D01*
G01Y1315D01*
G01X1187D01*
G01X1181Y1304D01*
G01X1176Y1315D01*
G37*
G36*
G01X1161Y1061D02*
G01X1161Y1058D01*
G01X1165D01*
G01X1173D01*
G01X1181Y1042D01*
G01X1189Y1058D01*
G01X1197D01*
G01Y1049D01*
G01X1182Y1041D01*
G01X1197Y1034D01*
G01Y1025D01*
G01X1189D01*
G01X1181Y1040D01*
G01X1173Y1025D01*
G01X1165D01*
G01Y1034D01*
G01X1180Y1041D01*
G01X1165Y1049D01*
G01Y1058D01*
G01X1161D01*
G01Y1047D01*
G01X1172Y1041D01*
G01X1161Y1036D01*
G01Y1021D01*
G01X1176D01*
G01X1181Y1032D01*
G01X1187Y1021D01*
G01X1201D01*
G01Y1036D01*
G01X1190Y1041D01*
G01X1201Y1047D01*
G01Y1061D01*
G01X1187D01*
G01X1181Y1050D01*
G01X1176Y1061D01*
G37*
G36*
G01X1161Y807D02*
G01X1161Y804D01*
G01X1165D01*
G01X1173D01*
G01X1181Y788D01*
G01X1189Y804D01*
G01X1197D01*
G01Y795D01*
G01X1182Y787D01*
G01X1197Y780D01*
G01Y771D01*
G01X1189D01*
G01X1181Y786D01*
G01X1173Y771D01*
G01X1165D01*
G01Y780D01*
G01X1180Y787D01*
G01X1165Y795D01*
G01Y804D01*
G01X1161D01*
G01Y793D01*
G01X1172Y787D01*
G01X1161Y782D01*
G01Y767D01*
G01X1176D01*
G01X1181Y778D01*
G01X1187Y767D01*
G01X1201D01*
G01Y782D01*
G01X1190Y787D01*
G01X1201Y793D01*
G01Y807D01*
G01X1187D01*
G01X1181Y796D01*
G01X1176Y807D01*
G37*
G36*
G01X1161Y553D02*
G01X1161Y550D01*
G01X1165D01*
G01X1173D01*
G01X1181Y534D01*
G01X1189Y550D01*
G01X1197D01*
G01Y541D01*
G01X1182Y533D01*
G01X1197Y526D01*
G01Y517D01*
G01X1189D01*
G01X1181Y532D01*
G01X1173Y517D01*
G01X1165D01*
G01Y526D01*
G01X1180Y533D01*
G01X1165Y541D01*
G01Y550D01*
G01X1161D01*
G01Y539D01*
G01X1172Y533D01*
G01X1161Y528D01*
G01Y513D01*
G01X1176D01*
G01X1181Y524D01*
G01X1187Y513D01*
G01X1201D01*
G01Y528D01*
G01X1190Y533D01*
G01X1201Y539D01*
G01Y553D01*
G01X1187D01*
G01X1181Y542D01*
G01X1176Y553D01*
G37*
G36*
G01X-1125Y553D02*
G01X-1125Y550D01*
G01X-1121D01*
G01X-1113D01*
G01X-1105Y534D01*
G01X-1097Y550D01*
G01X-1089D01*
G01Y541D01*
G01X-1104Y533D01*
G01X-1089Y526D01*
G01Y517D01*
G01X-1097D01*
G01X-1105Y532D01*
G01X-1113Y517D01*
G01X-1121D01*
G01Y526D01*
G01X-1106Y533D01*
G01X-1121Y541D01*
G01Y550D01*
G01X-1125D01*
G01Y539D01*
G01X-1114Y533D01*
G01X-1125Y528D01*
G01Y513D01*
G01X-1110D01*
G01X-1105Y524D01*
G01X-1099Y513D01*
G01X-1085D01*
G01Y528D01*
G01X-1096Y533D01*
G01X-1085Y539D01*
G01Y553D01*
G01X-1099D01*
G01X-1105Y542D01*
G01X-1110Y553D01*
G37*
G36*
G01X-1125Y807D02*
G01X-1125Y804D01*
G01X-1121D01*
G01X-1113D01*
G01X-1105Y788D01*
G01X-1097Y804D01*
G01X-1089D01*
G01Y795D01*
G01X-1104Y787D01*
G01X-1089Y780D01*
G01Y771D01*
G01X-1097D01*
G01X-1105Y786D01*
G01X-1113Y771D01*
G01X-1121D01*
G01Y780D01*
G01X-1106Y787D01*
G01X-1121Y795D01*
G01Y804D01*
G01X-1125D01*
G01Y793D01*
G01X-1114Y787D01*
G01X-1125Y782D01*
G01Y767D01*
G01X-1110D01*
G01X-1105Y778D01*
G01X-1099Y767D01*
G01X-1085D01*
G01Y782D01*
G01X-1096Y787D01*
G01X-1085Y793D01*
G01Y807D01*
G01X-1099D01*
G01X-1105Y796D01*
G01X-1110Y807D01*
G37*
G36*
G01X-1125Y1061D02*
G01X-1125Y1058D01*
G01X-1121D01*
G01X-1113D01*
G01X-1105Y1042D01*
G01X-1097Y1058D01*
G01X-1089D01*
G01Y1049D01*
G01X-1104Y1041D01*
G01X-1089Y1034D01*
G01Y1025D01*
G01X-1097D01*
G01X-1105Y1040D01*
G01X-1113Y1025D01*
G01X-1121D01*
G01Y1034D01*
G01X-1106Y1041D01*
G01X-1121Y1049D01*
G01Y1058D01*
G01X-1125D01*
G01Y1047D01*
G01X-1114Y1041D01*
G01X-1125Y1036D01*
G01Y1021D01*
G01X-1110D01*
G01X-1105Y1032D01*
G01X-1099Y1021D01*
G01X-1085D01*
G01Y1036D01*
G01X-1096Y1041D01*
G01X-1085Y1047D01*
G01Y1061D01*
G01X-1099D01*
G01X-1105Y1050D01*
G01X-1110Y1061D01*
G37*
G36*
G01X-1125Y1315D02*
G01X-1125Y1312D01*
G01X-1121D01*
G01X-1113D01*
G01X-1105Y1296D01*
G01X-1097Y1312D01*
G01X-1089D01*
G01Y1303D01*
G01X-1104Y1295D01*
G01X-1089Y1288D01*
G01Y1279D01*
G01X-1097D01*
G01X-1105Y1294D01*
G01X-1113Y1279D01*
G01X-1121D01*
G01Y1288D01*
G01X-1106Y1295D01*
G01X-1121Y1303D01*
G01Y1312D01*
G01X-1125D01*
G01Y1301D01*
G01X-1114Y1295D01*
G01X-1125Y1290D01*
G01Y1275D01*
G01X-1110D01*
G01X-1105Y1286D01*
G01X-1099Y1275D01*
G01X-1085D01*
G01Y1290D01*
G01X-1096Y1295D01*
G01X-1085Y1301D01*
G01Y1315D01*
G01X-1099D01*
G01X-1105Y1304D01*
G01X-1110Y1315D01*
G37*
G36*
G01X-1125Y1569D02*
G01X-1125Y1566D01*
G01X-1121D01*
G01X-1113D01*
G01X-1105Y1550D01*
G01X-1097Y1566D01*
G01X-1089D01*
G01Y1557D01*
G01X-1104Y1549D01*
G01X-1089Y1542D01*
G01Y1533D01*
G01X-1097D01*
G01X-1105Y1548D01*
G01X-1113Y1533D01*
G01X-1121D01*
G01Y1542D01*
G01X-1106Y1549D01*
G01X-1121Y1557D01*
G01Y1566D01*
G01X-1125D01*
G01Y1555D01*
G01X-1114Y1549D01*
G01X-1125Y1544D01*
G01Y1529D01*
G01X-1110D01*
G01X-1105Y1540D01*
G01X-1099Y1529D01*
G01X-1085D01*
G01Y1544D01*
G01X-1096Y1549D01*
G01X-1085Y1555D01*
G01Y1569D01*
G01X-1099D01*
G01X-1105Y1558D01*
G01X-1110Y1569D01*
G37*
G36*
G01X-1125Y1823D02*
G01X-1125Y1820D01*
G01X-1121D01*
G01X-1113D01*
G01X-1105Y1804D01*
G01X-1097Y1820D01*
G01X-1089D01*
G01Y1811D01*
G01X-1104Y1803D01*
G01X-1089Y1796D01*
G01Y1787D01*
G01X-1097D01*
G01X-1105Y1802D01*
G01X-1113Y1787D01*
G01X-1121D01*
G01Y1796D01*
G01X-1106Y1803D01*
G01X-1121Y1811D01*
G01Y1820D01*
G01X-1125D01*
G01Y1809D01*
G01X-1114Y1803D01*
G01X-1125Y1798D01*
G01Y1783D01*
G01X-1110D01*
G01X-1105Y1794D01*
G01X-1099Y1783D01*
G01X-1085D01*
G01Y1798D01*
G01X-1096Y1803D01*
G01X-1085Y1809D01*
G01Y1823D01*
G01X-1099D01*
G01X-1105Y1812D01*
G01X-1110Y1823D01*
G37*
G36*
G01X-1125Y2077D02*
G01X-1125Y2074D01*
G01X-1121D01*
G01X-1113D01*
G01X-1105Y2058D01*
G01X-1097Y2074D01*
G01X-1089D01*
G01Y2065D01*
G01X-1104Y2057D01*
G01X-1089Y2050D01*
G01Y2041D01*
G01X-1097D01*
G01X-1105Y2056D01*
G01X-1113Y2041D01*
G01X-1121D01*
G01Y2050D01*
G01X-1106Y2057D01*
G01X-1121Y2065D01*
G01Y2074D01*
G01X-1125D01*
G01Y2063D01*
G01X-1114Y2057D01*
G01X-1125Y2052D01*
G01Y2037D01*
G01X-1110D01*
G01X-1105Y2048D01*
G01X-1099Y2037D01*
G01X-1085D01*
G01Y2052D01*
G01X-1096Y2057D01*
G01X-1085Y2063D01*
G01Y2077D01*
G01X-1099D01*
G01X-1105Y2066D01*
G01X-1110Y2077D01*
G37*
G36*
G01X-1125Y2331D02*
G01X-1125Y2328D01*
G01X-1121D01*
G01X-1113D01*
G01X-1105Y2312D01*
G01X-1097Y2328D01*
G01X-1089D01*
G01Y2319D01*
G01X-1104Y2311D01*
G01X-1089Y2304D01*
G01Y2295D01*
G01X-1097D01*
G01X-1105Y2310D01*
G01X-1113Y2295D01*
G01X-1121D01*
G01Y2304D01*
G01X-1106Y2311D01*
G01X-1121Y2319D01*
G01Y2328D01*
G01X-1125D01*
G01Y2317D01*
G01X-1114Y2311D01*
G01X-1125Y2306D01*
G01Y2291D01*
G01X-1110D01*
G01X-1105Y2302D01*
G01X-1099Y2291D01*
G01X-1085D01*
G01Y2306D01*
G01X-1096Y2311D01*
G01X-1085Y2317D01*
G01Y2331D01*
G01X-1099D01*
G01X-1105Y2320D01*
G01X-1110Y2331D01*
G37*
G36*
G01X-1125Y2585D02*
G01X-1125Y2582D01*
G01X-1121D01*
G01X-1113D01*
G01X-1105Y2566D01*
G01X-1097Y2582D01*
G01X-1089D01*
G01Y2573D01*
G01X-1104Y2565D01*
G01X-1089Y2558D01*
G01Y2549D01*
G01X-1097D01*
G01X-1105Y2564D01*
G01X-1113Y2549D01*
G01X-1121D01*
G01Y2558D01*
G01X-1106Y2565D01*
G01X-1121Y2573D01*
G01Y2582D01*
G01X-1125D01*
G01Y2571D01*
G01X-1114Y2565D01*
G01X-1125Y2560D01*
G01Y2545D01*
G01X-1110D01*
G01X-1105Y2556D01*
G01X-1099Y2545D01*
G01X-1085D01*
G01Y2560D01*
G01X-1096Y2565D01*
G01X-1085Y2571D01*
G01Y2585D01*
G01X-1099D01*
G01X-1105Y2574D01*
G01X-1110Y2585D01*
G37*
G36*
G01X-1125Y2839D02*
G01X-1125Y2836D01*
G01X-1121D01*
G01X-1113D01*
G01X-1105Y2820D01*
G01X-1097Y2836D01*
G01X-1089D01*
G01Y2827D01*
G01X-1104Y2819D01*
G01X-1089Y2812D01*
G01Y2803D01*
G01X-1097D01*
G01X-1105Y2818D01*
G01X-1113Y2803D01*
G01X-1121D01*
G01Y2812D01*
G01X-1106Y2819D01*
G01X-1121Y2827D01*
G01Y2836D01*
G01X-1125D01*
G01Y2825D01*
G01X-1114Y2819D01*
G01X-1125Y2814D01*
G01Y2799D01*
G01X-1110D01*
G01X-1105Y2810D01*
G01X-1099Y2799D01*
G01X-1085D01*
G01Y2814D01*
G01X-1096Y2819D01*
G01X-1085Y2825D01*
G01Y2839D01*
G01X-1099D01*
G01X-1105Y2828D01*
G01X-1110Y2839D01*
G37*
G36*
G01X-1379Y553D02*
G01X-1379Y550D01*
G01X-1375D01*
G01X-1367D01*
G01X-1359Y534D01*
G01X-1351Y550D01*
G01X-1343D01*
G01Y541D01*
G01X-1358Y533D01*
G01X-1343Y526D01*
G01Y517D01*
G01X-1351D01*
G01X-1359Y532D01*
G01X-1367Y517D01*
G01X-1375D01*
G01Y526D01*
G01X-1360Y533D01*
G01X-1375Y541D01*
G01Y550D01*
G01X-1379D01*
G01Y539D01*
G01X-1368Y533D01*
G01X-1379Y528D01*
G01Y513D01*
G01X-1364D01*
G01X-1359Y524D01*
G01X-1353Y513D01*
G01X-1339D01*
G01Y528D01*
G01X-1350Y533D01*
G01X-1339Y539D01*
G01Y553D01*
G01X-1353D01*
G01X-1359Y542D01*
G01X-1364Y553D01*
G37*
G36*
G01X-1379Y807D02*
G01X-1379Y804D01*
G01X-1375D01*
G01X-1367D01*
G01X-1359Y788D01*
G01X-1351Y804D01*
G01X-1343D01*
G01Y795D01*
G01X-1358Y787D01*
G01X-1343Y780D01*
G01Y771D01*
G01X-1351D01*
G01X-1359Y786D01*
G01X-1367Y771D01*
G01X-1375D01*
G01Y780D01*
G01X-1360Y787D01*
G01X-1375Y795D01*
G01Y804D01*
G01X-1379D01*
G01Y793D01*
G01X-1368Y787D01*
G01X-1379Y782D01*
G01Y767D01*
G01X-1364D01*
G01X-1359Y778D01*
G01X-1353Y767D01*
G01X-1339D01*
G01Y782D01*
G01X-1350Y787D01*
G01X-1339Y793D01*
G01Y807D01*
G01X-1353D01*
G01X-1359Y796D01*
G01X-1364Y807D01*
G37*
G36*
G01X-1379Y1061D02*
G01X-1379Y1058D01*
G01X-1375D01*
G01X-1367D01*
G01X-1359Y1042D01*
G01X-1351Y1058D01*
G01X-1343D01*
G01Y1049D01*
G01X-1358Y1041D01*
G01X-1343Y1034D01*
G01Y1025D01*
G01X-1351D01*
G01X-1359Y1040D01*
G01X-1367Y1025D01*
G01X-1375D01*
G01Y1034D01*
G01X-1360Y1041D01*
G01X-1375Y1049D01*
G01Y1058D01*
G01X-1379D01*
G01Y1047D01*
G01X-1368Y1041D01*
G01X-1379Y1036D01*
G01Y1021D01*
G01X-1364D01*
G01X-1359Y1032D01*
G01X-1353Y1021D01*
G01X-1339D01*
G01Y1036D01*
G01X-1350Y1041D01*
G01X-1339Y1047D01*
G01Y1061D01*
G01X-1353D01*
G01X-1359Y1050D01*
G01X-1364Y1061D01*
G37*
G36*
G01X-1379Y1315D02*
G01X-1379Y1312D01*
G01X-1375D01*
G01X-1367D01*
G01X-1359Y1296D01*
G01X-1351Y1312D01*
G01X-1343D01*
G01Y1303D01*
G01X-1358Y1295D01*
G01X-1343Y1288D01*
G01Y1279D01*
G01X-1351D01*
G01X-1359Y1294D01*
G01X-1367Y1279D01*
G01X-1375D01*
G01Y1288D01*
G01X-1360Y1295D01*
G01X-1375Y1303D01*
G01Y1312D01*
G01X-1379D01*
G01Y1301D01*
G01X-1368Y1295D01*
G01X-1379Y1290D01*
G01Y1275D01*
G01X-1364D01*
G01X-1359Y1286D01*
G01X-1353Y1275D01*
G01X-1339D01*
G01Y1290D01*
G01X-1350Y1295D01*
G01X-1339Y1301D01*
G01Y1315D01*
G01X-1353D01*
G01X-1359Y1304D01*
G01X-1364Y1315D01*
G37*
G36*
G01X-1379Y1569D02*
G01X-1379Y1566D01*
G01X-1375D01*
G01X-1367D01*
G01X-1359Y1550D01*
G01X-1351Y1566D01*
G01X-1343D01*
G01Y1557D01*
G01X-1358Y1549D01*
G01X-1343Y1542D01*
G01Y1533D01*
G01X-1351D01*
G01X-1359Y1548D01*
G01X-1367Y1533D01*
G01X-1375D01*
G01Y1542D01*
G01X-1360Y1549D01*
G01X-1375Y1557D01*
G01Y1566D01*
G01X-1379D01*
G01Y1555D01*
G01X-1368Y1549D01*
G01X-1379Y1544D01*
G01Y1529D01*
G01X-1364D01*
G01X-1359Y1540D01*
G01X-1353Y1529D01*
G01X-1339D01*
G01Y1544D01*
G01X-1350Y1549D01*
G01X-1339Y1555D01*
G01Y1569D01*
G01X-1353D01*
G01X-1359Y1558D01*
G01X-1364Y1569D01*
G37*
G36*
G01X-1379Y1823D02*
G01X-1379Y1820D01*
G01X-1375D01*
G01X-1367D01*
G01X-1359Y1804D01*
G01X-1351Y1820D01*
G01X-1343D01*
G01Y1811D01*
G01X-1358Y1803D01*
G01X-1343Y1796D01*
G01Y1787D01*
G01X-1351D01*
G01X-1359Y1802D01*
G01X-1367Y1787D01*
G01X-1375D01*
G01Y1796D01*
G01X-1360Y1803D01*
G01X-1375Y1811D01*
G01Y1820D01*
G01X-1379D01*
G01Y1809D01*
G01X-1368Y1803D01*
G01X-1379Y1798D01*
G01Y1783D01*
G01X-1364D01*
G01X-1359Y1794D01*
G01X-1353Y1783D01*
G01X-1339D01*
G01Y1798D01*
G01X-1350Y1803D01*
G01X-1339Y1809D01*
G01Y1823D01*
G01X-1353D01*
G01X-1359Y1812D01*
G01X-1364Y1823D01*
G37*
G36*
G01X-1379Y2077D02*
G01X-1379Y2074D01*
G01X-1375D01*
G01X-1367D01*
G01X-1359Y2058D01*
G01X-1351Y2074D01*
G01X-1343D01*
G01Y2065D01*
G01X-1358Y2057D01*
G01X-1343Y2050D01*
G01Y2041D01*
G01X-1351D01*
G01X-1359Y2056D01*
G01X-1367Y2041D01*
G01X-1375D01*
G01Y2050D01*
G01X-1360Y2057D01*
G01X-1375Y2065D01*
G01Y2074D01*
G01X-1379D01*
G01Y2063D01*
G01X-1368Y2057D01*
G01X-1379Y2052D01*
G01Y2037D01*
G01X-1364D01*
G01X-1359Y2048D01*
G01X-1353Y2037D01*
G01X-1339D01*
G01Y2052D01*
G01X-1350Y2057D01*
G01X-1339Y2063D01*
G01Y2077D01*
G01X-1353D01*
G01X-1359Y2066D01*
G01X-1364Y2077D01*
G37*
G36*
G01X-1379Y2331D02*
G01X-1379Y2328D01*
G01X-1375D01*
G01X-1367D01*
G01X-1359Y2312D01*
G01X-1351Y2328D01*
G01X-1343D01*
G01Y2319D01*
G01X-1358Y2311D01*
G01X-1343Y2304D01*
G01Y2295D01*
G01X-1351D01*
G01X-1359Y2310D01*
G01X-1367Y2295D01*
G01X-1375D01*
G01Y2304D01*
G01X-1360Y2311D01*
G01X-1375Y2319D01*
G01Y2328D01*
G01X-1379D01*
G01Y2317D01*
G01X-1368Y2311D01*
G01X-1379Y2306D01*
G01Y2291D01*
G01X-1364D01*
G01X-1359Y2302D01*
G01X-1353Y2291D01*
G01X-1339D01*
G01Y2306D01*
G01X-1350Y2311D01*
G01X-1339Y2317D01*
G01Y2331D01*
G01X-1353D01*
G01X-1359Y2320D01*
G01X-1364Y2331D01*
G37*
G36*
G01X-1379Y2585D02*
G01X-1379Y2582D01*
G01X-1375D01*
G01X-1367D01*
G01X-1359Y2566D01*
G01X-1351Y2582D01*
G01X-1343D01*
G01Y2573D01*
G01X-1358Y2565D01*
G01X-1343Y2558D01*
G01Y2549D01*
G01X-1351D01*
G01X-1359Y2564D01*
G01X-1367Y2549D01*
G01X-1375D01*
G01Y2558D01*
G01X-1360Y2565D01*
G01X-1375Y2573D01*
G01Y2582D01*
G01X-1379D01*
G01Y2571D01*
G01X-1368Y2565D01*
G01X-1379Y2560D01*
G01Y2545D01*
G01X-1364D01*
G01X-1359Y2556D01*
G01X-1353Y2545D01*
G01X-1339D01*
G01Y2560D01*
G01X-1350Y2565D01*
G01X-1339Y2571D01*
G01Y2585D01*
G01X-1353D01*
G01X-1359Y2574D01*
G01X-1364Y2585D01*
G37*
G36*
G01X-1379Y2839D02*
G01X-1379Y2836D01*
G01X-1375D01*
G01X-1367D01*
G01X-1359Y2820D01*
G01X-1351Y2836D01*
G01X-1343D01*
G01Y2827D01*
G01X-1358Y2819D01*
G01X-1343Y2812D01*
G01Y2803D01*
G01X-1351D01*
G01X-1359Y2818D01*
G01X-1367Y2803D01*
G01X-1375D01*
G01Y2812D01*
G01X-1360Y2819D01*
G01X-1375Y2827D01*
G01Y2836D01*
G01X-1379D01*
G01Y2825D01*
G01X-1368Y2819D01*
G01X-1379Y2814D01*
G01Y2799D01*
G01X-1364D01*
G01X-1359Y2810D01*
G01X-1353Y2799D01*
G01X-1339D01*
G01Y2814D01*
G01X-1350Y2819D01*
G01X-1339Y2825D01*
G01Y2839D01*
G01X-1353D01*
G01X-1359Y2828D01*
G01X-1364Y2839D01*
G37*
G36*
G01X-1874Y-2154D02*
G01X-1874Y-2157D01*
G01X-1871D01*
G01X-1862D01*
G01X-1857Y-2166D01*
G01X-1854Y-2173D01*
G01X-1851Y-2166D01*
G01X-1847Y-2157D01*
G01X-1838D01*
G01Y-2166D01*
G01X-1853Y-2174D01*
G01X-1838Y-2181D01*
G01Y-2190D01*
G01X-1847D01*
G01X-1854Y-2175D01*
G01X-1862Y-2190D01*
G01X-1871D01*
G01Y-2181D01*
G01X-1855Y-2174D01*
G01X-1871Y-2166D01*
G01Y-2157D01*
G01X-1874D01*
G01Y-2168D01*
G01X-1863Y-2174D01*
G01X-1874Y-2179D01*
G01Y-2194D01*
G01X-1860D01*
G01X-1854Y-2183D01*
G01X-1849Y-2194D01*
G01X-1834D01*
G01Y-2179D01*
G01X-1845Y-2174D01*
G01X-1834Y-2168D01*
G01Y-2154D01*
G01X-1849D01*
G01X-1854Y-2165D01*
G01X-1860Y-2154D01*
G37*
G36*
G01X-1874Y-2404D02*
G01X-1874Y-2407D01*
G01X-1871D01*
G01X-1862D01*
G01X-1854Y-2423D01*
G01X-1847Y-2407D01*
G01X-1838D01*
G01Y-2416D01*
G01X-1853Y-2424D01*
G01X-1838Y-2431D01*
G01Y-2440D01*
G01X-1847D01*
G01X-1851Y-2431D01*
G01X-1854Y-2425D01*
G01X-1857Y-2431D01*
G01X-1862Y-2440D01*
G01X-1871D01*
G01Y-2431D01*
G01X-1855Y-2424D01*
G01X-1871Y-2416D01*
G01Y-2407D01*
G01X-1874D01*
G01Y-2418D01*
G01X-1863Y-2424D01*
G01X-1874Y-2429D01*
G01Y-2444D01*
G01X-1860D01*
G01X-1854Y-2433D01*
G01X-1849Y-2444D01*
G01X-1834D01*
G01Y-2429D01*
G01X-1845Y-2424D01*
G01X-1834Y-2418D01*
G01Y-2404D01*
G01X-1849D01*
G01X-1854Y-2415D01*
G01X-1860Y-2404D01*
G37*
G36*
G01X-918Y-1132D02*
G01X-918Y-1135D01*
G01X-914D01*
G01X-905D01*
G01X-901Y-1144D01*
G01X-898Y-1151D01*
G01X-894Y-1144D01*
G01X-890Y-1135D01*
G01X-881D01*
G01Y-1144D01*
G01X-890Y-1149D01*
G01X-897Y-1152D01*
G01X-890Y-1155D01*
G01X-881Y-1159D01*
G01Y-1168D01*
G01X-890D01*
G01X-898Y-1153D01*
G01X-905Y-1168D01*
G01X-914D01*
G01Y-1159D01*
G01X-899Y-1152D01*
G01X-905Y-1149D01*
G01X-914Y-1144D01*
G01Y-1135D01*
G01X-918D01*
G01Y-1146D01*
G01X-907Y-1152D01*
G01X-918Y-1157D01*
G01Y-1172D01*
G01X-903D01*
G01X-898Y-1161D01*
G01X-892Y-1172D01*
G01X-878D01*
G01Y-1157D01*
G01X-889Y-1152D01*
G01X-878Y-1146D01*
G01Y-1132D01*
G01X-892D01*
G01X-898Y-1143D01*
G01X-903Y-1132D01*
G37*
G36*
G01X-664Y-1132D02*
G01X-664Y-1135D01*
G01X-660D01*
G01X-651D01*
G01X-647Y-1144D01*
G01X-644Y-1151D01*
G01X-640Y-1144D01*
G01X-636Y-1135D01*
G01X-627D01*
G01Y-1144D01*
G01X-636Y-1149D01*
G01X-643Y-1152D01*
G01X-636Y-1155D01*
G01X-627Y-1159D01*
G01Y-1168D01*
G01X-636D01*
G01X-644Y-1153D01*
G01X-651Y-1168D01*
G01X-660D01*
G01Y-1159D01*
G01X-645Y-1152D01*
G01X-651Y-1149D01*
G01X-660Y-1144D01*
G01Y-1135D01*
G01X-664D01*
G01Y-1146D01*
G01X-653Y-1152D01*
G01X-664Y-1157D01*
G01Y-1172D01*
G01X-649D01*
G01X-644Y-1161D01*
G01X-638Y-1172D01*
G01X-624D01*
G01Y-1157D01*
G01X-635Y-1152D01*
G01X-624Y-1146D01*
G01Y-1132D01*
G01X-638D01*
G01X-644Y-1143D01*
G01X-649Y-1132D01*
G37*
G36*
G01X-410Y-1132D02*
G01X-410Y-1135D01*
G01X-406D01*
G01X-397D01*
G01X-393Y-1144D01*
G01X-390Y-1151D01*
G01X-386Y-1144D01*
G01X-382Y-1135D01*
G01X-373D01*
G01Y-1144D01*
G01X-382Y-1149D01*
G01X-389Y-1152D01*
G01X-382Y-1155D01*
G01X-373Y-1159D01*
G01Y-1168D01*
G01X-382D01*
G01X-390Y-1153D01*
G01X-397Y-1168D01*
G01X-406D01*
G01Y-1159D01*
G01X-391Y-1152D01*
G01X-397Y-1149D01*
G01X-406Y-1144D01*
G01Y-1135D01*
G01X-410D01*
G01Y-1146D01*
G01X-399Y-1152D01*
G01X-410Y-1157D01*
G01Y-1172D01*
G01X-395D01*
G01X-390Y-1161D01*
G01X-384Y-1172D01*
G01X-370D01*
G01Y-1157D01*
G01X-381Y-1152D01*
G01X-370Y-1146D01*
G01Y-1132D01*
G01X-384D01*
G01X-390Y-1143D01*
G01X-395Y-1132D01*
G37*
G36*
G01X-156Y-1132D02*
G01X-156Y-1135D01*
G01X-152D01*
G01X-143D01*
G01X-139Y-1144D01*
G01X-136Y-1151D01*
G01X-132Y-1144D01*
G01X-128Y-1135D01*
G01X-119D01*
G01Y-1144D01*
G01X-128Y-1149D01*
G01X-135Y-1152D01*
G01X-128Y-1155D01*
G01X-119Y-1159D01*
G01Y-1168D01*
G01X-128D01*
G01X-136Y-1153D01*
G01X-143Y-1168D01*
G01X-152D01*
G01Y-1159D01*
G01X-137Y-1152D01*
G01X-143Y-1149D01*
G01X-152Y-1144D01*
G01Y-1135D01*
G01X-156D01*
G01Y-1146D01*
G01X-145Y-1152D01*
G01X-156Y-1157D01*
G01Y-1172D01*
G01X-141D01*
G01X-136Y-1161D01*
G01X-130Y-1172D01*
G01X-116D01*
G01Y-1157D01*
G01X-127Y-1152D01*
G01X-116Y-1146D01*
G01Y-1132D01*
G01X-130D01*
G01X-136Y-1143D01*
G01X-141Y-1132D01*
G37*
G36*
G01X98Y-1132D02*
G01X98Y-1135D01*
G01X102D01*
G01X111D01*
G01X115Y-1144D01*
G01X118Y-1151D01*
G01X122Y-1144D01*
G01X126Y-1135D01*
G01X135D01*
G01Y-1144D01*
G01X126Y-1149D01*
G01X119Y-1152D01*
G01X126Y-1155D01*
G01X135Y-1159D01*
G01Y-1168D01*
G01X126D01*
G01X118Y-1153D01*
G01X111Y-1168D01*
G01X102D01*
G01Y-1159D01*
G01X117Y-1152D01*
G01X111Y-1149D01*
G01X102Y-1144D01*
G01Y-1135D01*
G01X98D01*
G01Y-1146D01*
G01X109Y-1152D01*
G01X98Y-1157D01*
G01Y-1172D01*
G01X113D01*
G01X118Y-1161D01*
G01X124Y-1172D01*
G01X138D01*
G01Y-1157D01*
G01X127Y-1152D01*
G01X138Y-1146D01*
G01Y-1132D01*
G01X124D01*
G01X118Y-1143D01*
G01X113Y-1132D01*
G37*
G36*
G01X352Y-1132D02*
G01X352Y-1135D01*
G01X356D01*
G01X365D01*
G01X369Y-1144D01*
G01X372Y-1151D01*
G01X376Y-1144D01*
G01X380Y-1135D01*
G01X389D01*
G01Y-1144D01*
G01X380Y-1149D01*
G01X373Y-1152D01*
G01X380Y-1155D01*
G01X389Y-1159D01*
G01Y-1168D01*
G01X380D01*
G01X372Y-1153D01*
G01X365Y-1168D01*
G01X356D01*
G01Y-1159D01*
G01X371Y-1152D01*
G01X365Y-1149D01*
G01X356Y-1144D01*
G01Y-1135D01*
G01X352D01*
G01Y-1146D01*
G01X363Y-1152D01*
G01X352Y-1157D01*
G01Y-1172D01*
G01X367D01*
G01X372Y-1161D01*
G01X378Y-1172D01*
G01X392D01*
G01Y-1157D01*
G01X381Y-1152D01*
G01X392Y-1146D01*
G01Y-1132D01*
G01X378D01*
G01X372Y-1143D01*
G01X367Y-1132D01*
G37*
G36*
G01X606Y-1132D02*
G01X606Y-1135D01*
G01X610D01*
G01X619D01*
G01X623Y-1144D01*
G01X626Y-1151D01*
G01X630Y-1144D01*
G01X634Y-1135D01*
G01X643D01*
G01Y-1144D01*
G01X634Y-1149D01*
G01X627Y-1152D01*
G01X634Y-1155D01*
G01X643Y-1159D01*
G01Y-1168D01*
G01X634D01*
G01X626Y-1153D01*
G01X619Y-1168D01*
G01X610D01*
G01Y-1159D01*
G01X625Y-1152D01*
G01X619Y-1149D01*
G01X610Y-1144D01*
G01Y-1135D01*
G01X606D01*
G01Y-1146D01*
G01X617Y-1152D01*
G01X606Y-1157D01*
G01Y-1172D01*
G01X621D01*
G01X626Y-1161D01*
G01X632Y-1172D01*
G01X646D01*
G01Y-1157D01*
G01X635Y-1152D01*
G01X646Y-1146D01*
G01Y-1132D01*
G01X632D01*
G01X626Y-1143D01*
G01X621Y-1132D01*
G37*
G36*
G01X860Y-1132D02*
G01X860Y-1135D01*
G01X864D01*
G01X873D01*
G01X877Y-1144D01*
G01X880Y-1151D01*
G01X884Y-1144D01*
G01X888Y-1135D01*
G01X897D01*
G01Y-1144D01*
G01X888Y-1149D01*
G01X881Y-1152D01*
G01X888Y-1155D01*
G01X897Y-1159D01*
G01Y-1168D01*
G01X888D01*
G01X880Y-1153D01*
G01X873Y-1168D01*
G01X864D01*
G01Y-1159D01*
G01X879Y-1152D01*
G01X873Y-1149D01*
G01X864Y-1144D01*
G01Y-1135D01*
G01X860D01*
G01Y-1146D01*
G01X871Y-1152D01*
G01X860Y-1157D01*
G01Y-1172D01*
G01X875D01*
G01X880Y-1161D01*
G01X886Y-1172D01*
G01X900D01*
G01Y-1157D01*
G01X889Y-1152D01*
G01X900Y-1146D01*
G01Y-1132D01*
G01X886D01*
G01X880Y-1143D01*
G01X875Y-1132D01*
G37*
G36*
G01X241Y-2901D02*
G01X221Y-2921D01*
G01X226D01*
G01X241Y-2905D01*
G01X257Y-2921D01*
G01X241Y-2937D01*
G01X226Y-2921D01*
G01X221D01*
G01X241Y-2941D01*
G01X261Y-2921D01*
G37*
G36*
G01X-13Y1480D02*
G01X-33Y1461D01*
G01X-28D01*
G01X-13Y1476D01*
G01X3Y1461D01*
G01X-13Y1445D01*
G01X-28Y1461D01*
G01X-33D01*
G01X-13Y1441D01*
G01X7Y1461D01*
G37*
G36*
G01X533Y376D02*
G01X513Y356D01*
G01X518D01*
G01X533Y371D01*
G01X549Y356D01*
G01X533Y340D01*
G01X518Y356D01*
G01X513D01*
G01X533Y336D01*
G01X553Y356D01*
G37*
G36*
G01X787Y3525D02*
G01X767Y3505D01*
G01X772D01*
G01X787Y3521D01*
G01X803Y3505D01*
G01X787Y3490D01*
G01X772Y3505D01*
G01X767D01*
G01X787Y3485D01*
G01X807Y3505D01*
G37*
G36*
G01X51Y2649D02*
G01X31Y2629D01*
G01X35D01*
G01X51Y2644D01*
G01X66Y2629D01*
G01X51Y2613D01*
G01X35Y2629D01*
G01X31D01*
G01X51Y2609D01*
G01X71Y2629D01*
G37*
G36*
G01X-914Y1836D02*
G01X-934Y1816D01*
G01X-930D01*
G01X-914Y1832D01*
G01X-899Y1816D01*
G01X-914Y1801D01*
G01X-930Y1816D01*
G01X-934D01*
G01X-914Y1796D01*
G01X-894Y1816D01*
G37*
G36*
G01X178Y2763D02*
G01X158Y2743D01*
G01X162D01*
G01X178Y2759D01*
G01X193Y2743D01*
G01X178Y2728D01*
G01X162Y2743D01*
G01X158D01*
G01X178Y2723D01*
G01X198Y2743D01*
G37*
G36*
G01X165Y3017D02*
G01X145Y2997D01*
G01X150D01*
G01X165Y3013D01*
G01X181Y2997D01*
G01X165Y2982D01*
G01X150Y2997D01*
G01X145D01*
G01X165Y2977D01*
G01X185Y2997D01*
G37*
G36*
G01X902Y3335D02*
G01X882Y3315D01*
G01X886D01*
G01X902Y3330D01*
G01X917Y3315D01*
G01X902Y3299D01*
G01X886Y3315D01*
G01X882D01*
G01X902Y3295D01*
G01X922Y3315D01*
G37*
G36*
G01X1334Y3246D02*
G01X1314Y3226D01*
G01X1318D01*
G01X1334Y3241D01*
G01X1349Y3226D01*
G01X1334Y3210D01*
G01X1318Y3226D01*
G01X1314D01*
G01X1334Y3206D01*
G01X1353Y3226D01*
G37*
G36*
G01X51Y2433D02*
G01X31Y2413D01*
G01X35D01*
G01X51Y2429D01*
G01X66Y2413D01*
G01X51Y2397D01*
G01X35Y2413D01*
G01X31D01*
G01X51Y2393D01*
G01X71Y2413D01*
G37*
G36*
G01X-419Y2738D02*
G01X-439Y2718D01*
G01X-435D01*
G01X-419Y2733D01*
G01X-404Y2718D01*
G01X-419Y2702D01*
G01X-435Y2718D01*
G01X-439D01*
G01X-419Y2698D01*
G01X-399Y2718D01*
G37*
G36*
G01X406Y1874D02*
G01X386Y1854D01*
G01X391D01*
G01X406Y1870D01*
G01X422Y1854D01*
G01X406Y1839D01*
G01X391Y1854D01*
G01X386D01*
G01X406Y1834D01*
G01X426Y1854D01*
G37*
G36*
G01X1499Y299D02*
G01X1479Y279D01*
G01X1483D01*
G01X1499Y295D01*
G01X1514Y279D01*
G01X1499Y264D01*
G01X1483Y279D01*
G01X1479D01*
G01X1499Y259D01*
G01X1519Y279D01*
G37*
G36*
G01X1994Y-298D02*
G01X1974Y-317D01*
G01X1978D01*
G01X1994Y-302D01*
G01X2009Y-317D01*
G01X1994Y-333D01*
G01X1978Y-317D01*
G01X1974D01*
G01X1994Y-337D01*
G01X2014Y-317D01*
G37*
G36*
G01X114Y1544D02*
G01X94Y1524D01*
G01X99D01*
G01X114Y1540D01*
G01X130Y1524D01*
G01X114Y1508D01*
G01X99Y1524D01*
G01X94D01*
G01X114Y1504D01*
G01X134Y1524D01*
G37*
G36*
G01X1473Y83D02*
G01X1453Y64D01*
G01X1458D01*
G01X1473Y79D01*
G01X1489Y64D01*
G01X1473Y48D01*
G01X1458Y64D01*
G01X1453D01*
G01X1473Y44D01*
G01X1493Y64D01*
G37*
G36*
G01X2756Y-793D02*
G01X2736Y-813D01*
G01X2740D01*
G01X2756Y-797D01*
G01X2771Y-813D01*
G01X2756Y-828D01*
G01X2740Y-813D01*
G01X2736D01*
G01X2756Y-833D01*
G01X2776Y-813D01*
G37*
G36*
G01X0Y1252D02*
G01X-20Y1232D01*
G01X-16D01*
G01X0Y1247D01*
G01X16Y1232D01*
G01X0Y1216D01*
G01X-16Y1232D01*
G01X-20D01*
G01X0Y1212D01*
G01X20Y1232D01*
G37*
G36*
G01X0Y998D02*
G01X-20Y978D01*
G01X-16D01*
G01X0Y993D01*
G01X16Y978D01*
G01X0Y962D01*
G01X-16Y978D01*
G01X-20D01*
G01X0Y958D01*
G01X20Y978D01*
G37*
G36*
G01X-1651Y96D02*
G01X-1671Y76D01*
G01X-1667D01*
G01X-1651Y92D01*
G01X-1635Y76D01*
G01X-1651Y61D01*
G01X-1667Y76D01*
G01X-1671D01*
G01X-1651Y56D01*
G01X-1631Y76D01*
G37*
G36*
G01X-1918Y-717D02*
G01X-1938Y-737D01*
G01X-1933D01*
G01X-1918Y-721D01*
G01X-1902Y-737D01*
G01X-1918Y-752D01*
G01X-1933Y-737D01*
G01X-1938D01*
G01X-1918Y-757D01*
G01X-1898Y-737D01*
G37*
G36*
G01X1245Y-615D02*
G01X1225Y-635D01*
G01X1229D01*
G01X1245Y-619D01*
G01X1260Y-635D01*
G01X1245Y-651D01*
G01X1229Y-635D01*
G01X1225D01*
G01X1245Y-655D01*
G01X1265Y-635D01*
G37*
G36*
G01X876Y604D02*
G01X856Y584D01*
G01X861D01*
G01X876Y600D01*
G01X892Y584D01*
G01X876Y569D01*
G01X861Y584D01*
G01X856D01*
G01X876Y564D01*
G01X896Y584D01*
G37*
G36*
G01X279Y528D02*
G01X259Y508D01*
G01X264D01*
G01X279Y524D01*
G01X295Y508D01*
G01X279Y492D01*
G01X264Y508D01*
G01X259D01*
G01X279Y488D01*
G01X299Y508D01*
G37*
G36*
G01X-114Y414D02*
G01X-134Y394D01*
G01X-130D01*
G01X-114Y409D01*
G01X-99Y394D01*
G01X-114Y378D01*
G01X-130Y394D01*
G01X-134D01*
G01X-114Y374D01*
G01X-94Y394D01*
G37*
G36*
G01X-610Y1430D02*
G01X-630Y1410D01*
G01X-625D01*
G01X-610Y1425D01*
G01X-594Y1410D01*
G01X-610Y1394D01*
G01X-625Y1410D01*
G01X-630D01*
G01X-610Y1390D01*
G01X-590Y1410D01*
G37*
G36*
G01X-551Y766D02*
G01X-571Y746D01*
G01X-567D01*
G01X-551Y761D01*
G01X-535Y746D01*
G01X-551Y730D01*
G01X-567Y746D01*
G01X-571D01*
G01X-551Y726D01*
G01X-531Y746D01*
G37*
G36*
G01X953Y2535D02*
G01X933Y2515D01*
G01X937D01*
G01X953Y2530D01*
G01X968Y2515D01*
G01X953Y2499D01*
G01X937Y2515D01*
G01X933D01*
G01X953Y2495D01*
G01X972Y2515D01*
G37*
G36*
G01X1664Y2636D02*
G01X1644Y2616D01*
G01X1648D01*
G01X1664Y2632D01*
G01X1679Y2616D01*
G01X1664Y2601D01*
G01X1648Y2616D01*
G01X1644D01*
G01X1664Y2596D01*
G01X1684Y2616D01*
G37*
G36*
G01X-965Y1455D02*
G01X-985Y1435D01*
G01X-981D01*
G01X-965Y1451D01*
G01X-950Y1435D01*
G01X-965Y1420D01*
G01X-981Y1435D01*
G01X-985D01*
G01X-965Y1415D01*
G01X-945Y1435D01*
G37*
G36*
G01X-648Y515D02*
G01X-668Y495D01*
G01X-663D01*
G01X-648Y511D01*
G01X-632Y495D01*
G01X-648Y480D01*
G01X-663Y495D01*
G01X-668D01*
G01X-648Y475D01*
G01X-628Y495D01*
G37*
G36*
G01X-914Y439D02*
G01X-934Y419D01*
G01X-930D01*
G01X-914Y435D01*
G01X-899Y419D01*
G01X-914Y404D01*
G01X-930Y419D01*
G01X-934D01*
G01X-914Y399D01*
G01X-894Y419D01*
G37*
G36*
G01X-1524Y414D02*
G01X-1544Y394D01*
G01X-1540D01*
G01X-1524Y409D01*
G01X-1508Y394D01*
G01X-1524Y378D01*
G01X-1540Y394D01*
G01X-1544D01*
G01X-1524Y374D01*
G01X-1504Y394D01*
G37*
G36*
G01X749Y-983D02*
G01X729Y-1003D01*
G01X734D01*
G01X749Y-988D01*
G01X765Y-1003D01*
G01X749Y-1019D01*
G01X734Y-1003D01*
G01X729D01*
G01X749Y-1023D01*
G01X769Y-1003D01*
G37*
G36*
G01X1118Y-94D02*
G01X1098Y-114D01*
G01X1102D01*
G01X1118Y-99D01*
G01X1133Y-114D01*
G01X1118Y-130D01*
G01X1102Y-114D01*
G01X1098D01*
G01X1118Y-134D01*
G01X1138Y-114D01*
G37*
G36*
G01X-902Y617D02*
G01X-922Y597D01*
G01X-917D01*
G01X-902Y612D01*
G01X-886Y597D01*
G01X-902Y581D01*
G01X-917Y597D01*
G01X-922D01*
G01X-902Y577D01*
G01X-882Y597D01*
G37*
G36*
G01X1067Y-298D02*
G01X1047Y-317D01*
G01X1051D01*
G01X1067Y-302D01*
G01X1082Y-317D01*
G01X1067Y-333D01*
G01X1051Y-317D01*
G01X1047D01*
G01X1067Y-337D01*
G01X1087Y-317D01*
G37*
G36*
G01X2896Y1455D02*
G01X2876Y1435D01*
G01X2880D01*
G01X2896Y1451D01*
G01X2911Y1435D01*
G01X2896Y1420D01*
G01X2880Y1435D01*
G01X2876D01*
G01X2896Y1415D01*
G01X2916Y1435D01*
G37*
G36*
G01X2616Y1353D02*
G01X2596Y1334D01*
G01X2601D01*
G01X2616Y1349D01*
G01X2632Y1334D01*
G01X2616Y1318D01*
G01X2601Y1334D01*
G01X2596D01*
G01X2616Y1314D01*
G01X2636Y1334D01*
G37*
G36*
G01X2908Y1988D02*
G01X2888Y1969D01*
G01X2893D01*
G01X2908Y1984D01*
G01X2924Y1969D01*
G01X2908Y1953D01*
G01X2893Y1969D01*
G01X2888D01*
G01X2908Y1949D01*
G01X2928Y1969D01*
G37*
G36*
G01X3213Y-3041D02*
G01X3193Y-3061D01*
G01X3198D01*
G01X3213Y-3045D01*
G01X3229Y-3061D01*
G01X3213Y-3076D01*
G01X3198Y-3061D01*
G01X3193D01*
G01X3213Y-3081D01*
G01X3233Y-3061D01*
G37*
G36*
G01X851Y-2291D02*
G01X831Y-2311D01*
G01X835D01*
G01X851Y-2296D01*
G01X866Y-2311D01*
G01X851Y-2327D01*
G01X835Y-2311D01*
G01X831D01*
G01X851Y-2331D01*
G01X871Y-2311D01*
G37*
G36*
G01X-571Y-2253D02*
G01X-591Y-2273D01*
G01X-587D01*
G01X-571Y-2258D01*
G01X-556Y-2273D01*
G01X-571Y-2289D01*
G01X-587Y-2273D01*
G01X-591D01*
G01X-571Y-2293D01*
G01X-552Y-2273D01*
G37*
G36*
G01X-1003Y-1606D02*
G01X-1023Y-1626D01*
G01X-1019D01*
G01X-1003Y-1610D01*
G01X-988Y-1626D01*
G01X-1003Y-1641D01*
G01X-1019Y-1626D01*
G01X-1023D01*
G01X-1003Y-1646D01*
G01X-983Y-1626D01*
G37*
G36*
G01X534Y2196D02*
G01X514Y2176D01*
G01X519D01*
G01X534Y2191D01*
G01X550Y2176D01*
G01X534Y2160D01*
G01X519Y2176D01*
G01X514D01*
G01X534Y2156D01*
G01X554Y2176D01*
G37*
G36*
G01X534Y2296D02*
G01X514Y2276D01*
G01X519D01*
G01X534Y2291D01*
G01X550Y2276D01*
G01X534Y2260D01*
G01X519Y2276D01*
G01X514D01*
G01X534Y2256D01*
G01X554Y2276D01*
G37*
G36*
G01X634Y2196D02*
G01X614Y2176D01*
G01X619D01*
G01X634Y2191D01*
G01X650Y2176D01*
G01X634Y2160D01*
G01X619Y2176D01*
G01X614D01*
G01X634Y2156D01*
G01X654Y2176D01*
G37*
G36*
G01X634Y2296D02*
G01X614Y2276D01*
G01X619D01*
G01X634Y2291D01*
G01X650Y2276D01*
G01X634Y2260D01*
G01X619Y2276D01*
G01X614D01*
G01X634Y2256D01*
G01X654Y2276D01*
G37*
G36*
G01X534Y2904D02*
G01X514Y2884D01*
G01X519D01*
G01X534Y2899D01*
G01X550Y2884D01*
G01X534Y2868D01*
G01X519Y2884D01*
G01X514D01*
G01X534Y2864D01*
G01X554Y2884D01*
G37*
G36*
G01X534Y3004D02*
G01X514Y2984D01*
G01X519D01*
G01X534Y2999D01*
G01X550Y2984D01*
G01X534Y2968D01*
G01X519Y2984D01*
G01X514D01*
G01X534Y2964D01*
G01X554Y2984D01*
G37*
G36*
G01X634Y2904D02*
G01X614Y2884D01*
G01X619D01*
G01X634Y2899D01*
G01X650Y2884D01*
G01X634Y2868D01*
G01X619Y2884D01*
G01X614D01*
G01X634Y2864D01*
G01X654Y2884D01*
G37*
G36*
G01X634Y3004D02*
G01X614Y2984D01*
G01X619D01*
G01X634Y2999D01*
G01X650Y2984D01*
G01X634Y2968D01*
G01X619Y2984D01*
G01X614D01*
G01X634Y2964D01*
G01X654Y2984D01*
G37*
G36*
G01X-407Y1838D02*
G01X-427Y1818D01*
G01X-423D01*
G01X-407Y1834D01*
G01X-392Y1818D01*
G01X-407Y1803D01*
G01X-423Y1818D01*
G01X-427D01*
G01X-407Y1798D01*
G01X-387Y1818D01*
G37*
G36*
G01X-407Y1738D02*
G01X-427Y1718D01*
G01X-423D01*
G01X-407Y1734D01*
G01X-392Y1718D01*
G01X-407Y1703D01*
G01X-423Y1718D01*
G01X-427D01*
G01X-407Y1698D01*
G01X-387Y1718D01*
G37*
G36*
G01X-507Y1838D02*
G01X-527Y1818D01*
G01X-523D01*
G01X-507Y1834D01*
G01X-492Y1818D01*
G01X-507Y1803D01*
G01X-523Y1818D01*
G01X-527D01*
G01X-507Y1798D01*
G01X-487Y1818D01*
G37*
G36*
G01X-507Y1738D02*
G01X-527Y1718D01*
G01X-523D01*
G01X-507Y1734D01*
G01X-492Y1718D01*
G01X-507Y1703D01*
G01X-523Y1718D01*
G01X-527D01*
G01X-507Y1698D01*
G01X-487Y1718D01*
G37*
G36*
G01X-407Y1117D02*
G01X-427Y1098D01*
G01X-423D01*
G01X-407Y1113D01*
G01X-392Y1098D01*
G01X-407Y1082D01*
G01X-423Y1098D01*
G01X-427D01*
G01X-407Y1078D01*
G01X-387Y1098D01*
G37*
G36*
G01X-407Y1017D02*
G01X-427Y998D01*
G01X-423D01*
G01X-407Y1013D01*
G01X-392Y998D01*
G01X-407Y982D01*
G01X-423Y998D01*
G01X-427D01*
G01X-407Y978D01*
G01X-387Y998D01*
G37*
G36*
G01X-507Y1117D02*
G01X-527Y1098D01*
G01X-523D01*
G01X-507Y1113D01*
G01X-492Y1098D01*
G01X-507Y1082D01*
G01X-523Y1098D01*
G01X-527D01*
G01X-507Y1078D01*
G01X-487Y1098D01*
G37*
G36*
G01X-507Y1017D02*
G01X-527Y998D01*
G01X-523D01*
G01X-507Y1013D01*
G01X-492Y998D01*
G01X-507Y982D01*
G01X-523Y998D01*
G01X-527D01*
G01X-507Y978D01*
G01X-487Y998D01*
G37*
G04 Image End*
G54D10*

M02*
