G04 Layer: TopSolderMaskLayer*
G04 EasyEDA Pro v1.6.32, 2023-12-29 17:47:12*
G04 Gerber Generator version 0.3*
G04 Scale: 100 percent, Rotated: No, Reflected: No*
G04 Dimensions in millimeters*
G04 Leading zeros omitted, absolute positions, 4 integers and 2 decimals*
%FSLAX42Y42*%
%MOMM*%
%ADD10C,3.203199*%
%ADD11C,1.7272*%
%ADD12C,1.701597*%
%ADD13O,2.042592X0.703605*%
%ADD14C,1.624025*%
%ADD15C,3.703201*%
%ADD16C,1.500022*%
%ADD17C,1.803199*%
%ADD18C,1.801597*%
G75*


G04 Pad Start*
G54D10*
G01X-3250Y50D03*
G01X3250Y50D03*
G01X0Y-3350D03*
G36*
G01X1507Y615D02*
G01X1363Y615D01*
G03X1354Y605I0J-10D01*
G01Y462D01*
G03X1363Y452I10J0D01*
G01X1507D01*
G03X1516Y462I0J10D01*
G01Y605D01*
G03X1507Y615I-10J0D01*
G37*
G54D11*
G01X1435Y787D03*
G01X1435Y1041D03*
G01X1435Y1295D03*
G01X1435Y1549D03*
G01X1435Y1803D03*
G01X1435Y2057D03*
G01X1435Y2311D03*
G01X1435Y2565D03*
G01X1435Y2819D03*
G01X1181Y2819D03*
G01X1181Y2565D03*
G01X1181Y2311D03*
G01X1181Y2057D03*
G01X1181Y1803D03*
G01X1181Y1549D03*
G01X1181Y1295D03*
G01X1181Y1041D03*
G01X1181Y787D03*
G01X1181Y533D03*
G01X-1105Y533D03*
G01X-1105Y787D03*
G01X-1105Y1041D03*
G01X-1105Y1295D03*
G01X-1105Y1549D03*
G01X-1105Y1803D03*
G01X-1105Y2057D03*
G01X-1105Y2311D03*
G01X-1105Y2565D03*
G01X-1105Y2819D03*
G01X-1359Y533D03*
G01X-1359Y787D03*
G01X-1359Y1041D03*
G01X-1359Y1295D03*
G01X-1359Y1549D03*
G01X-1359Y1803D03*
G01X-1359Y2057D03*
G01X-1359Y2311D03*
G01X-1359Y2565D03*
G01X-1359Y2819D03*
G36*
G01X-697Y2262D02*
G01X-697Y2603D01*
G03X-702Y2607I-5J0D01*
G01X-826D01*
G03X-830Y2603I0J-5D01*
G01Y2262D01*
G03X-826Y2257I5J0D01*
G01X-702D01*
G03X-697Y2262I0J5D01*
G37*
G36*
G01X-84Y2262D02*
G01X-84Y2603D01*
G03X-89Y2607I-5J0D01*
G01X-212D01*
G03X-217Y2603I0J-5D01*
G01Y2262D01*
G03X-212Y2257I5J0D01*
G01X-89D01*
G03X-84Y2262I0J5D01*
G37*
G36*
G01X-697Y2833D02*
G01X-697Y3174D01*
G03X-702Y3179I-5J0D01*
G01X-826D01*
G03X-830Y3174I0J-5D01*
G01Y2833D01*
G03X-826Y2828I5J0D01*
G01X-702D01*
G03X-697Y2833I0J5D01*
G37*
G36*
G01X-84Y2833D02*
G01X-84Y3174D01*
G03X-89Y3179I-5J0D01*
G01X-212D01*
G03X-217Y3174I0J-5D01*
G01Y2833D01*
G03X-212Y2828I5J0D01*
G01X-89D01*
G03X-84Y2833I0J5D01*
G37*
G36*
G01X824Y1732D02*
G01X824Y1391D01*
G03X829Y1386I5J0D01*
G01X953D01*
G03X957Y1391I0J5D01*
G01Y1732D01*
G03X953Y1737I-5J0D01*
G01X829D01*
G03X824Y1732I0J-5D01*
G37*
G36*
G01X211Y1732D02*
G01X211Y1391D01*
G03X216Y1386I5J0D01*
G01X339D01*
G03X344Y1391I0J5D01*
G01Y1732D01*
G03X339Y1737I-5J0D01*
G01X216D01*
G03X211Y1732I0J-5D01*
G37*
G36*
G01X824Y1161D02*
G01X824Y820D01*
G03X829Y815I5J0D01*
G01X953D01*
G03X957Y820I0J5D01*
G01Y1161D01*
G03X953Y1166I-5J0D01*
G01X829D01*
G03X824Y1161I0J-5D01*
G37*
G36*
G01X211Y1161D02*
G01X211Y820D01*
G03X216Y815I5J0D01*
G01X339D01*
G03X344Y820I0J5D01*
G01Y1161D01*
G03X339Y1166I-5J0D01*
G01X216D01*
G03X211Y1161I0J-5D01*
G37*
G54D12*
G01X-1181Y-2461D03*
G01X-1181Y-2111D03*
G36*
G01X-462Y-2697D02*
G01X-376Y-2697D01*
G03X-372Y-2692I0J5D01*
G01Y-2616D01*
G03X-376Y-2611I-5J0D01*
G01X-462D01*
G03X-467Y-2616I0J-5D01*
G01Y-2692D01*
G03X-462Y-2697I5J0D01*
G37*
G36*
G01X-462Y-2837D02*
G01X-376Y-2837D01*
G03X-372Y-2832I0J5D01*
G01Y-2756D01*
G03X-376Y-2751I-5J0D01*
G01X-462D01*
G03X-467Y-2756I0J-5D01*
G01Y-2832D01*
G03X-462Y-2837I5J0D01*
G37*
G54D13*
G01X856Y2035D03*
G01X856Y2162D03*
G01X856Y2289D03*
G01X856Y2416D03*
G01X312Y2035D03*
G01X312Y2162D03*
G01X312Y2289D03*
G01X312Y2416D03*
G36*
G01X466Y2068D02*
G01X702Y2068D01*
G03X707Y2073I0J5D01*
G01Y2378D01*
G03X702Y2383I-5J0D01*
G01X466D01*
G03X461Y2378I0J-5D01*
G01Y2073D01*
G03X466Y2068I5J0D01*
G37*
G01X856Y2743D03*
G01X856Y2870D03*
G01X856Y2997D03*
G01X856Y3124D03*
G01X312Y2743D03*
G01X312Y2870D03*
G01X312Y2997D03*
G01X312Y3124D03*
G36*
G01X466Y2776D02*
G01X702Y2776D01*
G03X707Y2781I0J5D01*
G01Y3086D01*
G03X702Y3091I-5J0D01*
G01X466D01*
G03X461Y3086I0J-5D01*
G01Y2781D01*
G03X466Y2776I5J0D01*
G37*
G01X-729Y1959D03*
G01X-729Y1832D03*
G01X-729Y1705D03*
G01X-729Y1578D03*
G01X-185Y1959D03*
G01X-185Y1832D03*
G01X-185Y1705D03*
G01X-185Y1578D03*
G36*
G01X-339Y1926D02*
G01X-575Y1926D01*
G03X-580Y1921I0J-5D01*
G01Y1616D01*
G03X-575Y1611I5J0D01*
G01X-339D01*
G03X-334Y1616I0J5D01*
G01Y1921D01*
G03X-339Y1926I-5J0D01*
G37*
G01X-729Y1238D03*
G01X-729Y1111D03*
G01X-729Y984D03*
G01X-729Y857D03*
G01X-185Y1238D03*
G01X-185Y1111D03*
G01X-185Y984D03*
G01X-185Y857D03*
G36*
G01X-339Y1205D02*
G01X-575Y1205D01*
G03X-580Y1200I0J-5D01*
G01Y895D01*
G03X-575Y890I5J0D01*
G01X-339D01*
G03X-334Y895I0J5D01*
G01Y1200D01*
G03X-339Y1205I-5J0D01*
G37*
G36*
G01X-1780Y-2095D02*
G01X-1928Y-2095D01*
G03X-1933Y-2100I0J-5D01*
G01Y-2248D01*
G03X-1928Y-2252I5J0D01*
G01X-1780D01*
G03X-1775Y-2248I0J5D01*
G01Y-2100D01*
G03X-1780Y-2095I-5J0D01*
G37*
G54D14*
G01X-1854Y-2424D03*
G54D11*
G01X-898Y-1152D03*
G01X-644Y-1152D03*
G01X-390Y-1152D03*
G01X-136Y-1152D03*
G01X118Y-1152D03*
G01X372Y-1152D03*
G01X626Y-1152D03*
G01X880Y-1152D03*
G54D15*
G01X-834Y4D03*
G01X766Y4D03*
G54D16*
G01X612Y-521D03*
G01X-138Y-521D03*
G01X-388Y-521D03*
G36*
G01X-710Y-453D02*
G01X-710Y-588D01*
G03X-705Y-593I5J0D01*
G01X-570D01*
G03X-565Y-588I0J5D01*
G01Y-453D01*
G03X-570Y-448I-5J0D01*
G01X-705D01*
G03X-710Y-453I0J-5D01*
G37*
G01X112Y-521D03*
G01X362Y-521D03*
G54D17*
G01X936Y-1784D03*
G01X936Y-2064D03*
G01X934Y-3036D03*
G01X934Y-3316D03*
G01X2729Y-3317D03*
G01X2729Y-3037D03*
G01X2731Y-2070D03*
G01X2731Y-1790D03*
G36*
G01X1988Y2031D02*
G01X1822Y2031D01*
G03X1817Y2026I0J-5D01*
G01Y1860D01*
G03X1822Y1856I5J0D01*
G01X1988D01*
G03X1993Y1860I0J5D01*
G01Y2026D01*
G03X1988Y2031I-5J0D01*
G37*
G54D18*
G01X2159Y1943D03*
G01X1905Y1689D03*
G01X2159Y1689D03*
G01X1905Y1435D03*
G01X2159Y1435D03*
G01X1905Y1181D03*
G01X2159Y1181D03*
G01X1905Y927D03*
G01X2159Y927D03*
G36*
G01X-1709Y1692D02*
G01X-1709Y1768D01*
G03X-1714Y1773I-5J0D01*
G01X-1790D01*
G03X-1794Y1768I0J-5D01*
G01Y1692D01*
G03X-1790Y1688I5J0D01*
G01X-1714D01*
G03X-1709Y1692I0J5D01*
G37*
G36*
G01X-1710Y1852D02*
G01X-1710Y1928D01*
G03X-1715Y1933I-5J0D01*
G01X-1790D01*
G03X-1795Y1928I0J-5D01*
G01Y1852D01*
G03X-1790Y1848I5J0D01*
G01X-1715D01*
G03X-1710Y1852I0J5D01*
G37*
G36*
G01X-1711Y2130D02*
G01X-1793Y2130D01*
G03X-1798Y2125I0J-5D01*
G01Y2049D01*
G03X-1793Y2044I5J0D01*
G01X-1711D01*
G03X-1706Y2049I0J5D01*
G01Y2125D01*
G03X-1711Y2130I-5J0D01*
G37*
G36*
G01X-1711Y2281D02*
G01X-1793Y2281D01*
G03X-1798Y2276I0J-5D01*
G01Y2200D01*
G03X-1793Y2195I5J0D01*
G01X-1711D01*
G03X-1706Y2200I0J5D01*
G01Y2276D01*
G03X-1711Y2281I-5J0D01*
G37*
G36*
G01X-314Y-1503D02*
G01X-448Y-1503D01*
G03X-452Y-1508I0J-5D01*
G01Y-1616D01*
G03X-448Y-1621I5J0D01*
G01X-314D01*
G03X-310Y-1616I0J5D01*
G01Y-1508D01*
G03X-314Y-1503I-5J0D01*
G37*
G36*
G01X-314Y-1310D02*
G01X-448Y-1310D01*
G03X-452Y-1315I0J-5D01*
G01Y-1423D01*
G03X-448Y-1428I5J0D01*
G01X-314D01*
G03X-310Y-1423I0J5D01*
G01Y-1315D01*
G03X-314Y-1310I-5J0D01*
G37*
G36*
G01X-73Y-1503D02*
G01X-206Y-1503D01*
G03X-211Y-1508I0J-5D01*
G01Y-1616D01*
G03X-206Y-1621I5J0D01*
G01X-73D01*
G03X-68Y-1616I0J5D01*
G01Y-1508D01*
G03X-73Y-1503I-5J0D01*
G37*
G36*
G01X-73Y-1310D02*
G01X-206Y-1310D01*
G03X-211Y-1315I0J-5D01*
G01Y-1423D01*
G03X-206Y-1428I5J0D01*
G01X-73D01*
G03X-68Y-1423I0J5D01*
G01Y-1315D01*
G03X-73Y-1310I-5J0D01*
G37*
G04 Pad End*

M02*
