G04 Layer: BottomLayer*
G04 EasyEDA Pro v1.6.32, 2023-12-29 17:47:12*
G04 Gerber Generator version 0.3*
G04 Scale: 100 percent, Rotated: No, Reflected: No*
G04 Dimensions in millimeters*
G04 Leading zeros omitted, absolute positions, 4 integers and 2 decimals*
%FSLAX42Y42*%
%MOMM*%
%ADD999C,0.2032*%
%ADD10C,0.254*%
%ADD11C,2.999999*%
%ADD12C,1.524*%
%ADD13C,1.599997*%
%ADD14C,3.500001*%
%ADD15C,1.399997*%
%ADD16C,1.599999*%
%ADD17C,1.699997*%
%ADD18C,0.610001*%
%ADD19C,0.9144*%
%ADD20C,0.6096*%
%ADD21C,1.016*%
%ADD22C,0.508*%
G75*


G04 Copper Start*
G36*
G01X-3150Y-3714D02*
G02X-3464Y-3400I0J314D01*
G01Y3550D01*
G02X-3300Y3714I164J0D01*
G01X3300D01*
G02X3464Y3550I0J-164D01*
G01Y-3400D01*
G02X3150Y-3714I-314J0D01*
G01X-3150D01*
G37*
%LPC*%
G36*
G01X-2586Y-1523D02*
G03X-2556Y-1539I30J20D01*
G01X-2466D01*
G03X-2436Y-1523I0J36D01*
G03X-2406Y-1539I30J20D01*
G01X-2316D01*
G03X-2286Y-1523I0J36D01*
G03X-2256Y-1539I30J20D01*
G01X-2166D01*
G03X-2136Y-1523I0J36D01*
G03X-2106Y-1539I30J20D01*
G01X-2016D01*
G03X-1986Y-1523I0J36D01*
G03X-1956Y-1539I30J20D01*
G01X-1866D01*
G03X-1830Y-1503I0J36D01*
G01Y-1243D01*
G03X-1832Y-1232I-36J0D01*
G01X-1856Y-1161D01*
G01Y-818D01*
G01X-1850Y-782D01*
G03X-1836Y-737I-68J45D01*
G03X-1918Y-655I-82J0D01*
G03X-1999Y-737I0J-82D01*
G03X-1986Y-782I82J0D01*
G01X-1979Y-818D01*
G01Y-1164D01*
G01X-1988Y-1221D01*
G03X-2016Y-1208I-28J-23D01*
G01X-2106D01*
G03X-2136Y-1224I0J-36D01*
G03X-2166Y-1208I-30J-20D01*
G01X-2256D01*
G03X-2286Y-1224I0J-36D01*
G03X-2316Y-1208I-30J-20D01*
G01X-2406D01*
G03X-2436Y-1224I0J-36D01*
G03X-2466Y-1208I-30J-20D01*
G01X-2556D01*
G03X-2585Y-1222I0J-36D01*
G01X-2600Y-1163D01*
G01Y-654D01*
G01X-2108Y-163D01*
G01X-1384D01*
G03X-1341Y-145I0J61D01*
G01X-1003Y193D01*
G01X-928D01*
G03X-1045Y4I94J-189D01*
G03X-834Y-207I211J0D01*
G03X-623Y4I0J211D01*
G03X-740Y193I-211J0D01*
G01X-457D01*
G03X-414Y211I0J61D01*
G01X158Y782D01*
G03X176Y826I-43J43D01*
G01Y1118D01*
G03X158Y1161I-61J0D01*
G01X101Y1218D01*
G01X86Y1240D01*
G01X104Y1221D01*
G03X165Y1196I61J61D01*
G01X409D01*
G01X447Y1158D01*
G01Y356D01*
G03X533Y269I87J0D01*
G03X620Y356I0J87D01*
G01Y449D01*
G01X1049Y20D01*
G03X1092Y2I43J43D01*
G01X1392D01*
G01X1428Y-4D01*
G03X1473Y-18I45J68D01*
G03X1555Y64I0J82D01*
G03X1473Y145I-82J0D01*
G03X1428Y131I0J-82D01*
G01X1392Y125D01*
G01X1118D01*
G01X1024Y218D01*
G01X1418D01*
G01X1454Y211D01*
G03X1499Y198I45J68D01*
G03X1580Y279I0J82D01*
G03X1499Y361I-82J0D01*
G03X1454Y347I0J-82D01*
G01X1418Y341D01*
G01X1003D01*
G01X772Y571D01*
G01Y1549D01*
G03X754Y1593I-61J0D01*
G01X507Y1840D01*
G01X486Y1870D01*
G03X455Y1920I-80J-16D01*
G01X564D01*
G01X967Y1517D01*
G01Y1270D01*
G03X982Y1236I49J0D01*
G01X1083Y1134D01*
G03X1103Y1122I34J34D01*
G03X1070Y1055I78J-81D01*
G01X1041Y988D01*
G01X833Y780D01*
G03X815Y737I43J-43D01*
G01Y665D01*
G01X808Y629D01*
G03X795Y584I68J-45D01*
G03X876Y503I82J0D01*
G03X958Y584I0J82D01*
G03X944Y629I-82J0D01*
G01X938Y665D01*
G01Y711D01*
G01X1128Y902D01*
G01X1195Y930D01*
G03X1293Y1041I-14J111D01*
G03X1261Y1120I-112J0D01*
G01X1355D01*
G03X1323Y1041I80J-78D01*
G03X1435Y929I112J0D01*
G03X1547Y1041I0J112D01*
G03X1515Y1120I-112J0D01*
G01X1529D01*
G01X1756Y893D01*
G03X1774Y882I34J34D01*
G01X1825Y836D01*
G03X1905Y806I80J91D01*
G03X2026Y927I0J121D01*
G03X1905Y1048I-121J0D01*
G03X1825Y1018I0J-121D01*
G01X1795Y991D01*
G01X1584Y1203D01*
G03X1549Y1217I-34J-34D01*
G01X1515D01*
G03X1547Y1295I-80J78D01*
G03X1435Y1407I-112J0D01*
G03X1323Y1295I0J-112D01*
G03X1355Y1217I112J0D01*
G01X1261D01*
G03X1293Y1295I-80J78D01*
G03X1181Y1407I-112J0D01*
G03X1069Y1295I0J-112D01*
G03X1070Y1285I112J0D01*
G01X1065Y1290D01*
G01Y1537D01*
G03X1050Y1571I-49J0D01*
G01X619Y2003D01*
G03X584Y2017I-34J-34D01*
G01X-145D01*
G01X-601Y2473D01*
G03X-635Y2487I-34J-34D01*
G01X-1025D01*
G03X-993Y2565I-80J78D01*
G03X-1105Y2677I-112J0D01*
G03X-1217Y2565I0J-112D01*
G03X-1185Y2487I112J0D01*
G03X-1215Y2473I4J-48D01*
G01X-1266Y2422D01*
G03X-1280Y2391I34J-34D01*
G03X-1359Y2423I-79J-80D01*
G03X-1471Y2311I0J-112D01*
G03X-1359Y2199I112J0D01*
G03X-1280Y2231I0J112D01*
G01Y2204D01*
G01X-1295Y2190D01*
G01X-1370Y2169D01*
G03X-1471Y2057I11J-111D01*
G03X-1359Y1945I112J0D01*
G03X-1247Y2046I0J112D01*
G01X-1226Y2121D01*
G01X-1198Y2150D01*
G03X-1183Y2184I-34J34D01*
G01Y2231D01*
G03X-1119Y2200I78J80D01*
G01X-1052Y2172D01*
G01X-938Y2057D01*
G01Y1930D01*
G03X-927Y1897I61J0D01*
G03X-995Y1826I13J-81D01*
G03X-1105Y1915I-110J-23D01*
G03X-1217Y1803I0J-112D01*
G03X-1105Y1691I112J0D01*
G03X-993Y1795I0J112D01*
G03X-979Y1767I79J21D01*
G01X-972Y1751D01*
G01X-1041Y1682D01*
G01X-1116Y1661D01*
G03X-1217Y1549I11J-111D01*
G03X-1105Y1437I112J0D01*
G03X-1044Y1455I0J112D01*
G03X-1047Y1435I79J-20D01*
G03X-1030Y1386I82J0D01*
G01X-1025Y1373D01*
G03X-1105Y1407I-80J-78D01*
G03X-1217Y1295I0J-112D01*
G03X-1105Y1183I112J0D01*
G03X-1014Y1230I0J112D01*
G01Y1106D01*
G03X-1105Y1153I-91J-65D01*
G03X-1216Y1053I0J-112D01*
G01X-1237Y977D01*
G01X-1279Y936D01*
G03X-1293Y902I34J-34D01*
G01Y878D01*
G03X-1359Y899I-66J-91D01*
G03X-1430Y874I0J-112D01*
G01X-1498Y836D01*
G01X-1511D01*
G03X-1546Y822I0J-49D01*
G01X-1647Y720D01*
G03X-1661Y686I34J-34D01*
G01Y483D01*
G03X-1647Y448I49J0D01*
G01X-1619Y420D01*
G01X-1605Y383D01*
G03X-1524Y312I81J11D01*
G03X-1442Y394I0J82D01*
G03X-1513Y474I-82J0D01*
G01X-1550Y488D01*
G01X-1564Y503D01*
G01Y666D01*
G01X-1494Y737D01*
G01X-1430Y701D01*
G03X-1359Y675I71J87D01*
G03X-1293Y697I0J112D01*
G01Y624D01*
G03X-1359Y645I-66J-91D01*
G03X-1471Y533I0J-112D01*
G03X-1359Y421I112J0D01*
G03X-1293Y443I0J112D01*
G01Y432D01*
G03X-1279Y397I49J0D01*
G01X-1228Y347D01*
G03X-1194Y332I34J34D01*
G01X-1130D01*
G01X-1308Y155D01*
G01X-1584D01*
G01X-1630D01*
G03X-1651Y158I-21J-79D01*
G03X-1733Y76I0J-82D01*
G03X-1651Y-5I82J0D01*
G03X-1588Y25I0J82D01*
G01X-1559Y32D01*
G01X-1337D01*
G01X-1410Y-40D01*
G01X-2134D01*
G03X-2177Y-58I0J-61D01*
G01X-2704Y-586D01*
G03X-2722Y-629I43J-43D01*
G01Y-1163D01*
G01X-2741Y-1234D01*
G03X-2742Y-1243I35J-9D01*
G01Y-1503D01*
G03X-2706Y-1539I36J0D01*
G01X-2616D01*
G03X-2586Y-1523I0J36D01*
G37*
G36*
G01X1245Y-722D02*
G03X1306Y-696I0J87D01*
G01X3224Y1221D01*
G03X3249Y1283I-61J61D01*
G01Y3137D01*
G03X3224Y3198I-87J0D01*
G01X2855Y3566D01*
G03X2794Y3592I-61J-61D01*
G01X787D01*
G01X356D01*
G03X294Y3566I0J-87D01*
G01X-10Y3262D01*
G03X-36Y3200I61J-61D01*
G01Y2629D01*
G03X51Y2542I87J0D01*
G03X137Y2629I0J87D01*
G01Y2672D01*
G03X162Y2663I40J71D01*
G01X192Y2643D01*
G01X287Y2548D01*
G03X330Y2530I43J43D01*
G01X864D01*
G03X872I0J61D01*
G03X871Y2515I80J-16D01*
G03X941Y2434I82J0D01*
G01X979Y2420D01*
G01X982Y2417D01*
G03X1016Y2403I34J34D01*
G01X1116D01*
G03X1069Y2311I65J-91D01*
G03X1170Y2200I112J0D01*
G01X1245Y2179D01*
G01X1261Y2163D01*
G03X1295Y2149I34J34D01*
G01X1370D01*
G03X1323Y2057I65J-91D01*
G03X1435Y1945I112J0D01*
G03X1547Y2057I0J112D01*
G03X1500Y2149I-112J0D01*
G01X1580D01*
G01X1604Y2125D01*
G03X1638Y2110I34J34D01*
G01X1656D01*
G01X1718Y2048D01*
G03X1753Y2034I34J34D01*
G01X1785D01*
G03X1784Y2028I35J-6D01*
G01Y1858D01*
G03X1820Y1822I36J0D01*
G01X1990D01*
G03X2026Y1858I0J36D01*
G01Y2028D01*
G03X2025Y2034I-36J0D01*
G01X2080D01*
G03X2038Y1943I79J-91D01*
G03X2159Y1822I121J0D01*
G03X2222Y1840I0J121D01*
G01X2309Y1882D01*
G01X2558D01*
G01X2695Y1745D01*
G01Y1356D01*
G03X2681Y1383I-78J-22D01*
G01X2665Y1419D01*
G01Y1511D01*
G03X2651Y1546I-49J0D01*
G01X2473Y1723D01*
G03X2438Y1738I-34J-34D01*
G01X2313D01*
G01X2236Y1782D01*
G03X2159Y1810I-77J-93D01*
G03X2038Y1689I0J-121D01*
G03X2159Y1568I121J0D01*
G03X2236Y1596I0J121D01*
G01X2313Y1641D01*
G01X2418D01*
G01X2568Y1491D01*
G01Y1419D01*
G01X2551Y1383D01*
G03X2535Y1334I65J-49D01*
G03X2616Y1252I82J0D01*
G03X2695Y1311I0J82D01*
G01Y1138D01*
G01X1491Y-66D01*
G01X1203D01*
G01X1167Y-49D01*
G03X1118Y-33I-49J-65D01*
G03X1036Y-114I0J-82D01*
G03X1118Y-196I82J0D01*
G01X1120D01*
G01X1093Y-223D01*
G01X1056Y-237D01*
G03X985Y-317I11J-81D01*
G03X1067Y-399I82J0D01*
G03X1148Y-329I0J82D01*
G01X1162Y-291D01*
G01X1249Y-203D01*
G01X1528D01*
G03X1562Y-189I0J49D01*
G01X2818Y1066D01*
G03X2832Y1101I-34J34D01*
G01Y1252D01*
G01X2930Y1350D01*
G03X2940Y1365I-34J34D01*
G01X2948Y1373D01*
G03X2957Y1381I-52J63D01*
G03X2977Y1435I-61J54D01*
G03X2896Y1517I-82J0D01*
G03X2814Y1435I0J-82D01*
G03X2830Y1387I82J0D01*
G01X2792Y1349D01*
G01Y1765D01*
G03X2778Y1800I-49J0D01*
G01X2612Y1965D01*
G03X2578Y1979I-34J-34D01*
G01X2316D01*
G01X2248Y2025D01*
G03X2238Y2034I-89J-82D01*
G01X2774D01*
G01X2814Y1995D01*
G01X2828Y1957D01*
G03X2908Y1887I81J11D01*
G03X2990Y1969I0J82D01*
G03X2919Y2049I-82J0D01*
G01X2882Y2063D01*
G01X2828Y2117D01*
G03X2794Y2131I-34J-34D01*
G01X1773D01*
G01X1711Y2193D01*
G03X1676Y2208I-34J-34D01*
G01X1658D01*
G01X1635Y2231D01*
G03X1600Y2246I-34J-34D01*
G01X1526D01*
G03X1547Y2311I-91J66D01*
G03X1500Y2403I-112J0D01*
G01X1537D01*
G03X1571Y2417I0J49D01*
G01X1668Y2514D01*
G01X1714Y2552D01*
G01Y2453D01*
G03X1750Y2418I36J0D01*
G01X1860D01*
G03X1896Y2453I0J36D01*
G01Y2648D01*
G03X1860Y2684I-36J0D01*
G01X1750D01*
G03X1723Y2672I0J-36D01*
G03X1664Y2698I-59J-56D01*
G03X1582Y2616I0J-82D01*
G03X1587Y2588I82J0D01*
G01X1581Y2564D01*
G01X1538Y2521D01*
G03X1547Y2565I-103J44D01*
G03X1435Y2677I-112J0D01*
G03X1323Y2565I0J-112D01*
G03X1344Y2500I112J0D01*
G01X1272D01*
G03X1293Y2565I-91J66D01*
G03X1181Y2677I-112J0D01*
G03X1069Y2565I0J-112D01*
G03X1090Y2500I112J0D01*
G01X1043D01*
G01X1033Y2526D01*
G03X955Y2596I-81J-11D01*
G01X1047Y2687D01*
G03X1065Y2731I-43J43D01*
G01Y3137D01*
G01X1219Y3292D01*
G01X1285D01*
G03X1252Y3226I48J-66D01*
G03X1334Y3144I82J0D01*
G03X1379Y3158I0J82D01*
G01X1415Y3165D01*
G01X1892D01*
G01X1927Y3130D01*
G01X1920Y3099D01*
G03X1919Y3091I35J-8D01*
G01Y2831D01*
G03X1955Y2795I36J0D01*
G01X2045D01*
G03X2075Y2811I0J36D01*
G03X2105Y2795I30J20D01*
G01X2195D01*
G03X2225Y2811I0J36D01*
G03X2255Y2795I30J20D01*
G01X2345D01*
G03X2375Y2811I0J36D01*
G03X2405Y2795I30J20D01*
G01X2495D01*
G03X2525Y2811I0J36D01*
G03X2555Y2795I30J20D01*
G01X2645D01*
G03X2675Y2811I0J36D01*
G03X2705Y2795I30J20D01*
G01X2795D01*
G03X2831Y2831I0J36D01*
G01Y3091D01*
G03X2801Y3126I-36J0D01*
G03X2793Y3135I-51J-34D01*
G01X2532Y3396D01*
G03X2489Y3414I-43J-43D01*
G01X1194D01*
G03X1151Y3396I0J-61D01*
G01X960Y3206D01*
G03X942Y3162I43J-43D01*
G01Y2756D01*
G01X838Y2652D01*
G01X356D01*
G01X278Y2729D01*
G01X258Y2759D01*
G03X178Y2825I-80J-16D01*
G03X137Y2814I0J-82D01*
G01Y2921D01*
G03X165Y2916I28J77D01*
G03X245Y2981I0J82D01*
G01X266Y3011D01*
G01X508Y3253D01*
G01X821D01*
G01X857Y3247D01*
G03X902Y3233I45J68D01*
G03X983Y3315I0J82D01*
G03X902Y3396I-82J0D01*
G03X857Y3383I0J-82D01*
G01X821Y3376D01*
G01X483D01*
G03X439Y3358I0J-61D01*
G01X179Y3098D01*
G01X149Y3077D01*
G03X137Y3074I16J-80D01*
G01Y3165D01*
G01X391Y3419D01*
G01X787D01*
G01X2758D01*
G01X3076Y3101D01*
G01Y1319D01*
G01X1183Y-574D01*
G03X1158Y-635I61J-61D01*
G03X1245Y-722I87J0D01*
G37*
G36*
G01X2614Y-3051D02*
G03X2729Y-3153I115J14D01*
G03X2845Y-3037I0J116D01*
G03X2743Y-2922I-116J0D01*
G01X2671Y-2893D01*
G01X1335Y-1557D01*
G03X1292Y-1539I-43J-43D01*
G01X-660D01*
G01X-836Y-1363D01*
G01Y-1288D01*
G01X-809Y-1221D01*
G03X-786Y-1152I-88J69D01*
G03X-809Y-1083I-112J0D01*
G01X-836Y-1015D01*
G01Y-806D01*
G01X-706Y-675D01*
G01X-575Y-627D01*
G01X-568D01*
G03X-532Y-591I0J36D01*
G01Y-451D01*
G03X-537Y-433I-36J0D01*
G01X-576Y-365D01*
G01Y-307D01*
G01X-71Y198D01*
G03X-53Y241I-43J43D01*
G01Y313D01*
G01X-46Y349D01*
G03X-33Y394I-68J45D01*
G03X-114Y475I-82J0D01*
G03X-196Y394I0J-82D01*
G03X-182Y349I82J0D01*
G01X-176Y313D01*
G01Y267D01*
G01X-681Y-239D01*
G03X-699Y-282I43J-43D01*
G01Y-365D01*
G01X-739Y-433D01*
G03X-744Y-451I31J-18D01*
G01Y-458D01*
G01X-792Y-589D01*
G01X-941Y-737D01*
G03X-959Y-781I43J-43D01*
G01Y-1015D01*
G01X-986Y-1083D01*
G03X-1010Y-1152I88J-69D01*
G03X-986Y-1221I112J0D01*
G01X-959Y-1288D01*
G01Y-1388D01*
G03X-941Y-1432I61J0D01*
G01X-729Y-1643D01*
G03X-686Y-1661I43J43D01*
G01X1267D01*
G01X2585Y-2979D01*
G01X2614Y-3051D01*
G37*
G36*
G01X2061Y-3552D02*
G03X2096Y-3566I34J34D01*
G01X2756D01*
G03X2790Y-3552I0J49D01*
G01X3187Y-3155D01*
G01X3224Y-3141D01*
G03X3295Y-3061I-11J81D01*
G03X3213Y-2979I-82J0D01*
G03X3132Y-3050I0J-82D01*
G01X3118Y-3087D01*
G01X2829Y-3376D01*
G03X2845Y-3317I-100J59D01*
G03X2729Y-3201I-116J0D01*
G03X2613Y-3317I0J-116D01*
G03X2729Y-3433I116J0D01*
G03X2788Y-3417I0J116D01*
G01X2736Y-3469D01*
G01X2116D01*
G01X1623Y-2977D01*
G01Y-2400D01*
G03X1609Y-2366I-49J0D01*
G01X1520Y-2277D01*
G03X1486Y-2263I-34J-34D01*
G01X936D01*
G01X900Y-2246D01*
G03X851Y-2230I-49J-65D01*
G03X769Y-2311I0J-82D01*
G03X851Y-2393I82J0D01*
G03X900Y-2376I0J82D01*
G01X936Y-2360D01*
G01X1466D01*
G01X1526Y-2420D01*
G01Y-2997D01*
G03X1540Y-3032I49J0D01*
G01X2061Y-3552D01*
G37*
G36*
G01X-29Y2397D02*
G03X51Y2331I80J16D01*
G03X132Y2413I0J82D01*
G03X67Y2493I-82J0D01*
G01X37Y2514D01*
G01X-383Y2934D01*
G01Y3238D01*
G01Y3239D01*
G03X-401Y3282I-61J0D01*
G01X-579Y3460D01*
G03X-622Y3478I-43J-43D01*
G01X-2349D01*
G03X-2393Y3460I0J-61D01*
G01X-2704Y3148D01*
G03X-2722Y3111I43J-43D01*
G01X-2740Y3050D01*
G03X-2742Y3040I34J-10D01*
G01Y2780D01*
G03X-2706Y2744I36J0D01*
G01X-2616D01*
G03X-2586Y2761I0J36D01*
G03X-2556Y2744I30J20D01*
G01X-2466D01*
G03X-2436Y2761I0J36D01*
G03X-2406Y2744I30J20D01*
G01X-2316D01*
G03X-2286Y2761I0J36D01*
G03X-2256Y2744I30J20D01*
G01X-2166D01*
G03X-2136Y2761I0J36D01*
G03X-2106Y2744I30J20D01*
G01X-2016D01*
G03X-1986Y2761I0J36D01*
G03X-1956Y2744I30J20D01*
G01X-1866D01*
G03X-1830Y2780I0J36D01*
G01Y3040D01*
G03X-1832Y3052I-36J0D01*
G01X-1856Y3122D01*
G01Y3277D01*
G01X-1844Y3289D01*
G01X-675D01*
G01X-572Y3186D01*
G01Y2881D01*
G03X-554Y2838I61J0D01*
G01X-485Y2769D01*
G01X-487Y2763D01*
G03X-501Y2718I68J-46D01*
G03X-419Y2636I82J0D01*
G03X-338Y2715I0J82D01*
G01X-50Y2427D01*
G01X-29Y2397D01*
G37*
G36*
G01X2075Y-1472D02*
G03X2105Y-1488I30J20D01*
G01X2195D01*
G03X2225Y-1472I0J36D01*
G03X2255Y-1488I30J20D01*
G01X2345D01*
G03X2375Y-1472I0J36D01*
G03X2405Y-1488I30J20D01*
G01X2495D01*
G03X2525Y-1472I0J36D01*
G03X2555Y-1488I30J20D01*
G01X2645D01*
G03X2675Y-1472I0J36D01*
G03X2705Y-1488I30J20D01*
G01X2795D01*
G03X2831Y-1453I0J36D01*
G01Y-1193D01*
G03X2830Y-1186I-36J0D01*
G01X2817Y-1113D01*
G01Y-894D01*
G01X2824Y-858D01*
G03X2837Y-813I-68J45D01*
G03X2756Y-731I-82J0D01*
G03X2674Y-813I0J-82D01*
G03X2688Y-858I82J0D01*
G01X2695Y-894D01*
G01Y-1111D01*
G01X2674Y-1172D01*
G03X2645Y-1157I-29J-21D01*
G01X2555D01*
G03X2525Y-1173I0J-36D01*
G03X2495Y-1157I-30J-20D01*
G01X2405D01*
G03X2375Y-1173I0J-36D01*
G03X2345Y-1157I-30J-20D01*
G01X2255D01*
G03X2225Y-1173I0J-36D01*
G03X2195Y-1157I-30J-20D01*
G01X2105D01*
G03X2076Y-1172I0J-36D01*
G01X2055Y-1111D01*
G01Y-399D01*
G01X2062Y-363D01*
G03X2075Y-317I-68J45D01*
G03X1994Y-236I-82J0D01*
G03X1912Y-317I0J-82D01*
G03X1926Y-363I82J0D01*
G01X1933Y-399D01*
G01Y-1113D01*
G01X1920Y-1186D01*
G03X1919Y-1193I35J-6D01*
G01Y-1453D01*
G03X1955Y-1488I36J0D01*
G01X2045D01*
G03X2075Y-1472I0J36D01*
G37*
G36*
G01X514Y-1152D02*
G03X626Y-1264I112J0D01*
G03X738Y-1152I0J112D01*
G03X704Y-1071I-112J0D01*
G03X749Y-1085I45J68D01*
G03X831Y-1003I0J82D01*
G03X760Y-923I-82J0D01*
G01X723Y-909D01*
G01X657Y-842D01*
G03X622Y-828I-34J-34D01*
G01X261D01*
G01X161Y-727D01*
G01Y-649D01*
G01X195Y-587D01*
G03X218Y-521I-82J67D01*
G03X112Y-415I-106J0D01*
G03X6Y-521I0J-106D01*
G03X30Y-587I106J0D01*
G01X64Y-649D01*
G01Y-747D01*
G03X78Y-782I49J0D01*
G01X207Y-911D01*
G03X241Y-925I34J34D01*
G01X602D01*
G01X655Y-977D01*
G01X669Y-1014D01*
G03X691Y-1060I81J11D01*
G03X626Y-1040I-65J-92D01*
G03X514Y-1152I0J-112D01*
G37*
G36*
G01X507Y-535D02*
G03X612Y-627I105J14D01*
G03X718Y-521I0J106D01*
G03X626Y-416I-106J0D01*
G01X567Y-389D01*
G01X341Y-162D01*
G01Y427D01*
G01X347Y463D01*
G03X361Y508I-68J45D01*
G03X279Y590I-82J0D01*
G03X198Y508I0J-82D01*
G03X211Y463I82J0D01*
G01X218Y427D01*
G01Y-188D01*
G03X236Y-231I61J0D01*
G01X480Y-475D01*
G01X507Y-535D01*
G37*
G36*
G01X-653Y-2273D02*
G03X-571Y-2355I82J0D01*
G03X-490Y-2273I0J82D01*
G03X-506Y-2224I-82J0D01*
G01X-523Y-2188D01*
G01Y-2057D01*
G03X-537Y-2023I-49J0D01*
G01X-909Y-1652D01*
G01X-923Y-1614D01*
G03X-1003Y-1544I-81J-11D01*
G03X-1085Y-1626I0J-82D01*
G03X-1014Y-1706I82J0D01*
G01X-977Y-1720D01*
G01X-620Y-2077D01*
G01Y-2188D01*
G01X-637Y-2224D01*
G03X-653Y-2273I65J-49D01*
G37*
G36*
G01X555Y4D02*
G03X766Y-207I211J0D01*
G03X977Y4I0J211D01*
G03X766Y215I-211J0D01*
G03X555Y4I0J-211D01*
G37*
G36*
G01X3064Y50D02*
G03X3250Y-136I186J0D01*
G03X3436Y50I0J186D01*
G03X3250Y236I-186J0D01*
G03X3064Y50I0J-186D01*
G37*
G36*
G01X-3436Y50D02*
G03X-3250Y-136I186J0D01*
G03X-3064Y50I0J186D01*
G03X-3250Y236I-186J0D01*
G03X-3436Y50I0J-186D01*
G37*
G36*
G01X0Y-3536D02*
G03X186Y-3350I0J186D01*
G03X0Y-3164I-186J0D01*
G03X-186Y-3350I0J-186D01*
G03X0Y-3536I186J0D01*
G37*
G36*
G01X2159Y1314D02*
G03X2280Y1435I0J121D01*
G03X2159Y1556I-121J0D01*
G03X2038Y1435I0J-121D01*
G03X2159Y1314I121J0D01*
G37*
G36*
G01X1784Y1689D02*
G03X1905Y1568I121J0D01*
G03X2026Y1689I0J121D01*
G03X1905Y1810I-121J0D01*
G03X1784Y1689I0J-121D01*
G37*
G36*
G01X1784Y1435D02*
G03X1905Y1314I121J0D01*
G03X2026Y1435I0J121D01*
G03X1905Y1556I-121J0D01*
G03X1784Y1435I0J-121D01*
G37*
G36*
G01X2159Y1060D02*
G03X2280Y1181I0J121D01*
G03X2159Y1302I-121J0D01*
G03X2038Y1181I0J-121D01*
G03X2159Y1060I121J0D01*
G37*
G36*
G01X1784Y1181D02*
G03X1905Y1060I121J0D01*
G03X2026Y1181I0J121D01*
G03X1905Y1302I-121J0D01*
G03X1784Y1181I0J-121D01*
G37*
G36*
G01X2159Y806D02*
G03X2280Y927I0J121D01*
G03X2159Y1048I-121J0D01*
G03X2038Y927I0J-121D01*
G03X2159Y806I121J0D01*
G37*
G36*
G01X2731Y-1906D02*
G03X2846Y-1790I0J116D01*
G03X2731Y-1674I-116J0D01*
G03X2615Y-1790I0J-116D01*
G03X2731Y-1906I116J0D01*
G37*
G36*
G01X2615Y-2070D02*
G03X2731Y-2186I116J0D01*
G03X2846Y-2070I0J116D01*
G03X2731Y-1954I-116J0D01*
G03X2615Y-2070I0J-116D01*
G37*
G36*
G01X934Y-3432D02*
G03X1050Y-3316I0J116D01*
G03X934Y-3200I-116J0D01*
G03X819Y-3316I0J-116D01*
G03X934Y-3432I116J0D01*
G37*
G36*
G01X936Y-1900D02*
G03X1052Y-1784I0J116D01*
G03X936Y-1668I-116J0D01*
G03X820Y-1784I0J-116D01*
G03X936Y-1900I116J0D01*
G37*
G36*
G01X934Y-3152D02*
G03X1050Y-3036I0J116D01*
G03X934Y-2920I-116J0D01*
G03X819Y-3036I0J-116D01*
G03X934Y-3152I116J0D01*
G37*
G36*
G01X936Y-2180D02*
G03X1052Y-2064I0J116D01*
G03X936Y-1948I-116J0D01*
G03X820Y-2064I0J-116D01*
G03X936Y-2180I116J0D01*
G37*
G36*
G01X-1181Y-2227D02*
G03X-1065Y-2111I0J116D01*
G03X-1181Y-1995I-116J0D01*
G03X-1297Y-2111I0J-116D01*
G03X-1181Y-2227I116J0D01*
G37*
G36*
G01X-1297Y-2461D02*
G03X-1181Y-2577I116J0D01*
G03X-1065Y-2461I0J116D01*
G03X-1181Y-2345I-116J0D01*
G03X-1297Y-2461I0J-116D01*
G37*
G36*
G01X1511Y421D02*
G03X1547Y457I0J36D01*
G01Y610D01*
G03X1511Y645I-36J0D01*
G01X1359D01*
G03X1323Y610I0J-36D01*
G01Y457D01*
G03X1359Y421I36J0D01*
G01X1511D01*
G37*
G36*
G01X1069Y533D02*
G03X1181Y421I112J0D01*
G03X1293Y533I0J112D01*
G03X1181Y645I-112J0D01*
G03X1069Y533I0J-112D01*
G37*
G36*
G01X118Y-1264D02*
G03X230Y-1152I0J112D01*
G03X118Y-1040I-112J0D01*
G03X6Y-1152I0J-112D01*
G03X118Y-1264I112J0D01*
G37*
G36*
G01X-248Y-1152D02*
G03X-136Y-1264I112J0D01*
G03X-24Y-1152I0J112D01*
G03X-136Y-1040I-112J0D01*
G03X-248Y-1152I0J-112D01*
G37*
G36*
G01X-390Y-1264D02*
G03X-278Y-1152I0J112D01*
G03X-390Y-1040I-112J0D01*
G03X-502Y-1152I0J-112D01*
G03X-390Y-1264I112J0D01*
G37*
G36*
G01X372Y-1264D02*
G03X484Y-1152I0J112D01*
G03X372Y-1040I-112J0D01*
G03X260Y-1152I0J-112D01*
G03X372Y-1264I112J0D01*
G37*
G36*
G01X1435Y675D02*
G03X1547Y787I0J112D01*
G03X1435Y899I-112J0D01*
G03X1323Y787I0J-112D01*
G03X1435Y675I112J0D01*
G37*
G36*
G01X1181Y675D02*
G03X1293Y787I0J112D01*
G03X1181Y899I-112J0D01*
G03X1069Y787I0J-112D01*
G03X1181Y675I112J0D01*
G37*
G36*
G01X768Y-1152D02*
G03X880Y-1264I112J0D01*
G03X992Y-1152I0J112D01*
G03X880Y-1040I-112J0D01*
G03X768Y-1152I0J-112D01*
G37*
G36*
G01X-1471Y1295D02*
G03X-1359Y1183I112J0D01*
G03X-1247Y1295I0J112D01*
G03X-1359Y1407I-112J0D01*
G03X-1471Y1295I0J-112D01*
G37*
G36*
G01X1435Y2707D02*
G03X1547Y2819I0J112D01*
G03X1435Y2931I-112J0D01*
G03X1323Y2819I0J-112D01*
G03X1435Y2707I112J0D01*
G37*
G36*
G01X-1359Y1437D02*
G03X-1247Y1549I0J112D01*
G03X-1359Y1661I-112J0D01*
G03X-1471Y1549I0J-112D01*
G03X-1359Y1437I112J0D01*
G37*
G36*
G01X-1359Y929D02*
G03X-1247Y1041I0J112D01*
G03X-1359Y1153I-112J0D01*
G03X-1471Y1041I0J-112D01*
G03X-1359Y929I112J0D01*
G37*
G36*
G01X-644Y-1264D02*
G03X-532Y-1152I0J112D01*
G03X-644Y-1040I-112J0D01*
G03X-756Y-1152I0J-112D01*
G03X-644Y-1264I112J0D01*
G37*
G36*
G01X-1359Y1691D02*
G03X-1247Y1803I0J112D01*
G03X-1359Y1915I-112J0D01*
G03X-1471Y1803I0J-112D01*
G03X-1359Y1691I112J0D01*
G37*
G36*
G01X1069Y1549D02*
G03X1181Y1437I112J0D01*
G03X1293Y1549I0J112D01*
G03X1181Y1661I-112J0D01*
G03X1069Y1549I0J-112D01*
G37*
G36*
G01X-1471Y2565D02*
G03X-1359Y2453I112J0D01*
G03X-1247Y2565I0J112D01*
G03X-1359Y2677I-112J0D01*
G03X-1471Y2565I0J-112D01*
G37*
G36*
G01X1069Y2057D02*
G03X1181Y1945I112J0D01*
G03X1293Y2057I0J112D01*
G03X1181Y2169I-112J0D01*
G03X1069Y2057I0J-112D01*
G37*
G36*
G01X-1471Y2819D02*
G03X-1359Y2707I112J0D01*
G03X-1247Y2819I0J112D01*
G03X-1359Y2931I-112J0D01*
G03X-1471Y2819I0J-112D01*
G37*
G36*
G01X-1217Y2057D02*
G03X-1105Y1945I112J0D01*
G03X-993Y2057I0J112D01*
G03X-1105Y2169I-112J0D01*
G03X-1217Y2057I0J-112D01*
G37*
G36*
G01X-1854Y-2536D02*
G03X-1742Y-2424I0J112D01*
G03X-1854Y-2312I-112J0D01*
G03X-1966Y-2424I0J-112D01*
G03X-1854Y-2536I112J0D01*
G37*
G36*
G01X1435Y1437D02*
G03X1547Y1549I0J112D01*
G03X1435Y1661I-112J0D01*
G03X1323Y1549I0J-112D01*
G03X1435Y1437I112J0D01*
G37*
G36*
G01X-1966Y-2250D02*
G03X-1930Y-2286I36J0D01*
G01X-1778D01*
G03X-1742Y-2250I0J36D01*
G01Y-2097D01*
G03X-1778Y-2062I-36J0D01*
G01X-1930D01*
G03X-1966Y-2097I0J-36D01*
G01Y-2250D01*
G37*
G36*
G01X1323Y1803D02*
G03X1435Y1691I112J0D01*
G03X1547Y1803I0J112D01*
G03X1435Y1915I-112J0D01*
G03X1323Y1803I0J-112D01*
G37*
G36*
G01X-1217Y2819D02*
G03X-1105Y2707I112J0D01*
G03X-993Y2819I0J112D01*
G03X-1105Y2931I-112J0D01*
G03X-1217Y2819I0J-112D01*
G37*
G36*
G01X1069Y1803D02*
G03X1181Y1691I112J0D01*
G03X1293Y1803I0J112D01*
G03X1181Y1915I-112J0D01*
G03X1069Y1803I0J-112D01*
G37*
G36*
G01X1181Y2707D02*
G03X1293Y2819I0J112D01*
G03X1181Y2931I-112J0D01*
G03X1069Y2819I0J-112D01*
G03X1181Y2707I112J0D01*
G37*
G36*
G01X-2801Y-1097D02*
G03X-2765Y-1061I0J36D01*
G01Y-866D01*
G03X-2801Y-830I-36J0D01*
G01X-2911D01*
G03X-2947Y-866I0J-36D01*
G01Y-1061D01*
G03X-2911Y-1097I36J0D01*
G01X-2801D01*
G37*
G36*
G01X-1807Y-1061D02*
G03X-1771Y-1097I36J0D01*
G01X-1661D01*
G03X-1625Y-1061I0J36D01*
G01Y-866D01*
G03X-1661Y-830I-36J0D01*
G01X-1771D01*
G03X-1807Y-866I0J-36D01*
G01Y-1061D01*
G37*
G36*
G01X2854Y-1010D02*
G03X2890Y-1046I36J0D01*
G01X3000D01*
G03X3036Y-1010I0J36D01*
G01Y-815D01*
G03X3000Y-779I-36J0D01*
G01X2890D01*
G03X2854Y-815I0J-36D01*
G01Y-1010D01*
G37*
G36*
G01X1714Y-1010D02*
G03X1750Y-1046I36J0D01*
G01X1860D01*
G03X1896Y-1010I0J36D01*
G01Y-815D01*
G03X1860Y-779I-36J0D01*
G01X1750D01*
G03X1714Y-815I0J-36D01*
G01Y-1010D01*
G37*
G36*
G01X-2947Y2403D02*
G03X-2911Y2367I36J0D01*
G01X-2801D01*
G03X-2765Y2403I0J36D01*
G01Y2598D01*
G03X-2801Y2633I-36J0D01*
G01X-2911D01*
G03X-2947Y2598I0J-36D01*
G01Y2403D01*
G37*
G36*
G01X2854Y2453D02*
G03X2890Y2418I36J0D01*
G01X3000D01*
G03X3036Y2453I0J36D01*
G01Y2648D01*
G03X3000Y2684I-36J0D01*
G01X2890D01*
G03X2854Y2648I0J-36D01*
G01Y2453D01*
G37*
G36*
G01X-1661Y2367D02*
G03X-1625Y2403I0J36D01*
G01Y2598D01*
G03X-1661Y2633I-36J0D01*
G01X-1771D01*
G03X-1807Y2598I0J-36D01*
G01Y2403D01*
G03X-1771Y2367I36J0D01*
G01X-1661D01*
G37*
G36*
G01X362Y-627D02*
G03X468Y-521I0J106D01*
G03X362Y-415I-106J0D01*
G03X256Y-521I0J-106D01*
G03X362Y-627I106J0D01*
G37*
G36*
G01X-388Y-627D02*
G03X-282Y-521I0J106D01*
G03X-388Y-415I-106J0D01*
G03X-494Y-521I0J-106D01*
G03X-388Y-627I106J0D01*
G37*
G36*
G01X-138Y-627D02*
G03X-32Y-521I0J106D01*
G03X-138Y-415I-106J0D01*
G03X-244Y-521I0J-106D01*
G03X-138Y-627I106J0D01*
G37*
%LPD*%
G36*
G01X-101Y964D02*
G01X-566Y498D01*
G03X-637Y576I-81J-3D01*
G01X-674Y590D01*
G01X-917Y833D01*
G01Y1350D01*
G01X-900Y1386D01*
G03X-884Y1435I-65J49D01*
G03X-965Y1517I-82J0D01*
G03X-1001Y1509I0J-82D01*
G03X-993Y1538I-104J41D01*
G01X-972Y1613D01*
G01X-880Y1706D01*
G03X-867Y1730I-34J34D01*
G01X-850Y1767D01*
G03X-834Y1802I-65J49D01*
G01X-671Y1638D01*
G01Y1491D01*
G01X-678Y1455D01*
G03X-691Y1410I68J-45D01*
G03X-678Y1365I82J0D01*
G01X-671Y1329D01*
G01Y804D01*
G03X-653Y761I61J0D01*
G01X-652Y760D01*
G01X-631Y729D01*
G03X-551Y664I80J16D01*
G03X-469Y746I0J82D01*
G03X-535Y826I-82J0D01*
G01X-548Y835D01*
G01Y1329D01*
G01X-542Y1365D01*
G03X-528Y1410I-68J45D01*
G03X-542Y1455I-82J0D01*
G01X-548Y1491D01*
G01Y1664D01*
G03X-566Y1707I-61J0D01*
G01X-815Y1956D01*
G01Y2083D01*
G03X-833Y2126I-61J0D01*
G01X-965Y2258D01*
G01X-994Y2325D01*
G03X-1025Y2390I-111J-14D01*
G01X-655D01*
G01X-199Y1934D01*
G03X-165Y1920I34J34D01*
G01X358D01*
G03X325Y1854I48J-66D01*
G03X390Y1774I82J0D01*
G01X420Y1754D01*
G01X650Y1524D01*
G01Y1293D01*
G01X526Y1417D01*
G03X482Y1435I-43J-43D01*
G01X290D01*
G01X215Y1510D01*
G01X194Y1540D01*
G03X114Y1606I-80J-16D01*
G03X33Y1534I0J-82D01*
G03X-13Y1547I-46J-73D01*
G03X-99Y1461I0J-87D01*
G03X-74Y1399I87J0D01*
G01X13Y1312D01*
G03X0Y1313I-13J-81D01*
G03X-82Y1232I0J-82D01*
G03X-16Y1152I82J0D01*
G01X14Y1131D01*
G01X53Y1092D01*
G01Y1040D01*
G03X0Y1059I-53J-62D01*
G03X-80Y994I0J-82D01*
G01X-101Y964D01*
G37*
G54D999*
G01X-3150Y-3714D02*
G02X-3464Y-3400I0J314D01*
G01Y3550D01*
G02X-3300Y3714I164J0D01*
G01X3300D01*
G02X3464Y3550I0J-164D01*
G01Y-3400D01*
G02X3150Y-3714I-314J0D01*
G01X-3150D01*
G01X-2586Y-1523D02*
G03X-2556Y-1539I30J20D01*
G01X-2466D01*
G03X-2436Y-1523I0J36D01*
G03X-2406Y-1539I30J20D01*
G01X-2316D01*
G03X-2286Y-1523I0J36D01*
G03X-2256Y-1539I30J20D01*
G01X-2166D01*
G03X-2136Y-1523I0J36D01*
G03X-2106Y-1539I30J20D01*
G01X-2016D01*
G03X-1986Y-1523I0J36D01*
G03X-1956Y-1539I30J20D01*
G01X-1866D01*
G03X-1830Y-1503I0J36D01*
G01Y-1243D01*
G03X-1832Y-1232I-36J0D01*
G01X-1856Y-1161D01*
G01Y-818D01*
G01X-1850Y-782D01*
G03X-1836Y-737I-68J45D01*
G03X-1918Y-655I-82J0D01*
G03X-1999Y-737I0J-82D01*
G03X-1986Y-782I82J0D01*
G01X-1979Y-818D01*
G01Y-1164D01*
G01X-1988Y-1221D01*
G03X-2016Y-1208I-28J-23D01*
G01X-2106D01*
G03X-2136Y-1224I0J-36D01*
G03X-2166Y-1208I-30J-20D01*
G01X-2256D01*
G03X-2286Y-1224I0J-36D01*
G03X-2316Y-1208I-30J-20D01*
G01X-2406D01*
G03X-2436Y-1224I0J-36D01*
G03X-2466Y-1208I-30J-20D01*
G01X-2556D01*
G03X-2585Y-1222I0J-36D01*
G01X-2600Y-1163D01*
G01Y-654D01*
G01X-2108Y-163D01*
G01X-1384D01*
G03X-1341Y-145I0J61D01*
G01X-1003Y193D01*
G01X-928D01*
G03X-1045Y4I94J-189D01*
G03X-834Y-207I211J0D01*
G03X-623Y4I0J211D01*
G03X-740Y193I-211J0D01*
G01X-457D01*
G03X-414Y211I0J61D01*
G01X158Y782D01*
G03X176Y826I-43J43D01*
G01Y1118D01*
G03X158Y1161I-61J0D01*
G01X101Y1218D01*
G01X86Y1240D01*
G01X104Y1221D01*
G03X165Y1196I61J61D01*
G01X409D01*
G01X447Y1158D01*
G01Y356D01*
G03X533Y269I87J0D01*
G03X620Y356I0J87D01*
G01Y449D01*
G01X1049Y20D01*
G03X1092Y2I43J43D01*
G01X1392D01*
G01X1428Y-4D01*
G03X1473Y-18I45J68D01*
G03X1555Y64I0J82D01*
G03X1473Y145I-82J0D01*
G03X1428Y131I0J-82D01*
G01X1392Y125D01*
G01X1118D01*
G01X1024Y218D01*
G01X1418D01*
G01X1454Y211D01*
G03X1499Y198I45J68D01*
G03X1580Y279I0J82D01*
G03X1499Y361I-82J0D01*
G03X1454Y347I0J-82D01*
G01X1418Y341D01*
G01X1003D01*
G01X772Y571D01*
G01Y1549D01*
G03X754Y1593I-61J0D01*
G01X507Y1840D01*
G01X486Y1870D01*
G03X455Y1920I-80J-16D01*
G01X564D01*
G01X967Y1517D01*
G01Y1270D01*
G03X982Y1236I49J0D01*
G01X1083Y1134D01*
G03X1103Y1122I34J34D01*
G03X1070Y1055I78J-81D01*
G01X1041Y988D01*
G01X833Y780D01*
G03X815Y737I43J-43D01*
G01Y665D01*
G01X808Y629D01*
G03X795Y584I68J-45D01*
G03X876Y503I82J0D01*
G03X958Y584I0J82D01*
G03X944Y629I-82J0D01*
G01X938Y665D01*
G01Y711D01*
G01X1128Y902D01*
G01X1195Y930D01*
G03X1293Y1041I-14J111D01*
G03X1261Y1120I-112J0D01*
G01X1355D01*
G03X1323Y1041I80J-78D01*
G03X1435Y929I112J0D01*
G03X1547Y1041I0J112D01*
G03X1515Y1120I-112J0D01*
G01X1529D01*
G01X1756Y893D01*
G03X1774Y882I34J34D01*
G01X1825Y836D01*
G03X1905Y806I80J91D01*
G03X2026Y927I0J121D01*
G03X1905Y1048I-121J0D01*
G03X1825Y1018I0J-121D01*
G01X1795Y991D01*
G01X1584Y1203D01*
G03X1549Y1217I-34J-34D01*
G01X1515D01*
G03X1547Y1295I-80J78D01*
G03X1435Y1407I-112J0D01*
G03X1323Y1295I0J-112D01*
G03X1355Y1217I112J0D01*
G01X1261D01*
G03X1293Y1295I-80J78D01*
G03X1181Y1407I-112J0D01*
G03X1069Y1295I0J-112D01*
G03X1070Y1285I112J0D01*
G01X1065Y1290D01*
G01Y1537D01*
G03X1050Y1571I-49J0D01*
G01X619Y2003D01*
G03X584Y2017I-34J-34D01*
G01X-145D01*
G01X-601Y2473D01*
G03X-635Y2487I-34J-34D01*
G01X-1025D01*
G03X-993Y2565I-80J78D01*
G03X-1105Y2677I-112J0D01*
G03X-1217Y2565I0J-112D01*
G03X-1185Y2487I112J0D01*
G03X-1215Y2473I4J-48D01*
G01X-1266Y2422D01*
G03X-1280Y2391I34J-34D01*
G03X-1359Y2423I-79J-80D01*
G03X-1471Y2311I0J-112D01*
G03X-1359Y2199I112J0D01*
G03X-1280Y2231I0J112D01*
G01Y2204D01*
G01X-1295Y2190D01*
G01X-1370Y2169D01*
G03X-1471Y2057I11J-111D01*
G03X-1359Y1945I112J0D01*
G03X-1247Y2046I0J112D01*
G01X-1226Y2121D01*
G01X-1198Y2150D01*
G03X-1183Y2184I-34J34D01*
G01Y2231D01*
G03X-1119Y2200I78J80D01*
G01X-1052Y2172D01*
G01X-938Y2057D01*
G01Y1930D01*
G03X-927Y1897I61J0D01*
G03X-995Y1826I13J-81D01*
G03X-1105Y1915I-110J-23D01*
G03X-1217Y1803I0J-112D01*
G03X-1105Y1691I112J0D01*
G03X-993Y1795I0J112D01*
G03X-979Y1767I79J21D01*
G01X-972Y1751D01*
G01X-1041Y1682D01*
G01X-1116Y1661D01*
G03X-1217Y1549I11J-111D01*
G03X-1105Y1437I112J0D01*
G03X-1044Y1455I0J112D01*
G03X-1047Y1435I79J-20D01*
G03X-1030Y1386I82J0D01*
G01X-1025Y1373D01*
G03X-1105Y1407I-80J-78D01*
G03X-1217Y1295I0J-112D01*
G03X-1105Y1183I112J0D01*
G03X-1014Y1230I0J112D01*
G01Y1106D01*
G03X-1105Y1153I-91J-65D01*
G03X-1216Y1053I0J-112D01*
G01X-1237Y977D01*
G01X-1279Y936D01*
G03X-1293Y902I34J-34D01*
G01Y878D01*
G03X-1359Y899I-66J-91D01*
G03X-1430Y874I0J-112D01*
G01X-1498Y836D01*
G01X-1511D01*
G03X-1546Y822I0J-49D01*
G01X-1647Y720D01*
G03X-1661Y686I34J-34D01*
G01Y483D01*
G03X-1647Y448I49J0D01*
G01X-1619Y420D01*
G01X-1605Y383D01*
G03X-1524Y312I81J11D01*
G03X-1442Y394I0J82D01*
G03X-1513Y474I-82J0D01*
G01X-1550Y488D01*
G01X-1564Y503D01*
G01Y666D01*
G01X-1494Y737D01*
G01X-1430Y701D01*
G03X-1359Y675I71J87D01*
G03X-1293Y697I0J112D01*
G01Y624D01*
G03X-1359Y645I-66J-91D01*
G03X-1471Y533I0J-112D01*
G03X-1359Y421I112J0D01*
G03X-1293Y443I0J112D01*
G01Y432D01*
G03X-1279Y397I49J0D01*
G01X-1228Y347D01*
G03X-1194Y332I34J34D01*
G01X-1130D01*
G01X-1308Y155D01*
G01X-1584D01*
G01X-1630D01*
G03X-1651Y158I-21J-79D01*
G03X-1733Y76I0J-82D01*
G03X-1651Y-5I82J0D01*
G03X-1588Y25I0J82D01*
G01X-1559Y32D01*
G01X-1337D01*
G01X-1410Y-40D01*
G01X-2134D01*
G03X-2177Y-58I0J-61D01*
G01X-2704Y-586D01*
G03X-2722Y-629I43J-43D01*
G01Y-1163D01*
G01X-2741Y-1234D01*
G03X-2742Y-1243I35J-9D01*
G01Y-1503D01*
G03X-2706Y-1539I36J0D01*
G01X-2616D01*
G03X-2586Y-1523I0J36D01*
G01X1245Y-722D02*
G03X1306Y-696I0J87D01*
G01X3224Y1221D01*
G03X3249Y1283I-61J61D01*
G01Y3137D01*
G03X3224Y3198I-87J0D01*
G01X2855Y3566D01*
G03X2794Y3592I-61J-61D01*
G01X787D01*
G01X356D01*
G03X294Y3566I0J-87D01*
G01X-10Y3262D01*
G03X-36Y3200I61J-61D01*
G01Y2629D01*
G03X51Y2542I87J0D01*
G03X137Y2629I0J87D01*
G01Y2672D01*
G03X162Y2663I40J71D01*
G01X192Y2643D01*
G01X287Y2548D01*
G03X330Y2530I43J43D01*
G01X864D01*
G03X872I0J61D01*
G03X871Y2515I80J-16D01*
G03X941Y2434I82J0D01*
G01X979Y2420D01*
G01X982Y2417D01*
G03X1016Y2403I34J34D01*
G01X1116D01*
G03X1069Y2311I65J-91D01*
G03X1170Y2200I112J0D01*
G01X1245Y2179D01*
G01X1261Y2163D01*
G03X1295Y2149I34J34D01*
G01X1370D01*
G03X1323Y2057I65J-91D01*
G03X1435Y1945I112J0D01*
G03X1547Y2057I0J112D01*
G03X1500Y2149I-112J0D01*
G01X1580D01*
G01X1604Y2125D01*
G03X1638Y2110I34J34D01*
G01X1656D01*
G01X1718Y2048D01*
G03X1753Y2034I34J34D01*
G01X1785D01*
G03X1784Y2028I35J-6D01*
G01Y1858D01*
G03X1820Y1822I36J0D01*
G01X1990D01*
G03X2026Y1858I0J36D01*
G01Y2028D01*
G03X2025Y2034I-36J0D01*
G01X2080D01*
G03X2038Y1943I79J-91D01*
G03X2159Y1822I121J0D01*
G03X2222Y1840I0J121D01*
G01X2309Y1882D01*
G01X2558D01*
G01X2695Y1745D01*
G01Y1356D01*
G03X2681Y1383I-78J-22D01*
G01X2665Y1419D01*
G01Y1511D01*
G03X2651Y1546I-49J0D01*
G01X2473Y1723D01*
G03X2438Y1738I-34J-34D01*
G01X2313D01*
G01X2236Y1782D01*
G03X2159Y1810I-77J-93D01*
G03X2038Y1689I0J-121D01*
G03X2159Y1568I121J0D01*
G03X2236Y1596I0J121D01*
G01X2313Y1641D01*
G01X2418D01*
G01X2568Y1491D01*
G01Y1419D01*
G01X2551Y1383D01*
G03X2535Y1334I65J-49D01*
G03X2616Y1252I82J0D01*
G03X2695Y1311I0J82D01*
G01Y1138D01*
G01X1491Y-66D01*
G01X1203D01*
G01X1167Y-49D01*
G03X1118Y-33I-49J-65D01*
G03X1036Y-114I0J-82D01*
G03X1118Y-196I82J0D01*
G01X1120D01*
G01X1093Y-223D01*
G01X1056Y-237D01*
G03X985Y-317I11J-81D01*
G03X1067Y-399I82J0D01*
G03X1148Y-329I0J82D01*
G01X1162Y-291D01*
G01X1249Y-203D01*
G01X1528D01*
G03X1562Y-189I0J49D01*
G01X2818Y1066D01*
G03X2832Y1101I-34J34D01*
G01Y1252D01*
G01X2930Y1350D01*
G03X2940Y1365I-34J34D01*
G01X2948Y1373D01*
G03X2957Y1381I-52J63D01*
G03X2977Y1435I-61J54D01*
G03X2896Y1517I-82J0D01*
G03X2814Y1435I0J-82D01*
G03X2830Y1387I82J0D01*
G01X2792Y1349D01*
G01Y1765D01*
G03X2778Y1800I-49J0D01*
G01X2612Y1965D01*
G03X2578Y1979I-34J-34D01*
G01X2316D01*
G01X2248Y2025D01*
G03X2238Y2034I-89J-82D01*
G01X2774D01*
G01X2814Y1995D01*
G01X2828Y1957D01*
G03X2908Y1887I81J11D01*
G03X2990Y1969I0J82D01*
G03X2919Y2049I-82J0D01*
G01X2882Y2063D01*
G01X2828Y2117D01*
G03X2794Y2131I-34J-34D01*
G01X1773D01*
G01X1711Y2193D01*
G03X1676Y2208I-34J-34D01*
G01X1658D01*
G01X1635Y2231D01*
G03X1600Y2246I-34J-34D01*
G01X1526D01*
G03X1547Y2311I-91J66D01*
G03X1500Y2403I-112J0D01*
G01X1537D01*
G03X1571Y2417I0J49D01*
G01X1668Y2514D01*
G01X1714Y2552D01*
G01Y2453D01*
G03X1750Y2418I36J0D01*
G01X1860D01*
G03X1896Y2453I0J36D01*
G01Y2648D01*
G03X1860Y2684I-36J0D01*
G01X1750D01*
G03X1723Y2672I0J-36D01*
G03X1664Y2698I-59J-56D01*
G03X1582Y2616I0J-82D01*
G03X1587Y2588I82J0D01*
G01X1581Y2564D01*
G01X1538Y2521D01*
G03X1547Y2565I-103J44D01*
G03X1435Y2677I-112J0D01*
G03X1323Y2565I0J-112D01*
G03X1344Y2500I112J0D01*
G01X1272D01*
G03X1293Y2565I-91J66D01*
G03X1181Y2677I-112J0D01*
G03X1069Y2565I0J-112D01*
G03X1090Y2500I112J0D01*
G01X1043D01*
G01X1033Y2526D01*
G03X955Y2596I-81J-11D01*
G01X1047Y2687D01*
G03X1065Y2731I-43J43D01*
G01Y3137D01*
G01X1219Y3292D01*
G01X1285D01*
G03X1252Y3226I48J-66D01*
G03X1334Y3144I82J0D01*
G03X1379Y3158I0J82D01*
G01X1415Y3165D01*
G01X1892D01*
G01X1927Y3130D01*
G01X1920Y3099D01*
G03X1919Y3091I35J-8D01*
G01Y2831D01*
G03X1955Y2795I36J0D01*
G01X2045D01*
G03X2075Y2811I0J36D01*
G03X2105Y2795I30J20D01*
G01X2195D01*
G03X2225Y2811I0J36D01*
G03X2255Y2795I30J20D01*
G01X2345D01*
G03X2375Y2811I0J36D01*
G03X2405Y2795I30J20D01*
G01X2495D01*
G03X2525Y2811I0J36D01*
G03X2555Y2795I30J20D01*
G01X2645D01*
G03X2675Y2811I0J36D01*
G03X2705Y2795I30J20D01*
G01X2795D01*
G03X2831Y2831I0J36D01*
G01Y3091D01*
G03X2801Y3126I-36J0D01*
G03X2793Y3135I-51J-34D01*
G01X2532Y3396D01*
G03X2489Y3414I-43J-43D01*
G01X1194D01*
G03X1151Y3396I0J-61D01*
G01X960Y3206D01*
G03X942Y3162I43J-43D01*
G01Y2756D01*
G01X838Y2652D01*
G01X356D01*
G01X278Y2729D01*
G01X258Y2759D01*
G03X178Y2825I-80J-16D01*
G03X137Y2814I0J-82D01*
G01Y2921D01*
G03X165Y2916I28J77D01*
G03X245Y2981I0J82D01*
G01X266Y3011D01*
G01X508Y3253D01*
G01X821D01*
G01X857Y3247D01*
G03X902Y3233I45J68D01*
G03X983Y3315I0J82D01*
G03X902Y3396I-82J0D01*
G03X857Y3383I0J-82D01*
G01X821Y3376D01*
G01X483D01*
G03X439Y3358I0J-61D01*
G01X179Y3098D01*
G01X149Y3077D01*
G03X137Y3074I16J-80D01*
G01Y3165D01*
G01X391Y3419D01*
G01X787D01*
G01X2758D01*
G01X3076Y3101D01*
G01Y1319D01*
G01X1183Y-574D01*
G03X1158Y-635I61J-61D01*
G03X1245Y-722I87J0D01*
G01X2614Y-3051D02*
G03X2729Y-3153I115J14D01*
G03X2845Y-3037I0J116D01*
G03X2743Y-2922I-116J0D01*
G01X2671Y-2893D01*
G01X1335Y-1557D01*
G03X1292Y-1539I-43J-43D01*
G01X-660D01*
G01X-836Y-1363D01*
G01Y-1288D01*
G01X-809Y-1221D01*
G03X-786Y-1152I-88J69D01*
G03X-809Y-1083I-112J0D01*
G01X-836Y-1015D01*
G01Y-806D01*
G01X-706Y-675D01*
G01X-575Y-627D01*
G01X-568D01*
G03X-532Y-591I0J36D01*
G01Y-451D01*
G03X-537Y-433I-36J0D01*
G01X-576Y-365D01*
G01Y-307D01*
G01X-71Y198D01*
G03X-53Y241I-43J43D01*
G01Y313D01*
G01X-46Y349D01*
G03X-33Y394I-68J45D01*
G03X-114Y475I-82J0D01*
G03X-196Y394I0J-82D01*
G03X-182Y349I82J0D01*
G01X-176Y313D01*
G01Y267D01*
G01X-681Y-239D01*
G03X-699Y-282I43J-43D01*
G01Y-365D01*
G01X-739Y-433D01*
G03X-744Y-451I31J-18D01*
G01Y-458D01*
G01X-792Y-589D01*
G01X-941Y-737D01*
G03X-959Y-781I43J-43D01*
G01Y-1015D01*
G01X-986Y-1083D01*
G03X-1010Y-1152I88J-69D01*
G03X-986Y-1221I112J0D01*
G01X-959Y-1288D01*
G01Y-1388D01*
G03X-941Y-1432I61J0D01*
G01X-729Y-1643D01*
G03X-686Y-1661I43J43D01*
G01X1267D01*
G01X2585Y-2979D01*
G01X2614Y-3051D01*
G01X2061Y-3552D02*
G03X2096Y-3566I34J34D01*
G01X2756D01*
G03X2790Y-3552I0J49D01*
G01X3187Y-3155D01*
G01X3224Y-3141D01*
G03X3295Y-3061I-11J81D01*
G03X3213Y-2979I-82J0D01*
G03X3132Y-3050I0J-82D01*
G01X3118Y-3087D01*
G01X2829Y-3376D01*
G03X2845Y-3317I-100J59D01*
G03X2729Y-3201I-116J0D01*
G03X2613Y-3317I0J-116D01*
G03X2729Y-3433I116J0D01*
G03X2788Y-3417I0J116D01*
G01X2736Y-3469D01*
G01X2116D01*
G01X1623Y-2977D01*
G01Y-2400D01*
G03X1609Y-2366I-49J0D01*
G01X1520Y-2277D01*
G03X1486Y-2263I-34J-34D01*
G01X936D01*
G01X900Y-2246D01*
G03X851Y-2230I-49J-65D01*
G03X769Y-2311I0J-82D01*
G03X851Y-2393I82J0D01*
G03X900Y-2376I0J82D01*
G01X936Y-2360D01*
G01X1466D01*
G01X1526Y-2420D01*
G01Y-2997D01*
G03X1540Y-3032I49J0D01*
G01X2061Y-3552D01*
G01X-29Y2397D02*
G03X51Y2331I80J16D01*
G03X132Y2413I0J82D01*
G03X67Y2493I-82J0D01*
G01X37Y2514D01*
G01X-383Y2934D01*
G01Y3238D01*
G01Y3239D01*
G03X-401Y3282I-61J0D01*
G01X-579Y3460D01*
G03X-622Y3478I-43J-43D01*
G01X-2349D01*
G03X-2393Y3460I0J-61D01*
G01X-2704Y3148D01*
G03X-2722Y3111I43J-43D01*
G01X-2740Y3050D01*
G03X-2742Y3040I34J-10D01*
G01Y2780D01*
G03X-2706Y2744I36J0D01*
G01X-2616D01*
G03X-2586Y2761I0J36D01*
G03X-2556Y2744I30J20D01*
G01X-2466D01*
G03X-2436Y2761I0J36D01*
G03X-2406Y2744I30J20D01*
G01X-2316D01*
G03X-2286Y2761I0J36D01*
G03X-2256Y2744I30J20D01*
G01X-2166D01*
G03X-2136Y2761I0J36D01*
G03X-2106Y2744I30J20D01*
G01X-2016D01*
G03X-1986Y2761I0J36D01*
G03X-1956Y2744I30J20D01*
G01X-1866D01*
G03X-1830Y2780I0J36D01*
G01Y3040D01*
G03X-1832Y3052I-36J0D01*
G01X-1856Y3122D01*
G01Y3277D01*
G01X-1844Y3289D01*
G01X-675D01*
G01X-572Y3186D01*
G01Y2881D01*
G03X-554Y2838I61J0D01*
G01X-485Y2769D01*
G01X-487Y2763D01*
G03X-501Y2718I68J-46D01*
G03X-419Y2636I82J0D01*
G03X-338Y2715I0J82D01*
G01X-50Y2427D01*
G01X-29Y2397D01*
G01X2075Y-1472D02*
G03X2105Y-1488I30J20D01*
G01X2195D01*
G03X2225Y-1472I0J36D01*
G03X2255Y-1488I30J20D01*
G01X2345D01*
G03X2375Y-1472I0J36D01*
G03X2405Y-1488I30J20D01*
G01X2495D01*
G03X2525Y-1472I0J36D01*
G03X2555Y-1488I30J20D01*
G01X2645D01*
G03X2675Y-1472I0J36D01*
G03X2705Y-1488I30J20D01*
G01X2795D01*
G03X2831Y-1453I0J36D01*
G01Y-1193D01*
G03X2830Y-1186I-36J0D01*
G01X2817Y-1113D01*
G01Y-894D01*
G01X2824Y-858D01*
G03X2837Y-813I-68J45D01*
G03X2756Y-731I-82J0D01*
G03X2674Y-813I0J-82D01*
G03X2688Y-858I82J0D01*
G01X2695Y-894D01*
G01Y-1111D01*
G01X2674Y-1172D01*
G03X2645Y-1157I-29J-21D01*
G01X2555D01*
G03X2525Y-1173I0J-36D01*
G03X2495Y-1157I-30J-20D01*
G01X2405D01*
G03X2375Y-1173I0J-36D01*
G03X2345Y-1157I-30J-20D01*
G01X2255D01*
G03X2225Y-1173I0J-36D01*
G03X2195Y-1157I-30J-20D01*
G01X2105D01*
G03X2076Y-1172I0J-36D01*
G01X2055Y-1111D01*
G01Y-399D01*
G01X2062Y-363D01*
G03X2075Y-317I-68J45D01*
G03X1994Y-236I-82J0D01*
G03X1912Y-317I0J-82D01*
G03X1926Y-363I82J0D01*
G01X1933Y-399D01*
G01Y-1113D01*
G01X1920Y-1186D01*
G03X1919Y-1193I35J-6D01*
G01Y-1453D01*
G03X1955Y-1488I36J0D01*
G01X2045D01*
G03X2075Y-1472I0J36D01*
G01X514Y-1152D02*
G03X626Y-1264I112J0D01*
G03X738Y-1152I0J112D01*
G03X704Y-1071I-112J0D01*
G03X749Y-1085I45J68D01*
G03X831Y-1003I0J82D01*
G03X760Y-923I-82J0D01*
G01X723Y-909D01*
G01X657Y-842D01*
G03X622Y-828I-34J-34D01*
G01X261D01*
G01X161Y-727D01*
G01Y-649D01*
G01X195Y-587D01*
G03X218Y-521I-82J67D01*
G03X112Y-415I-106J0D01*
G03X6Y-521I0J-106D01*
G03X30Y-587I106J0D01*
G01X64Y-649D01*
G01Y-747D01*
G03X78Y-782I49J0D01*
G01X207Y-911D01*
G03X241Y-925I34J34D01*
G01X602D01*
G01X655Y-977D01*
G01X669Y-1014D01*
G03X691Y-1060I81J11D01*
G03X626Y-1040I-65J-92D01*
G03X514Y-1152I0J-112D01*
G01X507Y-535D02*
G03X612Y-627I105J14D01*
G03X718Y-521I0J106D01*
G03X626Y-416I-106J0D01*
G01X567Y-389D01*
G01X341Y-162D01*
G01Y427D01*
G01X347Y463D01*
G03X361Y508I-68J45D01*
G03X279Y590I-82J0D01*
G03X198Y508I0J-82D01*
G03X211Y463I82J0D01*
G01X218Y427D01*
G01Y-188D01*
G03X236Y-231I61J0D01*
G01X480Y-475D01*
G01X507Y-535D01*
G01X-653Y-2273D02*
G03X-571Y-2355I82J0D01*
G03X-490Y-2273I0J82D01*
G03X-506Y-2224I-82J0D01*
G01X-523Y-2188D01*
G01Y-2057D01*
G03X-537Y-2023I-49J0D01*
G01X-909Y-1652D01*
G01X-923Y-1614D01*
G03X-1003Y-1544I-81J-11D01*
G03X-1085Y-1626I0J-82D01*
G03X-1014Y-1706I82J0D01*
G01X-977Y-1720D01*
G01X-620Y-2077D01*
G01Y-2188D01*
G01X-637Y-2224D01*
G03X-653Y-2273I65J-49D01*
G01X555Y4D02*
G03X766Y-207I211J0D01*
G03X977Y4I0J211D01*
G03X766Y215I-211J0D01*
G03X555Y4I0J-211D01*
G01X3064Y50D02*
G03X3250Y-136I186J0D01*
G03X3436Y50I0J186D01*
G03X3250Y236I-186J0D01*
G03X3064Y50I0J-186D01*
G01X-3436Y50D02*
G03X-3250Y-136I186J0D01*
G03X-3064Y50I0J186D01*
G03X-3250Y236I-186J0D01*
G03X-3436Y50I0J-186D01*
G01X0Y-3536D02*
G03X186Y-3350I0J186D01*
G03X0Y-3164I-186J0D01*
G03X-186Y-3350I0J-186D01*
G03X0Y-3536I186J0D01*
G01X2159Y1314D02*
G03X2280Y1435I0J121D01*
G03X2159Y1556I-121J0D01*
G03X2038Y1435I0J-121D01*
G03X2159Y1314I121J0D01*
G01X1784Y1689D02*
G03X1905Y1568I121J0D01*
G03X2026Y1689I0J121D01*
G03X1905Y1810I-121J0D01*
G03X1784Y1689I0J-121D01*
G01X1784Y1435D02*
G03X1905Y1314I121J0D01*
G03X2026Y1435I0J121D01*
G03X1905Y1556I-121J0D01*
G03X1784Y1435I0J-121D01*
G01X2159Y1060D02*
G03X2280Y1181I0J121D01*
G03X2159Y1302I-121J0D01*
G03X2038Y1181I0J-121D01*
G03X2159Y1060I121J0D01*
G01X1784Y1181D02*
G03X1905Y1060I121J0D01*
G03X2026Y1181I0J121D01*
G03X1905Y1302I-121J0D01*
G03X1784Y1181I0J-121D01*
G01X2159Y806D02*
G03X2280Y927I0J121D01*
G03X2159Y1048I-121J0D01*
G03X2038Y927I0J-121D01*
G03X2159Y806I121J0D01*
G01X2731Y-1906D02*
G03X2846Y-1790I0J116D01*
G03X2731Y-1674I-116J0D01*
G03X2615Y-1790I0J-116D01*
G03X2731Y-1906I116J0D01*
G01X2615Y-2070D02*
G03X2731Y-2186I116J0D01*
G03X2846Y-2070I0J116D01*
G03X2731Y-1954I-116J0D01*
G03X2615Y-2070I0J-116D01*
G01X934Y-3432D02*
G03X1050Y-3316I0J116D01*
G03X934Y-3200I-116J0D01*
G03X819Y-3316I0J-116D01*
G03X934Y-3432I116J0D01*
G01X936Y-1900D02*
G03X1052Y-1784I0J116D01*
G03X936Y-1668I-116J0D01*
G03X820Y-1784I0J-116D01*
G03X936Y-1900I116J0D01*
G01X934Y-3152D02*
G03X1050Y-3036I0J116D01*
G03X934Y-2920I-116J0D01*
G03X819Y-3036I0J-116D01*
G03X934Y-3152I116J0D01*
G01X936Y-2180D02*
G03X1052Y-2064I0J116D01*
G03X936Y-1948I-116J0D01*
G03X820Y-2064I0J-116D01*
G03X936Y-2180I116J0D01*
G01X-1181Y-2227D02*
G03X-1065Y-2111I0J116D01*
G03X-1181Y-1995I-116J0D01*
G03X-1297Y-2111I0J-116D01*
G03X-1181Y-2227I116J0D01*
G01X-1297Y-2461D02*
G03X-1181Y-2577I116J0D01*
G03X-1065Y-2461I0J116D01*
G03X-1181Y-2345I-116J0D01*
G03X-1297Y-2461I0J-116D01*
G01X1511Y421D02*
G03X1547Y457I0J36D01*
G01Y610D01*
G03X1511Y645I-36J0D01*
G01X1359D01*
G03X1323Y610I0J-36D01*
G01Y457D01*
G03X1359Y421I36J0D01*
G01X1511D01*
G01X1069Y533D02*
G03X1181Y421I112J0D01*
G03X1293Y533I0J112D01*
G03X1181Y645I-112J0D01*
G03X1069Y533I0J-112D01*
G01X118Y-1264D02*
G03X230Y-1152I0J112D01*
G03X118Y-1040I-112J0D01*
G03X6Y-1152I0J-112D01*
G03X118Y-1264I112J0D01*
G01X-248Y-1152D02*
G03X-136Y-1264I112J0D01*
G03X-24Y-1152I0J112D01*
G03X-136Y-1040I-112J0D01*
G03X-248Y-1152I0J-112D01*
G01X-390Y-1264D02*
G03X-278Y-1152I0J112D01*
G03X-390Y-1040I-112J0D01*
G03X-502Y-1152I0J-112D01*
G03X-390Y-1264I112J0D01*
G01X372Y-1264D02*
G03X484Y-1152I0J112D01*
G03X372Y-1040I-112J0D01*
G03X260Y-1152I0J-112D01*
G03X372Y-1264I112J0D01*
G01X1435Y675D02*
G03X1547Y787I0J112D01*
G03X1435Y899I-112J0D01*
G03X1323Y787I0J-112D01*
G03X1435Y675I112J0D01*
G01X1181Y675D02*
G03X1293Y787I0J112D01*
G03X1181Y899I-112J0D01*
G03X1069Y787I0J-112D01*
G03X1181Y675I112J0D01*
G01X768Y-1152D02*
G03X880Y-1264I112J0D01*
G03X992Y-1152I0J112D01*
G03X880Y-1040I-112J0D01*
G03X768Y-1152I0J-112D01*
G01X-1471Y1295D02*
G03X-1359Y1183I112J0D01*
G03X-1247Y1295I0J112D01*
G03X-1359Y1407I-112J0D01*
G03X-1471Y1295I0J-112D01*
G01X1435Y2707D02*
G03X1547Y2819I0J112D01*
G03X1435Y2931I-112J0D01*
G03X1323Y2819I0J-112D01*
G03X1435Y2707I112J0D01*
G01X-1359Y1437D02*
G03X-1247Y1549I0J112D01*
G03X-1359Y1661I-112J0D01*
G03X-1471Y1549I0J-112D01*
G03X-1359Y1437I112J0D01*
G01X-1359Y929D02*
G03X-1247Y1041I0J112D01*
G03X-1359Y1153I-112J0D01*
G03X-1471Y1041I0J-112D01*
G03X-1359Y929I112J0D01*
G01X-644Y-1264D02*
G03X-532Y-1152I0J112D01*
G03X-644Y-1040I-112J0D01*
G03X-756Y-1152I0J-112D01*
G03X-644Y-1264I112J0D01*
G01X-1359Y1691D02*
G03X-1247Y1803I0J112D01*
G03X-1359Y1915I-112J0D01*
G03X-1471Y1803I0J-112D01*
G03X-1359Y1691I112J0D01*
G01X1069Y1549D02*
G03X1181Y1437I112J0D01*
G03X1293Y1549I0J112D01*
G03X1181Y1661I-112J0D01*
G03X1069Y1549I0J-112D01*
G01X-1471Y2565D02*
G03X-1359Y2453I112J0D01*
G03X-1247Y2565I0J112D01*
G03X-1359Y2677I-112J0D01*
G03X-1471Y2565I0J-112D01*
G01X1069Y2057D02*
G03X1181Y1945I112J0D01*
G03X1293Y2057I0J112D01*
G03X1181Y2169I-112J0D01*
G03X1069Y2057I0J-112D01*
G01X-1471Y2819D02*
G03X-1359Y2707I112J0D01*
G03X-1247Y2819I0J112D01*
G03X-1359Y2931I-112J0D01*
G03X-1471Y2819I0J-112D01*
G01X-1217Y2057D02*
G03X-1105Y1945I112J0D01*
G03X-993Y2057I0J112D01*
G03X-1105Y2169I-112J0D01*
G03X-1217Y2057I0J-112D01*
G01X-1854Y-2536D02*
G03X-1742Y-2424I0J112D01*
G03X-1854Y-2312I-112J0D01*
G03X-1966Y-2424I0J-112D01*
G03X-1854Y-2536I112J0D01*
G01X1435Y1437D02*
G03X1547Y1549I0J112D01*
G03X1435Y1661I-112J0D01*
G03X1323Y1549I0J-112D01*
G03X1435Y1437I112J0D01*
G01X-1966Y-2250D02*
G03X-1930Y-2286I36J0D01*
G01X-1778D01*
G03X-1742Y-2250I0J36D01*
G01Y-2097D01*
G03X-1778Y-2062I-36J0D01*
G01X-1930D01*
G03X-1966Y-2097I0J-36D01*
G01Y-2250D01*
G01X1323Y1803D02*
G03X1435Y1691I112J0D01*
G03X1547Y1803I0J112D01*
G03X1435Y1915I-112J0D01*
G03X1323Y1803I0J-112D01*
G01X-1217Y2819D02*
G03X-1105Y2707I112J0D01*
G03X-993Y2819I0J112D01*
G03X-1105Y2931I-112J0D01*
G03X-1217Y2819I0J-112D01*
G01X1069Y1803D02*
G03X1181Y1691I112J0D01*
G03X1293Y1803I0J112D01*
G03X1181Y1915I-112J0D01*
G03X1069Y1803I0J-112D01*
G01X1181Y2707D02*
G03X1293Y2819I0J112D01*
G03X1181Y2931I-112J0D01*
G03X1069Y2819I0J-112D01*
G03X1181Y2707I112J0D01*
G01X-2801Y-1097D02*
G03X-2765Y-1061I0J36D01*
G01Y-866D01*
G03X-2801Y-830I-36J0D01*
G01X-2911D01*
G03X-2947Y-866I0J-36D01*
G01Y-1061D01*
G03X-2911Y-1097I36J0D01*
G01X-2801D01*
G01X-1807Y-1061D02*
G03X-1771Y-1097I36J0D01*
G01X-1661D01*
G03X-1625Y-1061I0J36D01*
G01Y-866D01*
G03X-1661Y-830I-36J0D01*
G01X-1771D01*
G03X-1807Y-866I0J-36D01*
G01Y-1061D01*
G01X2854Y-1010D02*
G03X2890Y-1046I36J0D01*
G01X3000D01*
G03X3036Y-1010I0J36D01*
G01Y-815D01*
G03X3000Y-779I-36J0D01*
G01X2890D01*
G03X2854Y-815I0J-36D01*
G01Y-1010D01*
G01X1714Y-1010D02*
G03X1750Y-1046I36J0D01*
G01X1860D01*
G03X1896Y-1010I0J36D01*
G01Y-815D01*
G03X1860Y-779I-36J0D01*
G01X1750D01*
G03X1714Y-815I0J-36D01*
G01Y-1010D01*
G01X-2947Y2403D02*
G03X-2911Y2367I36J0D01*
G01X-2801D01*
G03X-2765Y2403I0J36D01*
G01Y2598D01*
G03X-2801Y2633I-36J0D01*
G01X-2911D01*
G03X-2947Y2598I0J-36D01*
G01Y2403D01*
G01X2854Y2453D02*
G03X2890Y2418I36J0D01*
G01X3000D01*
G03X3036Y2453I0J36D01*
G01Y2648D01*
G03X3000Y2684I-36J0D01*
G01X2890D01*
G03X2854Y2648I0J-36D01*
G01Y2453D01*
G01X-1661Y2367D02*
G03X-1625Y2403I0J36D01*
G01Y2598D01*
G03X-1661Y2633I-36J0D01*
G01X-1771D01*
G03X-1807Y2598I0J-36D01*
G01Y2403D01*
G03X-1771Y2367I36J0D01*
G01X-1661D01*
G01X362Y-627D02*
G03X468Y-521I0J106D01*
G03X362Y-415I-106J0D01*
G03X256Y-521I0J-106D01*
G03X362Y-627I106J0D01*
G01X-388Y-627D02*
G03X-282Y-521I0J106D01*
G03X-388Y-415I-106J0D01*
G03X-494Y-521I0J-106D01*
G03X-388Y-627I106J0D01*
G01X-138Y-627D02*
G03X-32Y-521I0J106D01*
G03X-138Y-415I-106J0D01*
G03X-244Y-521I0J-106D01*
G03X-138Y-627I106J0D01*
G01X-101Y964D02*
G01X-566Y498D01*
G03X-637Y576I-81J-3D01*
G01X-674Y590D01*
G01X-917Y833D01*
G01Y1350D01*
G01X-900Y1386D01*
G03X-884Y1435I-65J49D01*
G03X-965Y1517I-82J0D01*
G03X-1001Y1509I0J-82D01*
G03X-993Y1538I-104J41D01*
G01X-972Y1613D01*
G01X-880Y1706D01*
G03X-867Y1730I-34J34D01*
G01X-850Y1767D01*
G03X-834Y1802I-65J49D01*
G01X-671Y1638D01*
G01Y1491D01*
G01X-678Y1455D01*
G03X-691Y1410I68J-45D01*
G03X-678Y1365I82J0D01*
G01X-671Y1329D01*
G01Y804D01*
G03X-653Y761I61J0D01*
G01X-652Y760D01*
G01X-631Y729D01*
G03X-551Y664I80J16D01*
G03X-469Y746I0J82D01*
G03X-535Y826I-82J0D01*
G01X-548Y835D01*
G01Y1329D01*
G01X-542Y1365D01*
G03X-528Y1410I-68J45D01*
G03X-542Y1455I-82J0D01*
G01X-548Y1491D01*
G01Y1664D01*
G03X-566Y1707I-61J0D01*
G01X-815Y1956D01*
G01Y2083D01*
G03X-833Y2126I-61J0D01*
G01X-965Y2258D01*
G01X-994Y2325D01*
G03X-1025Y2390I-111J-14D01*
G01X-655D01*
G01X-199Y1934D01*
G03X-165Y1920I34J34D01*
G01X358D01*
G03X325Y1854I48J-66D01*
G03X390Y1774I82J0D01*
G01X420Y1754D01*
G01X650Y1524D01*
G01Y1293D01*
G01X526Y1417D01*
G03X482Y1435I-43J-43D01*
G01X290D01*
G01X215Y1510D01*
G01X194Y1540D01*
G03X114Y1606I-80J-16D01*
G03X33Y1534I0J-82D01*
G03X-13Y1547I-46J-73D01*
G03X-99Y1461I0J-87D01*
G03X-74Y1399I87J0D01*
G01X13Y1312D01*
G03X0Y1313I-13J-81D01*
G03X-82Y1232I0J-82D01*
G03X-16Y1152I82J0D01*
G01X14Y1131D01*
G01X53Y1092D01*
G01Y1040D01*
G03X0Y1059I-53J-62D01*
G03X-80Y994I0J-82D01*
G01X-101Y964D01*
G54D10*
G01X936Y-1784D02*
G01X936Y-1678D01*
G01X936Y-1784D02*
G01X936Y-1890D01*
G01X936Y-1784D02*
G01X1042Y-1784D01*
G01X936Y-1784D02*
G01X830Y-1784D01*
G01X2731Y-1790D02*
G01X2731Y-1896D01*
G01X2731Y-1790D02*
G01X2731Y-1684D01*
G01X2731Y-1790D02*
G01X2625Y-1790D01*
G01X2731Y-1790D02*
G01X2836Y-1790D01*
G01X936Y-2064D02*
G01X936Y-1958D01*
G01X936Y-2064D02*
G01X936Y-2170D01*
G01X936Y-2064D02*
G01X1042Y-2064D01*
G01X936Y-2064D02*
G01X830Y-2064D01*
G01X1435Y533D02*
G01X1435Y636D01*
G01X1435Y533D02*
G01X1435Y431D01*
G01X1435Y533D02*
G01X1537Y533D01*
G01X1435Y533D02*
G01X1333Y533D01*
G01X-644Y-1152D02*
G01X-746Y-1152D01*
G01X-644Y-1152D02*
G01X-541Y-1152D01*
G01X-644Y-1152D02*
G01X-644Y-1050D01*
G01X-644Y-1152D02*
G01X-644Y-1254D01*
G01X-1181Y-2461D02*
G01X-1287Y-2461D01*
G01X-1181Y-2461D02*
G01X-1075Y-2461D01*
G01X-1181Y-2461D02*
G01X-1181Y-2355D01*
G01X-1181Y-2461D02*
G01X-1181Y-2567D01*
G01X-1359Y533D02*
G01X-1359Y636D01*
G01X-1359Y533D02*
G01X-1359Y431D01*
G01X-1359Y533D02*
G01X-1461Y533D01*
G01X2159Y1181D02*
G01X2159Y1292D01*
G01X2159Y1181D02*
G01X2159Y1070D01*
G01X2159Y1181D02*
G01X2270Y1181D01*
G01X2159Y1181D02*
G01X2048Y1181D01*
G01X2159Y927D02*
G01X2159Y1038D01*
G01X2159Y927D02*
G01X2159Y816D01*
G01X2159Y927D02*
G01X2270Y927D01*
G01X2159Y927D02*
G01X2048Y927D01*
G01X2731Y-2070D02*
G01X2731Y-2176D01*
G01X2731Y-2070D02*
G01X2731Y-1964D01*
G01X2731Y-2070D02*
G01X2625Y-2070D01*
G01X2731Y-2070D02*
G01X2836Y-2070D01*
G01X-388Y-521D02*
G01X-484Y-521D01*
G01X-388Y-521D02*
G01X-292Y-521D01*
G01X-388Y-521D02*
G01X-388Y-425D01*
G01X-388Y-521D02*
G01X-388Y-617D01*
G01X-1854Y-2424D02*
G01X-1854Y-2322D01*
G01X-1854Y-2424D02*
G01X-1854Y-2526D01*
G01X-1854Y-2424D02*
G01X-1752Y-2424D01*
G01X-1854Y-2424D02*
G01X-1956Y-2424D01*
G01X-1105Y2057D02*
G01X-1105Y2160D01*
G01X-1105Y2057D02*
G01X-1105Y1955D01*
G01X-1105Y2057D02*
G01X-1003Y2057D01*
G01X-1105Y2057D02*
G01X-1207Y2057D01*
G04 Copper End*

G04 Tear Start*
G36*
G01X-1892Y3116D02*
G01X-1943Y3116D01*
G01X-1956Y3040D01*
G01X-1866D01*
G01X-1892Y3116D01*
G37*
G36*
G01X-2636Y3105D02*
G01X-2686Y3105D01*
G01X-2706Y3040D01*
G01X-2616D01*
G01X-2636Y3105D01*
G37*
G36*
G01X1176Y2235D02*
G01X1264Y2211D01*
G01X1282Y2229D01*
G01X1257Y2316D01*
G01X1176Y2235D01*
G37*
G36*
G01X1105Y1046D02*
G01X1072Y968D01*
G01X1107Y932D01*
G01X1186Y965D01*
G01X1105Y1046D01*
G37*
G36*
G01X-1054Y476D02*
G01X-975Y521D01*
G01Y546D01*
G01X-1054Y591D01*
G01Y476D01*
G37*
G36*
G01X-1181Y1046D02*
G01X-1205Y959D01*
G01X-1188Y941D01*
G01X-1100Y965D01*
G01X-1181Y1046D01*
G37*
G36*
G01X-1029Y1545D02*
G01X-1004Y1632D01*
G01X-1022Y1650D01*
G01X-1110Y1625D01*
G01X-1029Y1545D01*
G37*
G36*
G01X-1110Y2235D02*
G01X-1031Y2202D01*
G01X-995Y2238D01*
G01X-1029Y2316D01*
G01X-1110Y2235D01*
G37*
G36*
G01X-1409Y845D02*
G01X-1488Y800D01*
G01Y775D01*
G01X-1409Y730D01*
G01Y845D01*
G37*
G36*
G01X-1283Y2053D02*
G01X-1258Y2140D01*
G01X-1276Y2158D01*
G01X-1364Y2133D01*
G01X-1283Y2053D01*
G37*
G36*
G01X2775Y3092D02*
G01X2725Y3092D01*
G01X2705Y3091D01*
G01X2795D01*
G01X2775Y3092D01*
G37*
G36*
G01X2019Y3150D02*
G01X1969Y3150D01*
G01X1955Y3091D01*
G01X2045D01*
G01X2019Y3150D01*
G37*
G36*
G01X2019Y-1116D02*
G01X1969Y-1116D01*
G01X1955Y-1193D01*
G01X2045D01*
G01X2019Y-1116D01*
G37*
G36*
G01X2781Y-1116D02*
G01X2731Y-1116D01*
G01X2705Y-1193D01*
G01X2795D01*
G01X2781Y-1116D01*
G37*
G36*
G01X-2636Y-1167D02*
G01X-2686Y-1167D01*
G01X-2706Y-1243D01*
G01X-2616D01*
G01X-2636Y-1167D01*
G37*
G36*
G01X-1892Y-1167D02*
G01X-1943Y-1167D01*
G01X-1956Y-1243D01*
G01X-1866D01*
G01X-1892Y-1167D01*
G37*
G36*
G01X-955Y-1202D02*
G01X-923Y-1281D01*
G01X-872D01*
G01X-840Y-1202D01*
G01X-955D01*
G37*
G36*
G01X-840Y-1101D02*
G01X-872Y-1022D01*
G01X-923D01*
G01X-955Y-1101D01*
G01X-840D01*
G37*
G36*
G01X-701Y-1202D02*
G01X-669Y-1281D01*
G01X-618D01*
G01X-586Y-1202D01*
G01X-701D01*
G37*
G36*
G01X-586Y-1101D02*
G01X-618Y-1022D01*
G01X-669D01*
G01X-701Y-1101D01*
G01X-586D01*
G37*
G36*
G01X617Y-451D02*
G01X546Y-419D01*
G01X510Y-455D01*
G01X542Y-525D01*
G01X617Y-451D01*
G37*
G36*
G01X-458Y-516D02*
G01X-490Y-587D01*
G01X-454Y-623D01*
G01X-383Y-591D01*
G01X-458Y-516D01*
G37*
G36*
G01X-762Y-609D02*
G01X-726Y-645D01*
G01X-582Y-591D01*
G01X-708Y-465D01*
G01X-762Y-609D01*
G37*
G36*
G01X-663Y-375D02*
G01X-708Y-451D01*
G01X-568D01*
G01X-612Y-375D01*
G01X-663D01*
G37*
G36*
G01X60Y-567D02*
G01X100Y-640D01*
G01X125D01*
G01X165Y-567D01*
G01X60D01*
G37*
G36*
G01X888Y-2000D02*
G01X804Y-2007D01*
G01X796Y-2108D01*
G01X878Y-2119D01*
G01X888Y-2000D01*
G37*
G36*
G01X2734Y-2957D02*
G01X2651Y-2923D01*
G01X2615Y-2959D01*
G01X2649Y-3042D01*
G01X2734Y-2957D01*
G37*
G36*
G01X2678Y-2010D02*
G01X2595Y-2045D01*
G01Y-2095D01*
G01X2678Y-2130D01*
G01Y-2010D01*
G37*
G36*
G01X2205Y1872D02*
G01X2301Y1918D01*
G01X2305Y1943D01*
G01X2224Y1998D01*
G01X2205Y1872D01*
G37*
G36*
G01X2215Y1625D02*
G01X2303Y1676D01*
G01Y1702D01*
G01X2215Y1753D01*
G01Y1625D01*
G37*
G36*
G01X1849Y991D02*
G01X1791Y940D01*
G01Y914D01*
G01X1849Y863D01*
G01Y991D01*
G37*
G36*
G01X-949Y1786D02*
G01X-927Y1740D01*
G01X-902D01*
G01X-880Y1786D01*
G01X-949D01*
G37*
G36*
G01X175Y2698D02*
G01X215Y2670D01*
G01X251Y2706D01*
G01X223Y2746D01*
G01X175Y2698D01*
G37*
G36*
G01X211Y2994D02*
G01X238Y3034D01*
G01X202Y3070D01*
G01X162Y3043D01*
G01X211Y2994D01*
G37*
G36*
G01X871Y3349D02*
G01X824Y3340D01*
G01Y3289D01*
G01X871Y3280D01*
G01Y3349D01*
G37*
G36*
G01X1364Y3192D02*
G01X1411Y3200D01*
G01Y3251D01*
G01X1364Y3260D01*
G01Y3192D01*
G37*
G36*
G01X54Y2459D02*
G01X14Y2486D01*
G01X-22Y2450D01*
G01X5Y2410D01*
G01X54Y2459D01*
G37*
G36*
G01X-385Y2748D02*
G01X-394Y2790D01*
G01X-444D01*
G01X-453Y2748D01*
G01X-385D01*
G37*
G36*
G01X404Y1809D02*
G01X443Y1781D01*
G01X479Y1817D01*
G01X452Y1857D01*
G01X404Y1809D01*
G37*
G36*
G01X1468Y314D02*
G01X1421Y305D01*
G01Y254D01*
G01X1468Y245D01*
G01Y314D01*
G37*
G36*
G01X1960Y-348D02*
G01X1969Y-395D01*
G01X2019D01*
G01X2028Y-348D01*
G01X1960D01*
G37*
G36*
G01X111Y1478D02*
G01X151Y1451D01*
G01X187Y1487D01*
G01X160Y1527D01*
G01X111Y1478D01*
G37*
G36*
G01X1443Y98D02*
G01X1395Y89D01*
G01Y38D01*
G01X1443Y29D01*
G01Y98D01*
G37*
G36*
G01X2722Y-843D02*
G01X2731Y-891D01*
G01X2781D01*
G01X2790Y-843D01*
G01X2722D01*
G37*
G36*
G01X-3Y1186D02*
G01X37Y1159D01*
G01X73Y1195D01*
G01X46Y1235D01*
G01X-3Y1186D01*
G37*
G36*
G01X-46Y981D02*
G01X-73Y941D01*
G01X-37Y905D01*
G01X3Y932D01*
G01X-46Y981D01*
G37*
G36*
G01X-1610Y56D02*
G01X-1564Y68D01*
G01X-1584Y119D01*
G01X-1636D01*
G01X-1610Y56D01*
G37*
G36*
G01X-1952Y-767D02*
G01X-1943Y-814D01*
G01X-1892D01*
G01X-1883Y-767D01*
G01X-1952D01*
G37*
G36*
G01X911Y614D02*
G01X902Y662D01*
G01X851D01*
G01X842Y614D01*
G01X911D01*
G37*
G36*
G01X245Y478D02*
G01X254Y430D01*
G01X305D01*
G01X314Y478D01*
G01X245D01*
G37*
G36*
G01X-149Y363D02*
G01X-140Y316D01*
G01X-89D01*
G01X-80Y363D01*
G01X-149D01*
G37*
G36*
G01X-644Y1379D02*
G01X-635Y1332D01*
G01X-584D01*
G01X-575Y1379D01*
G01X-644D01*
G37*
G36*
G01X-575Y1440D02*
G01X-584Y1487D01*
G01X-635D01*
G01X-644Y1440D01*
G01X-575D01*
G37*
G36*
G01X-548Y791D02*
G01X-588Y819D01*
G01X-624Y783D01*
G01X-597Y743D01*
G01X-548Y791D01*
G37*
G36*
G01X950Y2469D02*
G01X998Y2451D01*
G01X1016Y2469D01*
G01X998Y2517D01*
G01X950Y2469D01*
G37*
G36*
G01X1625Y2592D02*
G01X1613Y2545D01*
G01X1644Y2541D01*
G01X1693Y2581D01*
G01X1625Y2592D01*
G37*
G36*
G01X-999Y1405D02*
G01X-978Y1357D01*
G01X-952D01*
G01X-931Y1405D01*
G01X-999D01*
G37*
G36*
G01X-645Y541D02*
G01X-694Y559D01*
G01X-712Y541D01*
G01X-693Y492D01*
G01X-645Y541D01*
G37*
G36*
G01X-960Y422D02*
G01X-961Y390D01*
G01X-944Y372D01*
G01X-912Y373D01*
G01X-960Y422D01*
G37*
G36*
G01X-1521Y439D02*
G01X-1570Y458D01*
G01X-1588Y440D01*
G01X-1570Y391D01*
G01X-1521Y439D01*
G37*
G36*
G01X752Y-958D02*
G01X703Y-939D01*
G01X685Y-957D01*
G01X704Y-1006D01*
G01X752Y-958D01*
G37*
G36*
G01X1148Y-149D02*
G01X1195Y-127D01*
G01Y-102D01*
G01X1148Y-80D01*
G01Y-149D01*
G37*
G36*
G01X-947Y600D02*
G01X-966Y551D01*
G01X-948Y533D01*
G01X-899Y551D01*
G01X-947Y600D01*
G37*
G36*
G01X1112Y-320D02*
G01X1131Y-272D01*
G01X1113Y-254D01*
G01X1064Y-272D01*
G01X1112Y-320D01*
G37*
G36*
G01X2861Y1405D02*
G01X2883Y1384D01*
G01X2908D01*
G01X2930Y1405D01*
G01X2861D01*
G37*
G36*
G01X2650Y1364D02*
G01X2629Y1411D01*
G01X2604D01*
G01X2582Y1364D01*
G01X2650D01*
G37*
G36*
G01X2911Y2014D02*
G01X2862Y2032D01*
G01X2844Y2014D01*
G01X2863Y1966D01*
G01X2911Y2014D01*
G37*
G36*
G01X3167Y-3058D02*
G01X3149Y-3107D01*
G01X3167Y-3125D01*
G01X3216Y-3106D01*
G01X3167Y-3058D01*
G37*
G36*
G01X881Y-2346D02*
G01X929Y-2324D01*
G01Y-2299D01*
G01X881Y-2277D01*
G01Y-2346D01*
G37*
G36*
G01X-537Y-2243D02*
G01X-559Y-2196D01*
G01X-584D01*
G01X-606Y-2243D01*
G01X-537D01*
G37*
G36*
G01X-1006Y-1671D02*
G01X-957Y-1690D01*
G01X-939Y-1672D01*
G01X-958Y-1623D01*
G01X-1006Y-1671D01*
G37*
G04 Tear End*

G04 Pad Start*
G54D11*
G01X-3250Y50D03*
G01X3250Y50D03*
G01X0Y-3350D03*
G36*
G01X-1866Y2780D02*
G01X-1866Y3040D01*
G01X-1956D01*
G01Y2780D01*
G01X-1866D01*
G37*
G36*
G01X-2016Y2780D02*
G01X-2016Y3040D01*
G01X-2106D01*
G01Y2780D01*
G01X-2016D01*
G37*
G36*
G01X-2166Y2780D02*
G01X-2166Y3040D01*
G01X-2256D01*
G01Y2780D01*
G01X-2166D01*
G37*
G36*
G01X-2316Y2780D02*
G01X-2316Y3040D01*
G01X-2406D01*
G01Y2780D01*
G01X-2316D01*
G37*
G36*
G01X-1661Y2403D02*
G01X-1661Y2598D01*
G01X-1771D01*
G01Y2403D01*
G01X-1661D01*
G37*
G36*
G01X-2801Y2403D02*
G01X-2801Y2598D01*
G01X-2911D01*
G01Y2403D01*
G01X-2801D01*
G37*
G36*
G01X-2466Y2780D02*
G01X-2466Y3040D01*
G01X-2556D01*
G01Y2780D01*
G01X-2466D01*
G37*
G36*
G01X-2616Y2780D02*
G01X-2616Y3040D01*
G01X-2706D01*
G01Y2780D01*
G01X-2616D01*
G37*
G36*
G01X1511Y610D02*
G01X1359Y610D01*
G01Y457D01*
G01X1511D01*
G01Y610D01*
G37*
G54D12*
G01X1435Y787D03*
G01X1435Y1041D03*
G01X1435Y1295D03*
G01X1435Y1549D03*
G01X1435Y1803D03*
G01X1435Y2057D03*
G01X1435Y2311D03*
G01X1435Y2565D03*
G01X1435Y2819D03*
G01X1181Y2819D03*
G01X1181Y2565D03*
G01X1181Y2311D03*
G01X1181Y2057D03*
G01X1181Y1803D03*
G01X1181Y1549D03*
G01X1181Y1295D03*
G01X1181Y1041D03*
G01X1181Y787D03*
G01X1181Y533D03*
G01X-1105Y533D03*
G01X-1105Y787D03*
G01X-1105Y1041D03*
G01X-1105Y1295D03*
G01X-1105Y1549D03*
G01X-1105Y1803D03*
G01X-1105Y2057D03*
G01X-1105Y2311D03*
G01X-1105Y2565D03*
G01X-1105Y2819D03*
G01X-1359Y533D03*
G01X-1359Y787D03*
G01X-1359Y1041D03*
G01X-1359Y1295D03*
G01X-1359Y1549D03*
G01X-1359Y1803D03*
G01X-1359Y2057D03*
G01X-1359Y2311D03*
G01X-1359Y2565D03*
G01X-1359Y2819D03*
G36*
G01X2795Y2831D02*
G01X2795Y3091D01*
G01X2705D01*
G01Y2831D01*
G01X2795D01*
G37*
G36*
G01X2645Y2831D02*
G01X2645Y3091D01*
G01X2555D01*
G01Y2831D01*
G01X2645D01*
G37*
G36*
G01X2495Y2831D02*
G01X2495Y3091D01*
G01X2405D01*
G01Y2831D01*
G01X2495D01*
G37*
G36*
G01X2345Y2831D02*
G01X2345Y3091D01*
G01X2255D01*
G01Y2831D01*
G01X2345D01*
G37*
G36*
G01X3000Y2453D02*
G01X3000Y2648D01*
G01X2890D01*
G01Y2453D01*
G01X3000D01*
G37*
G36*
G01X1860Y2453D02*
G01X1860Y2648D01*
G01X1750D01*
G01Y2453D01*
G01X1860D01*
G37*
G36*
G01X2195Y2831D02*
G01X2195Y3091D01*
G01X2105D01*
G01Y2831D01*
G01X2195D01*
G37*
G36*
G01X2045Y2831D02*
G01X2045Y3091D01*
G01X1955D01*
G01Y2831D01*
G01X2045D01*
G37*
G36*
G01X1955Y-1193D02*
G01X1955Y-1453D01*
G01X2045D01*
G01Y-1193D01*
G01X1955D01*
G37*
G36*
G01X2105Y-1193D02*
G01X2105Y-1453D01*
G01X2195D01*
G01Y-1193D01*
G01X2105D01*
G37*
G36*
G01X2255Y-1193D02*
G01X2255Y-1453D01*
G01X2345D01*
G01Y-1193D01*
G01X2255D01*
G37*
G36*
G01X2405Y-1193D02*
G01X2405Y-1453D01*
G01X2495D01*
G01Y-1193D01*
G01X2405D01*
G37*
G36*
G01X1750Y-815D02*
G01X1750Y-1010D01*
G01X1860D01*
G01Y-815D01*
G01X1750D01*
G37*
G36*
G01X2890Y-815D02*
G01X2890Y-1010D01*
G01X3000D01*
G01Y-815D01*
G01X2890D01*
G37*
G36*
G01X2555Y-1193D02*
G01X2555Y-1453D01*
G01X2645D01*
G01Y-1193D01*
G01X2555D01*
G37*
G36*
G01X2705Y-1193D02*
G01X2705Y-1453D01*
G01X2795D01*
G01Y-1193D01*
G01X2705D01*
G37*
G36*
G01X-2706Y-1243D02*
G01X-2706Y-1503D01*
G01X-2616D01*
G01Y-1243D01*
G01X-2706D01*
G37*
G36*
G01X-2556Y-1243D02*
G01X-2556Y-1503D01*
G01X-2466D01*
G01Y-1243D01*
G01X-2556D01*
G37*
G36*
G01X-2406Y-1243D02*
G01X-2406Y-1503D01*
G01X-2316D01*
G01Y-1243D01*
G01X-2406D01*
G37*
G36*
G01X-2256Y-1243D02*
G01X-2256Y-1503D01*
G01X-2166D01*
G01Y-1243D01*
G01X-2256D01*
G37*
G36*
G01X-2911Y-866D02*
G01X-2911Y-1061D01*
G01X-2801D01*
G01Y-866D01*
G01X-2911D01*
G37*
G36*
G01X-1771Y-866D02*
G01X-1771Y-1061D01*
G01X-1661D01*
G01Y-866D01*
G01X-1771D01*
G37*
G36*
G01X-2106Y-1243D02*
G01X-2106Y-1503D01*
G01X-2016D01*
G01Y-1243D01*
G01X-2106D01*
G37*
G36*
G01X-1956Y-1243D02*
G01X-1956Y-1503D01*
G01X-1866D01*
G01Y-1243D01*
G01X-1956D01*
G37*
G54D13*
G01X-1181Y-2461D03*
G01X-1181Y-2111D03*
G36*
G01X-1778Y-2097D02*
G01X-1930Y-2097D01*
G01Y-2250D01*
G01X-1778D01*
G01Y-2097D01*
G37*
G54D12*
G01X-1854Y-2424D03*
G01X-898Y-1152D03*
G01X-644Y-1152D03*
G01X-390Y-1152D03*
G01X-136Y-1152D03*
G01X118Y-1152D03*
G01X372Y-1152D03*
G01X626Y-1152D03*
G01X880Y-1152D03*
G54D14*
G01X-834Y4D03*
G01X766Y4D03*
G54D15*
G01X612Y-521D03*
G01X-138Y-521D03*
G01X-388Y-521D03*
G36*
G01X-708Y-451D02*
G01X-708Y-591D01*
G01X-568D01*
G01Y-451D01*
G01X-708D01*
G37*
G01X112Y-521D03*
G01X362Y-521D03*
G54D16*
G01X936Y-1784D03*
G01X936Y-2064D03*
G01X934Y-3036D03*
G01X934Y-3316D03*
G01X2729Y-3317D03*
G01X2729Y-3037D03*
G01X2731Y-2070D03*
G01X2731Y-1790D03*
G36*
G01X1990Y2028D02*
G01X1820Y2028D01*
G01Y1858D01*
G01X1990D01*
G01Y2028D01*
G37*
G54D17*
G01X2159Y1943D03*
G01X1905Y1689D03*
G01X2159Y1689D03*
G01X1905Y1435D03*
G01X2159Y1435D03*
G01X1905Y1181D03*
G01X2159Y1181D03*
G01X1905Y927D03*
G01X2159Y927D03*
G04 Pad End*

G04 Via Start*
G54D18*
G01X241Y-2921D03*
G01X-13Y1461D03*
G01X533Y356D03*
G54D19*
G01X787Y3505D03*
G01X51Y2629D03*
G01X-914Y1816D03*
G01X178Y2743D03*
G01X165Y2997D03*
G01X902Y3315D03*
G01X1334Y3226D03*
G01X51Y2413D03*
G01X-419Y2718D03*
G01X406Y1854D03*
G01X1499Y279D03*
G01X1994Y-317D03*
G01X114Y1524D03*
G01X1473Y64D03*
G01X2756Y-813D03*
G01X0Y1232D03*
G01X0Y978D03*
G01X-1651Y76D03*
G01X-1918Y-737D03*
G01X1245Y-635D03*
G01X876Y584D03*
G01X279Y508D03*
G01X-114Y394D03*
G01X-610Y1410D03*
G01X-551Y746D03*
G01X953Y2515D03*
G01X1664Y2616D03*
G01X-965Y1435D03*
G01X-648Y495D03*
G01X-914Y419D03*
G01X-1524Y394D03*
G01X749Y-1003D03*
G01X1118Y-114D03*
G01X-902Y597D03*
G01X1067Y-317D03*
G01X2896Y1435D03*
G01X2616Y1334D03*
G01X2908Y1969D03*
G01X3213Y-3061D03*
G01X851Y-2311D03*
G01X-571Y-2273D03*
G01X-1003Y-1626D03*
G54D20*
G01X534Y2176D03*
G01X534Y2276D03*
G01X634Y2176D03*
G01X634Y2276D03*
G01X534Y2884D03*
G01X534Y2984D03*
G01X634Y2884D03*
G01X634Y2984D03*
G01X-407Y1818D03*
G01X-407Y1718D03*
G01X-507Y1818D03*
G01X-507Y1718D03*
G01X-407Y1098D03*
G01X-407Y998D03*
G01X-507Y1098D03*
G01X-507Y998D03*
G04 Via End*

G04 Track Start*
G54D21*
G01X241Y-2921D02*
G01X241Y-2400D01*
G01X584Y-2057D01*
G01X929D01*
G01X936Y-2064D01*
G01X-13Y1461D02*
G01X165Y1283D01*
G01X445D01*
G01X533Y1194D01*
G01Y356D01*
G01X3162Y3137D02*
G01X2794Y3505D01*
G01X787D01*
G01X3162Y1283D02*
G01X3162Y3137D01*
G01X51Y2629D02*
G01X51Y3200D01*
G01X356Y3505D02*
G01X787Y3505D01*
G01X51Y3200D02*
G01X356Y3505D01*
G54D10*
G01X-914Y1816D02*
G01X-914Y1740D01*
G01X-1105Y1549D01*
G54D22*
G01X178Y2743D02*
G01X330Y2591D01*
G01X864D01*
G01X1003Y2731D01*
G01Y3162D01*
G01X1194Y3353D01*
G01X2489D01*
G01X2750Y3092D01*
G01Y2961D01*
G01X165Y2997D02*
G01X483Y3315D01*
G01X902D01*
G01X1918Y3226D02*
G01X1994Y3150D01*
G01Y2967D01*
G01X2000Y2961D01*
G01X1334Y3226D02*
G01X1918Y3226D01*
G01X51Y2413D02*
G01X-444Y2908D01*
G01Y3239D01*
G01X-622Y3416D01*
G01X-2349D01*
G01X-2661Y3105D01*
G01Y2910D01*
G01X-419Y2718D02*
G01X-419Y2790D01*
G01X-511Y2881D01*
G01Y3211D01*
G01X-650Y3350D01*
G01X-1869Y3350D02*
G01X-1918Y3302D01*
G01Y2917D01*
G01X-1911Y2910D01*
G01X-650Y3350D02*
G01X-1869Y3350D01*
G01X406Y1854D02*
G01X711Y1549D01*
G01Y546D01*
G01X978Y279D01*
G01X1994Y-317D02*
G01X1994Y-1317D01*
G01X2000Y-1323D01*
G01X114Y1524D02*
G01X264Y1374D01*
G01X482D01*
G01X625Y1232D01*
G01X1092Y64D02*
G01X1473Y64D01*
G01X2756Y-813D02*
G01X2756Y-1317D01*
G01X2750Y-1323D01*
G01X625Y1232D02*
G01X625Y531D01*
G01X1092Y64D01*
G01X0Y1232D02*
G01X114Y1118D01*
G01Y826D01*
G01X-457Y254D01*
G01X-1029D01*
G01X-1384Y-102D01*
G01X-2134D01*
G01X-2661Y-629D01*
G01Y-1373D01*
G01X0Y978D02*
G01X-658Y320D01*
G01X-1056D01*
G01X-1283Y93D01*
G01X-1634D01*
G01X-1651Y76D01*
G01X-1918Y-737D02*
G01X-1918Y-1367D01*
G01X-1911Y-1373D01*
G54D21*
G01X1245Y-635D02*
G01X3162Y1283D01*
G54D22*
G01X2729Y-3037D02*
G01X1292Y-1600D01*
G01X-686Y-1600D02*
G01X-898Y-1388D01*
G01Y-1152D01*
G01X1292Y-1600D02*
G01X-686Y-1600D01*
G01X-644Y-1152D02*
G01X-644Y-1376D01*
G01X-559Y-1460D01*
G01X1486D01*
G01X2096Y-2070D01*
G01X2731D01*
G01X-898Y-1152D02*
G01X-898Y-781D01*
G01X-638Y-521D01*
G01X-388Y-521D02*
G01X-644Y-777D01*
G01Y-1152D01*
G01X1181Y1041D02*
G01X876Y737D01*
G01Y584D01*
G01X279Y508D02*
G01X279Y-188D01*
G01X612Y-521D01*
G01X-638Y-521D02*
G01X-638Y-282D01*
G01X-114Y241D02*
G01X-114Y394D01*
G01X-638Y-282D02*
G01X-114Y241D01*
G01X-1105Y2311D02*
G01X-876Y2083D01*
G01X-610Y1664D02*
G01X-610Y1410D01*
G01X-876Y2083D02*
G01X-876Y1930D01*
G01X-610Y1664D01*
G01X-551Y746D02*
G01X-610Y804D01*
G01Y1410D01*
G54D10*
G01X953Y2515D02*
G01X1016Y2451D01*
G01X1537D01*
G01X1664Y2578D01*
G01Y2616D01*
G01X-965Y1435D02*
G01X-965Y813D01*
G01X-648Y495D01*
G01X-1105Y1041D02*
G01X-1245Y902D01*
G01Y432D01*
G01X-1194Y381D01*
G01X-914Y419D02*
G01X-952Y381D01*
G01X-1194D01*
G01X-1511Y787D02*
G01X-1613Y686D01*
G01Y483D01*
G01X-1524Y394D01*
G01X749Y-1003D02*
G01X622Y-876D01*
G01X241D01*
G01X112Y-747D01*
G01Y-521D01*
G01X-1359Y787D02*
G01X-1511Y787D01*
G01X1905Y927D02*
G01X1791Y927D01*
G01X1118Y1168D02*
G01X1016Y1270D01*
G01Y1537D01*
G01X-635Y2438D02*
G01X-1181Y2438D01*
G01X-1232Y2388D01*
G01X-1232Y2184D02*
G01X-1359Y2057D01*
G01X1791Y927D02*
G01X1549Y1168D01*
G01X1118D01*
G01X1016Y1537D02*
G01X584Y1969D01*
G01X-165D01*
G01X-635Y2438D01*
G01X-1232Y2388D02*
G01X-1232Y2184D01*
G01X1118Y-114D02*
G01X1511Y-114D01*
G01X2743Y1118D01*
G01Y1765D01*
G01X2578Y1930D01*
G01X2172D01*
G01X2159Y1943D01*
G01X-1105Y533D02*
G01X-965Y533D01*
G01X-902Y597D01*
G01X1067Y-317D02*
G01X1229Y-155D01*
G01X1528D01*
G01X2784Y1101D01*
G01Y1273D01*
G01X2896Y1384D02*
G01X2896Y1435D01*
G01X2616Y1334D02*
G01X2616Y1511D01*
G01X2438Y1689D01*
G01X2159D01*
G01X2896Y1384D02*
G01X2784Y1273D01*
G54D22*
G01X1499Y279D02*
G01X978Y279D01*
G54D10*
G01X1181Y2311D02*
G01X1295Y2197D01*
G01X1600D01*
G01X1638Y2159D01*
G01X1676D01*
G01X1753Y2083D01*
G01X2794D01*
G01X2908Y1969D01*
G01X3213Y-3061D02*
G01X2756Y-3518D01*
G01X2096D01*
G01X1575Y-2997D01*
G01Y-2400D01*
G01X1486Y-2311D01*
G01X851D01*
G01X-571Y-2273D02*
G01X-571Y-2057D01*
G01X-1003Y-1626D01*
G04 Track End*

M02*
