G04 Layer: BottomPasteMaskLayer*
G04 EasyEDA Pro v1.6.32, 2023-12-29 17:47:12*
G04 Gerber Generator version 0.3*
G04 Scale: 100 percent, Rotated: No, Reflected: No*
G04 Dimensions in millimeters*
G04 Leading zeros omitted, absolute positions, 4 integers and 2 decimals*
%FSLAX42Y42*%
%MOMM*%
%ADD10C,0.254*%
G75*


G04 Pad Start*
G36*
G01X-1866Y2780D02*
G01X-1866Y3040D01*
G01X-1956D01*
G01Y2780D01*
G01X-1866D01*
G37*
G36*
G01X-2016Y2780D02*
G01X-2016Y3040D01*
G01X-2106D01*
G01Y2780D01*
G01X-2016D01*
G37*
G36*
G01X-2166Y2780D02*
G01X-2166Y3040D01*
G01X-2256D01*
G01Y2780D01*
G01X-2166D01*
G37*
G36*
G01X-2316Y2780D02*
G01X-2316Y3040D01*
G01X-2406D01*
G01Y2780D01*
G01X-2316D01*
G37*
G36*
G01X-1661Y2403D02*
G01X-1661Y2598D01*
G01X-1771D01*
G01Y2403D01*
G01X-1661D01*
G37*
G36*
G01X-2801Y2403D02*
G01X-2801Y2598D01*
G01X-2911D01*
G01Y2403D01*
G01X-2801D01*
G37*
G36*
G01X-2466Y2780D02*
G01X-2466Y3040D01*
G01X-2556D01*
G01Y2780D01*
G01X-2466D01*
G37*
G36*
G01X-2616Y2780D02*
G01X-2616Y3040D01*
G01X-2706D01*
G01Y2780D01*
G01X-2616D01*
G37*
G36*
G01X2795Y2831D02*
G01X2795Y3091D01*
G01X2705D01*
G01Y2831D01*
G01X2795D01*
G37*
G36*
G01X2645Y2831D02*
G01X2645Y3091D01*
G01X2555D01*
G01Y2831D01*
G01X2645D01*
G37*
G36*
G01X2495Y2831D02*
G01X2495Y3091D01*
G01X2405D01*
G01Y2831D01*
G01X2495D01*
G37*
G36*
G01X2345Y2831D02*
G01X2345Y3091D01*
G01X2255D01*
G01Y2831D01*
G01X2345D01*
G37*
G36*
G01X3000Y2453D02*
G01X3000Y2648D01*
G01X2890D01*
G01Y2453D01*
G01X3000D01*
G37*
G36*
G01X1860Y2453D02*
G01X1860Y2648D01*
G01X1750D01*
G01Y2453D01*
G01X1860D01*
G37*
G36*
G01X2195Y2831D02*
G01X2195Y3091D01*
G01X2105D01*
G01Y2831D01*
G01X2195D01*
G37*
G36*
G01X2045Y2831D02*
G01X2045Y3091D01*
G01X1955D01*
G01Y2831D01*
G01X2045D01*
G37*
G36*
G01X1955Y-1193D02*
G01X1955Y-1453D01*
G01X2045D01*
G01Y-1193D01*
G01X1955D01*
G37*
G36*
G01X2105Y-1193D02*
G01X2105Y-1453D01*
G01X2195D01*
G01Y-1193D01*
G01X2105D01*
G37*
G36*
G01X2255Y-1193D02*
G01X2255Y-1453D01*
G01X2345D01*
G01Y-1193D01*
G01X2255D01*
G37*
G36*
G01X2405Y-1193D02*
G01X2405Y-1453D01*
G01X2495D01*
G01Y-1193D01*
G01X2405D01*
G37*
G36*
G01X1750Y-815D02*
G01X1750Y-1010D01*
G01X1860D01*
G01Y-815D01*
G01X1750D01*
G37*
G36*
G01X2890Y-815D02*
G01X2890Y-1010D01*
G01X3000D01*
G01Y-815D01*
G01X2890D01*
G37*
G36*
G01X2555Y-1193D02*
G01X2555Y-1453D01*
G01X2645D01*
G01Y-1193D01*
G01X2555D01*
G37*
G36*
G01X2705Y-1193D02*
G01X2705Y-1453D01*
G01X2795D01*
G01Y-1193D01*
G01X2705D01*
G37*
G36*
G01X-2706Y-1243D02*
G01X-2706Y-1503D01*
G01X-2616D01*
G01Y-1243D01*
G01X-2706D01*
G37*
G36*
G01X-2556Y-1243D02*
G01X-2556Y-1503D01*
G01X-2466D01*
G01Y-1243D01*
G01X-2556D01*
G37*
G36*
G01X-2406Y-1243D02*
G01X-2406Y-1503D01*
G01X-2316D01*
G01Y-1243D01*
G01X-2406D01*
G37*
G36*
G01X-2256Y-1243D02*
G01X-2256Y-1503D01*
G01X-2166D01*
G01Y-1243D01*
G01X-2256D01*
G37*
G36*
G01X-2911Y-866D02*
G01X-2911Y-1061D01*
G01X-2801D01*
G01Y-866D01*
G01X-2911D01*
G37*
G36*
G01X-1771Y-866D02*
G01X-1771Y-1061D01*
G01X-1661D01*
G01Y-866D01*
G01X-1771D01*
G37*
G36*
G01X-2106Y-1243D02*
G01X-2106Y-1503D01*
G01X-2016D01*
G01Y-1243D01*
G01X-2106D01*
G37*
G36*
G01X-1956Y-1243D02*
G01X-1956Y-1503D01*
G01X-1866D01*
G01Y-1243D01*
G01X-1956D01*
G37*
G04 Pad End*
G54D10*

M02*
